<?xml version="1.0" encoding="UTF-8" standalone="no"?>
<!DOCTYPE svg PUBLIC "-//W3C//DTD SVG 1.1//EN"
 "http://www.w3.org/Graphics/SVG/1.1/DTD/svg11.dtd">
<!-- Generated by graphviz version 2.38.0 (20140413.2041)
 -->
<!-- Title: %3 Pages: 1 -->
<svg width="466pt" height="378pt"
 viewBox="0.00 0.00 466.00 377.89" xmlns="http://www.w3.org/2000/svg" xmlns:xlink="http://www.w3.org/1999/xlink">
<g id="graph0" class="graph" transform="scale(1 1) rotate(0) translate(4 373.889)">
<title>%3</title>
<polygon fill="white" stroke="none" points="-4,4 -4,-373.889 462,-373.889 462,4 -4,4"/>
<!-- x -->
<g id="node1" class="node"><title>x</title>
<polygon fill="lightgray" stroke="black" points="161.04,-369.889 141.04,-369.889 141.04,-351.889 161.04,-351.889 161.04,-369.889"/>
<text text-anchor="middle" x="151.04" y="-358.689" font-family="Times New Roman,serif" font-size="9.00">x</text>
</g>
<!-- control -->
<g id="node3" class="node"><title>control</title>
<ellipse fill="lightblue" stroke="black" cx="238.04" cy="-29.6985" rx="29.8983" ry="29.8983"/>
<text text-anchor="middle" x="238.04" y="-27.4985" font-family="Times New Roman,serif" font-size="9.00">control</text>
</g>
<!-- x&#45;&gt;control -->
<g id="edge20" class="edge"><title>x&#45;&gt;control</title>
<path fill="none" stroke="red" stroke-width="0.378993" d="M140.77,-360.451C113.513,-361.308 39.2302,-359.385 7.03975,-315.889 -6.0471,-298.206 2.90129,-287.998 7.03975,-266.392 22.4256,-186.066 17.1892,-153.21 75.0397,-95.397 108.655,-61.8032 161.877,-45.1226 198.299,-37.2195"/>
<polygon fill="red" stroke="red" stroke-width="0.378993" points="199.459,-40.555 208.558,-35.1279 198.061,-33.6961 199.459,-40.555"/>
</g>
<!-- 2245 -->
<g id="node4" class="node"><title>2245</title>
<ellipse fill="white" stroke="black" cx="331.04" cy="-291.141" rx="25" ry="25"/>
<text text-anchor="middle" x="331.04" y="-288.941" font-family="Times New Roman,serif" font-size="9.00">2245</text>
</g>
<!-- x&#45;&gt;2245 -->
<g id="edge4" class="edge"><title>x&#45;&gt;2245</title>
<path fill="none" stroke="green" stroke-width="0.603876" d="M161.094,-358.083C185.515,-353.443 249.518,-339.767 298.04,-315.889 299.845,-315.001 301.657,-314.016 303.452,-312.967"/>
<polygon fill="green" stroke="green" stroke-width="0.603876" points="305.671,-315.701 312.177,-307.34 301.876,-309.819 305.671,-315.701"/>
</g>
<!-- 2246 -->
<g id="node5" class="node"><title>2246</title>
<ellipse fill="white" stroke="black" cx="197.04" cy="-291.141" rx="25" ry="25"/>
<text text-anchor="middle" x="197.04" y="-288.941" font-family="Times New Roman,serif" font-size="9.00">2246</text>
</g>
<!-- x&#45;&gt;2246 -->
<g id="edge7" class="edge"><title>x&#45;&gt;2246</title>
<path fill="none" stroke="red" stroke-width="0.132007" d="M156.497,-351.852C161.769,-344.087 170.069,-331.863 177.79,-320.492"/>
<polygon fill="red" stroke="red" stroke-width="0.132007" points="180.799,-322.29 183.521,-312.051 175.008,-318.358 180.799,-322.29"/>
</g>
<!-- 2247 -->
<g id="node6" class="node"><title>2247</title>
<ellipse fill="white" stroke="black" cx="264.04" cy="-291.141" rx="25" ry="25"/>
<text text-anchor="middle" x="264.04" y="-288.941" font-family="Times New Roman,serif" font-size="9.00">2247</text>
</g>
<!-- x&#45;&gt;2247 -->
<g id="edge15" class="edge"><title>x&#45;&gt;2247</title>
<path fill="none" stroke="red" stroke-width="0.698728" d="M161.115,-354.847C176.504,-347.035 206.648,-331.295 231.04,-315.889 232.696,-314.843 234.381,-313.745 236.068,-312.618"/>
<polygon fill="red" stroke="red" stroke-width="0.698728" points="238.175,-315.417 244.414,-306.854 234.197,-309.657 238.175,-315.417"/>
</g>
<!-- 2248 -->
<g id="node7" class="node"><title>2248</title>
<ellipse fill="white" stroke="black" cx="185.04" cy="-205.643" rx="25" ry="25"/>
<text text-anchor="middle" x="185.04" y="-203.443" font-family="Times New Roman,serif" font-size="9.00">2248</text>
</g>
<!-- x&#45;&gt;2248 -->
<g id="edge9" class="edge"><title>x&#45;&gt;2248</title>
<path fill="none" stroke="green" stroke-width="0.342014" d="M151.466,-351.773C152.459,-335.412 155.447,-297.388 163.04,-266.392 165.338,-257.009 168.631,-247.07 171.972,-238.047"/>
<polygon fill="green" stroke="green" stroke-width="0.342014" points="175.249,-239.276 175.57,-228.686 168.715,-236.764 175.249,-239.276"/>
</g>
<!-- 2249 -->
<g id="node8" class="node"><title>2249</title>
<ellipse fill="white" stroke="black" cx="398.04" cy="-291.141" rx="25" ry="25"/>
<text text-anchor="middle" x="398.04" y="-288.941" font-family="Times New Roman,serif" font-size="9.00">2249</text>
</g>
<!-- x&#45;&gt;2249 -->
<g id="edge19" class="edge"><title>x&#45;&gt;2249</title>
<path fill="none" stroke="green" stroke-width="0.185774" stroke-dasharray="1,5" d="M161.306,-359.299C192.966,-357.166 291.399,-348.185 365.04,-315.889 366.882,-315.081 368.723,-314.159 370.541,-313.158"/>
<polygon fill="green" stroke="green" stroke-width="0.185774" points="372.707,-315.931 379.325,-307.657 368.992,-309.998 372.707,-315.931"/>
</g>
<!-- 2250 -->
<g id="node9" class="node"><title>2250</title>
<ellipse fill="white" stroke="black" cx="109.04" cy="-205.643" rx="25" ry="25"/>
<text text-anchor="middle" x="109.04" y="-203.443" font-family="Times New Roman,serif" font-size="9.00">2250</text>
</g>
<!-- x&#45;&gt;2250 -->
<g id="edge2" class="edge"><title>x&#45;&gt;2250</title>
<path fill="none" stroke="green" stroke-width="0.550289" d="M140.858,-360.13C115.222,-360.111 47.9948,-356.062 19.0397,-315.889 6.17678,-298.043 8.64064,-285.778 19.0397,-266.392 31.1323,-243.849 55.8883,-228.367 76.3805,-218.82"/>
<polygon fill="green" stroke="green" stroke-width="0.550289" points="77.9723,-221.944 85.7286,-214.727 75.1644,-215.532 77.9723,-221.944"/>
</g>
<!-- 6093 -->
<g id="node10" class="node"><title>6093</title>
<ellipse fill="white" stroke="black" cx="53.0397" cy="-291.141" rx="25" ry="25"/>
<text text-anchor="middle" x="53.0397" y="-288.941" font-family="Times New Roman,serif" font-size="9.00">6093</text>
</g>
<!-- x&#45;&gt;6093 -->
<g id="edge23" class="edge"><title>x&#45;&gt;6093</title>
<path fill="none" stroke="red" stroke-width="0.997038" d="M140.921,-352.894C127.034,-343.294 101.517,-325.653 81.5426,-311.845"/>
<polygon fill="red" stroke="red" stroke-width="0.997038" points="83.3111,-308.813 73.095,-306.005 79.3305,-314.571 83.3111,-308.813"/>
</g>
<!-- dx -->
<g id="node2" class="node"><title>dx</title>
<polygon fill="lightgray" stroke="black" points="309.54,-369.889 284.54,-369.889 284.54,-351.889 309.54,-351.889 309.54,-369.889"/>
<text text-anchor="middle" x="297.04" y="-358.689" font-family="Times New Roman,serif" font-size="9.00">dx</text>
</g>
<!-- dx&#45;&gt;control -->
<g id="edge14" class="edge"><title>dx&#45;&gt;control</title>
<path fill="none" stroke="green" stroke-width="1.71309" d="M309.819,-358.182C343.418,-353.406 432.833,-338.742 450.04,-315.889 463.272,-298.315 456.987,-287.265 450.04,-266.392 418.002,-170.131 322.183,-90.2934 271.047,-53.1375"/>
<polygon fill="green" stroke="green" stroke-width="1.71309" points="272.81,-50.0959 262.641,-47.1226 268.737,-55.7885 272.81,-50.0959"/>
</g>
<!-- dx&#45;&gt;2245 -->
<g id="edge12" class="edge"><title>dx&#45;&gt;2245</title>
<path fill="none" stroke="green" stroke-width="0.3789" d="M301.074,-351.852C304.72,-344.586 310.325,-333.417 315.706,-322.696"/>
<polygon fill="green" stroke="green" stroke-width="0.3789" points="318.964,-324.006 320.321,-313.498 312.708,-320.866 318.964,-324.006"/>
</g>
<!-- dx&#45;&gt;2246 -->
<g id="edge13" class="edge"><title>dx&#45;&gt;2246</title>
<path fill="none" stroke="red" stroke-width="0.692822" d="M284.087,-351.616C270.511,-342.891 248.615,-328.664 230.04,-315.889 228.426,-314.779 226.774,-313.631 225.112,-312.466"/>
<polygon fill="red" stroke="red" stroke-width="0.692822" points="227.017,-309.526 216.836,-306.596 222.967,-315.236 227.017,-309.526"/>
</g>
<!-- dx&#45;&gt;2247 -->
<g id="edge18" class="edge"><title>dx&#45;&gt;2247</title>
<path fill="none" stroke="green" stroke-width="0.244853" d="M293.125,-351.852C289.612,-344.641 284.226,-333.584 279.04,-322.936"/>
<polygon fill="green" stroke="green" stroke-width="0.244853" points="282.111,-321.248 274.585,-313.791 275.818,-324.314 282.111,-321.248"/>
</g>
<!-- dx&#45;&gt;2248 -->
<g id="edge8" class="edge"><title>dx&#45;&gt;2248</title>
<path fill="none" stroke="red" stroke-width="0.260206" d="M309.852,-360.221C337.632,-360.156 403.224,-355.589 432.04,-315.889 444.962,-298.086 445.644,-283.68 432.04,-266.392 405.99,-233.29 281.375,-216.327 219.731,-209.844"/>
<polygon fill="red" stroke="red" stroke-width="0.260206" points="219.998,-206.353 209.695,-208.823 219.29,-213.317 219.998,-206.353"/>
</g>
<!-- dx&#45;&gt;2249 -->
<g id="edge10" class="edge"><title>dx&#45;&gt;2249</title>
<path fill="none" stroke="green" stroke-width="0.68821" d="M309.695,-351.964C323.444,-343.293 345.995,-328.892 365.04,-315.889 366.657,-314.785 368.312,-313.641 369.977,-312.479"/>
<polygon fill="green" stroke="green" stroke-width="0.68821" points="372.118,-315.251 378.259,-306.618 368.074,-309.537 372.118,-315.251"/>
</g>
<!-- dx&#45;&gt;2250 -->
<g id="edge17" class="edge"><title>dx&#45;&gt;2250</title>
<path fill="none" stroke="red" stroke-width="0.257649" stroke-dasharray="1,5" d="M284.382,-358.954C258.582,-356.422 199.294,-347.336 163.04,-315.889 140.105,-295.996 125.915,-264.079 117.872,-239.868"/>
<polygon fill="red" stroke="red" stroke-width="0.257649" points="121.118,-238.521 114.794,-230.021 114.437,-240.61 121.118,-238.521"/>
</g>
<!-- dx&#45;&gt;6093 -->
<g id="edge21" class="edge"><title>dx&#45;&gt;6093</title>
<path fill="none" stroke="green" stroke-width="0.366549" d="M284.421,-356.755C256.498,-349.779 187.408,-332.286 130.04,-315.889 115.677,-311.784 99.899,-306.972 86.3857,-302.756"/>
<polygon fill="green" stroke="green" stroke-width="0.366549" points="87.1435,-299.326 76.5542,-299.671 85.0473,-306.005 87.1435,-299.326"/>
</g>
<!-- 2245&#45;&gt;control -->
<g id="edge6" class="edge"><title>2245&#45;&gt;control</title>
<path fill="none" stroke="red" stroke-width="0.268384" stroke-dasharray="1,5" d="M324.796,-266.994C314.606,-230.139 293.106,-156.086 269.04,-95.397 265.149,-85.5845 260.436,-75.1782 255.873,-65.6467"/>
<polygon fill="red" stroke="red" stroke-width="0.268384" points="258.923,-63.9163 251.395,-56.4611 252.631,-66.9836 258.923,-63.9163"/>
</g>
<!-- 2246&#45;&gt;control -->
<g id="edge3" class="edge"><title>2246&#45;&gt;control</title>
<path fill="none" stroke="red" stroke-width="1.05165" d="M206.689,-268.14C211.161,-257.03 216.12,-243.218 219.04,-230.392 231.555,-175.414 235.84,-110.102 237.299,-69.5182"/>
<polygon fill="red" stroke="red" stroke-width="1.05165" points="240.797,-69.6119 237.619,-59.5051 233.801,-69.3881 240.797,-69.6119"/>
</g>
<!-- 2246&#45;&gt;2248 -->
<g id="edge24" class="edge"><title>2246&#45;&gt;2248</title>
<path fill="none" stroke="green" stroke-width="0.303226" d="M193.633,-266.437C192.468,-258.328 191.141,-249.094 189.884,-240.35"/>
<polygon fill="green" stroke="green" stroke-width="0.303226" points="193.342,-239.807 188.455,-230.406 186.413,-240.802 193.342,-239.807"/>
</g>
<!-- 2247&#45;&gt;control -->
<g id="edge5" class="edge"><title>2247&#45;&gt;control</title>
<path fill="none" stroke="red" stroke-width="0.453042" d="M263.733,-266.343C262.998,-229.532 260.502,-156.635 252.04,-95.397 250.841,-86.7237 249.116,-77.4825 247.284,-68.7796"/>
<polygon fill="red" stroke="red" stroke-width="0.453042" points="250.673,-67.8933 245.109,-58.8768 243.836,-69.3948 250.673,-67.8933"/>
</g>
<!-- 2248&#45;&gt;control -->
<g id="edge16" class="edge"><title>2248&#45;&gt;control</title>
<path fill="none" stroke="red" stroke-width="0.479425" d="M192.078,-181.545C200.92,-152.526 216.204,-102.364 226.702,-67.9076"/>
<polygon fill="red" stroke="red" stroke-width="0.479425" points="230.094,-68.7843 229.661,-58.1983 223.398,-66.744 230.094,-68.7843"/>
</g>
<!-- 2249&#45;&gt;control -->
<g id="edge11" class="edge"><title>2249&#45;&gt;control</title>
<path fill="none" stroke="green" stroke-width="0.23593" d="M387.908,-268.299C370.413,-231.401 332.505,-154.929 292.04,-95.397 283.701,-83.1286 273.497,-70.4295 264.213,-59.5653"/>
<polygon fill="green" stroke="green" stroke-width="0.23593" points="266.854,-57.2685 257.655,-52.0112 261.568,-61.8572 266.854,-57.2685"/>
</g>
<!-- 2250&#45;&gt;control -->
<g id="edge1" class="edge"><title>2250&#45;&gt;control</title>
<path fill="none" stroke="red" stroke-width="0.17147" d="M123.338,-185.363C145.444,-155.556 188.139,-97.9857 214.744,-62.1107"/>
<polygon fill="red" stroke="red" stroke-width="0.17147" points="217.668,-64.0434 220.814,-53.9263 212.046,-59.8736 217.668,-64.0434"/>
</g>
<!-- 8305 -->
<g id="node11" class="node"><title>8305</title>
<ellipse fill="white" stroke="black" cx="109.04" cy="-120.146" rx="25" ry="25"/>
<text text-anchor="middle" x="109.04" y="-117.946" font-family="Times New Roman,serif" font-size="9.00">8305</text>
</g>
<!-- 2250&#45;&gt;8305 -->
<g id="edge25" class="edge"><title>2250&#45;&gt;8305</title>
<path fill="none" stroke="red" stroke-width="0.374503" d="M109.04,-180.492C109.04,-172.548 109.04,-163.564 109.04,-155.033"/>
<polygon fill="red" stroke="red" stroke-width="0.374503" points="112.54,-154.954 109.04,-144.954 105.54,-154.954 112.54,-154.954"/>
</g>
<!-- 6093&#45;&gt;2250 -->
<g id="edge22" class="edge"><title>6093&#45;&gt;2250</title>
<path fill="none" stroke="red" stroke-width="0.214929" d="M66.5958,-269.928C73.6119,-259.467 82.2943,-246.521 89.9748,-235.07"/>
<polygon fill="red" stroke="red" stroke-width="0.214929" points="92.9452,-236.924 95.6085,-226.669 87.1317,-233.025 92.9452,-236.924"/>
</g>
<!-- 8305&#45;&gt;control -->
<g id="edge26" class="edge"><title>8305&#45;&gt;control</title>
<path fill="none" stroke="green" stroke-width="0.34289" d="M129.196,-105.326C149.518,-91.3924 181.222,-69.6546 205.183,-53.2266"/>
<polygon fill="green" stroke="green" stroke-width="0.34289" points="207.356,-55.9803 213.624,-47.4387 203.397,-50.2069 207.356,-55.9803"/>
</g>
</g>
</svg>
