<?xml version="1.0" encoding="utf-8" standalone="no"?>
<!DOCTYPE svg PUBLIC "-//W3C//DTD SVG 1.1//EN"
  "http://www.w3.org/Graphics/SVG/1.1/DTD/svg11.dtd">
<svg xmlns:xlink="http://www.w3.org/1999/xlink" width="460.8pt" height="345.6pt" viewBox="0 0 460.8 345.6" xmlns="http://www.w3.org/2000/svg" version="1.1">
 <metadata>
  <rdf:RDF xmlns:dc="http://purl.org/dc/elements/1.1/" xmlns:cc="http://creativecommons.org/ns#" xmlns:rdf="http://www.w3.org/1999/02/22-rdf-syntax-ns#">
   <cc:Work>
    <dc:type rdf:resource="http://purl.org/dc/dcmitype/StillImage"/>
    <dc:date>2022-04-26T00:17:48.075059</dc:date>
    <dc:format>image/svg+xml</dc:format>
    <dc:creator>
     <cc:Agent>
      <dc:title>Matplotlib v3.5.1, https://matplotlib.org/</dc:title>
     </cc:Agent>
    </dc:creator>
   </cc:Work>
  </rdf:RDF>
 </metadata>
 <defs>
  <style type="text/css">*{stroke-linejoin: round; stroke-linecap: butt}</style>
 </defs>
 <g id="figure_1">
  <g id="patch_1">
   <path d="M 0 345.6 
L 460.8 345.6 
L 460.8 0 
L 0 0 
z
" style="fill: #ffffff"/>
  </g>
  <g id="axes_1">
   <g id="patch_2">
    <path d="M 57.6 307.584 
L 414.72 307.584 
L 414.72 41.472 
L 57.6 41.472 
z
" style="fill: #ffffff"/>
   </g>
   <g id="PolyCollection_1">
    <path d="M 73.832727 276.695209 
L 73.832727 307.584 
L 94.123636 307.584 
L 114.414545 307.584 
L 134.705455 307.584 
L 154.996364 307.584 
L 175.287273 307.584 
L 195.578182 307.584 
L 215.869091 307.584 
L 236.16 307.584 
L 256.450909 307.584 
L 276.741818 307.584 
L 297.032727 307.584 
L 317.323636 307.584 
L 337.614545 307.584 
L 357.905455 307.584 
L 378.196364 307.584 
L 398.487273 307.584 
L 398.487273 298.216088 
L 398.487273 298.216088 
L 378.196364 300.494769 
L 357.905455 287.835429 
L 337.614545 296.950154 
L 317.323636 301.507516 
L 297.032727 302.520264 
L 276.741818 307.077626 
L 256.450909 187.826637 
L 236.16 291.380044 
L 215.869091 284.290813 
L 195.578182 293.152352 
L 175.287273 295.431033 
L 154.996364 293.911912 
L 134.705455 279.480264 
L 114.414545 292.899165 
L 94.123636 299.228835 
L 73.832727 276.695209 
z
" clip-path="url(#p5a953c648c)" style="fill: #1f77b4"/>
   </g>
   <g id="PolyCollection_2">
    <path d="M 73.832727 263.782681 
L 73.832727 276.695209 
L 94.123636 299.228835 
L 114.414545 292.899165 
L 134.705455 279.480264 
L 154.996364 293.911912 
L 175.287273 295.431033 
L 195.578182 293.152352 
L 215.869091 284.290813 
L 236.16 291.380044 
L 256.450909 187.826637 
L 276.741818 307.077626 
L 297.032727 302.520264 
L 317.323636 301.507516 
L 337.614545 296.950154 
L 357.905455 287.835429 
L 378.196364 300.494769 
L 398.487273 298.216088 
L 398.487273 285.809934 
L 398.487273 285.809934 
L 378.196364 297.709714 
L 357.905455 282.518505 
L 337.614545 279.227077 
L 317.323636 292.645978 
L 297.032727 296.190593 
L 276.741818 266.567736 
L 256.450909 184.028835 
L 236.16 282.012132 
L 215.869091 279.227077 
L 195.578182 285.30356 
L 175.287273 292.899165 
L 154.996364 171.369495 
L 134.705455 275.429275 
L 114.414545 277.201582 
L 94.123636 262.010374 
L 73.832727 263.782681 
z
" clip-path="url(#p5a953c648c)" style="fill: #ff7f0e"/>
   </g>
   <g id="PolyCollection_3">
    <path d="M 73.832727 250.36378 
L 73.832727 263.782681 
L 94.123636 262.010374 
L 114.414545 277.201582 
L 134.705455 275.429275 
L 154.996364 171.369495 
L 175.287273 292.899165 
L 195.578182 285.30356 
L 215.869091 279.227077 
L 236.16 282.012132 
L 256.450909 184.028835 
L 276.741818 266.567736 
L 297.032727 296.190593 
L 317.323636 292.645978 
L 337.614545 279.227077 
L 357.905455 282.518505 
L 378.196364 297.709714 
L 398.487273 285.809934 
L 398.487273 279.986637 
L 398.487273 279.986637 
L 378.196364 292.139604 
L 357.905455 195.675429 
L 337.614545 196.434989 
L 317.323636 211.879385 
L 297.032727 189.598945 
L 276.741818 265.301802 
L 256.450909 182.509714 
L 236.16 276.948396 
L 215.869091 263.529495 
L 195.578182 278.21433 
L 175.287273 285.556747 
L 154.996364 169.850374 
L 134.705455 266.820923 
L 114.414545 268.340044 
L 94.123636 259.731692 
L 73.832727 250.36378 
z
" clip-path="url(#p5a953c648c)" style="fill: #2ca02c"/>
   </g>
   <g id="PolyCollection_4">
    <path d="M 73.832727 215.930374 
L 73.832727 250.36378 
L 94.123636 259.731692 
L 114.414545 268.340044 
L 134.705455 266.820923 
L 154.996364 169.850374 
L 175.287273 285.556747 
L 195.578182 278.21433 
L 215.869091 263.529495 
L 236.16 276.948396 
L 256.450909 182.509714 
L 276.741818 265.301802 
L 297.032727 189.598945 
L 317.323636 211.879385 
L 337.614545 196.434989 
L 357.905455 195.675429 
L 378.196364 292.139604 
L 398.487273 279.986637 
L 398.487273 274.416527 
L 398.487273 274.416527 
L 378.196364 287.835429 
L 357.905455 181.24378 
L 337.614545 184.788396 
L 317.323636 198.207297 
L 297.032727 174.660923 
L 276.741818 259.984879 
L 256.450909 169.597187 
L 236.16 256.946637 
L 215.869091 240.489495 
L 195.578182 259.984879 
L 175.287273 269.605978 
L 154.996364 157.697407 
L 134.705455 254.161582 
L 114.414545 262.769934 
L 94.123636 243.780923 
L 73.832727 215.930374 
z
" clip-path="url(#p5a953c648c)" style="fill: #d62728"/>
   </g>
   <g id="PolyCollection_5">
    <path d="M 73.832727 200.739165 
L 73.832727 215.930374 
L 94.123636 243.780923 
L 114.414545 262.769934 
L 134.705455 254.161582 
L 154.996364 157.697407 
L 175.287273 269.605978 
L 195.578182 259.984879 
L 215.869091 240.489495 
L 236.16 256.946637 
L 256.450909 169.597187 
L 276.741818 259.984879 
L 297.032727 174.660923 
L 317.323636 198.207297 
L 337.614545 184.788396 
L 357.905455 181.24378 
L 378.196364 287.835429 
L 398.487273 274.416527 
L 398.487273 263.276308 
L 398.487273 263.276308 
L 378.196364 276.695209 
L 357.905455 170.10356 
L 337.614545 179.471473 
L 317.323636 177.699165 
L 297.032727 162.001582 
L 276.741818 249.60422 
L 256.450909 157.44422 
L 236.16 238.970374 
L 215.869091 221.247297 
L 195.578182 239.729934 
L 175.287273 253.402022 
L 154.996364 144.025319 
L 134.705455 252.136088 
L 114.414545 220.99411 
L 94.123636 202.005099 
L 73.832727 200.739165 
z
" clip-path="url(#p5a953c648c)" style="fill: #9467bd"/>
   </g>
   <g id="PolyCollection_6">
    <path d="M 73.832727 172.129055 
L 73.832727 200.739165 
L 94.123636 202.005099 
L 114.414545 220.99411 
L 134.705455 252.136088 
L 154.996364 144.025319 
L 175.287273 253.402022 
L 195.578182 239.729934 
L 215.869091 221.247297 
L 236.16 238.970374 
L 256.450909 157.44422 
L 276.741818 249.60422 
L 297.032727 162.001582 
L 317.323636 177.699165 
L 337.614545 179.471473 
L 357.905455 170.10356 
L 378.196364 276.695209 
L 398.487273 263.276308 
L 398.487273 252.389275 
L 398.487273 252.389275 
L 378.196364 272.391033 
L 357.905455 157.44422 
L 337.614545 160.229275 
L 317.323636 158.710154 
L 297.032727 142.759385 
L 276.741818 239.729934 
L 256.450909 152.380484 
L 236.16 175.420484 
L 215.869091 158.710154 
L 195.578182 178.205538 
L 175.287273 150.608176 
L 154.996364 130.100044 
L 134.705455 241.249055 
L 114.414545 138.455209 
L 94.123636 161.748396 
L 73.832727 172.129055 
z
" clip-path="url(#p5a953c648c)" style="fill: #8c564b"/>
   </g>
   <g id="PolyCollection_7">
    <path d="M 73.832727 153.899604 
L 73.832727 172.129055 
L 94.123636 161.748396 
L 114.414545 138.455209 
L 134.705455 241.249055 
L 154.996364 130.100044 
L 175.287273 150.608176 
L 195.578182 178.205538 
L 215.869091 158.710154 
L 236.16 175.420484 
L 256.450909 152.380484 
L 276.741818 239.729934 
L 297.032727 142.759385 
L 317.323636 158.710154 
L 337.614545 160.229275 
L 357.905455 157.44422 
L 378.196364 272.391033 
L 398.487273 252.389275 
L 398.487273 240.236308 
L 398.487273 240.236308 
L 378.196364 269.099604 
L 357.905455 147.06356 
L 337.614545 151.114549 
L 317.323636 141.493451 
L 297.032727 130.859604 
L 276.741818 105.540923 
L 256.450909 143.012571 
L 236.16 151.114549 
L 215.869091 150.608176 
L 195.578182 158.20378 
L 175.287273 136.682901 
L 154.996364 118.959824 
L 134.705455 215.677187 
L 114.414545 90.096527 
L 94.123636 147.823121 
L 73.832727 153.899604 
z
" clip-path="url(#p5a953c648c)" style="fill: #e377c2"/>
   </g>
   <g id="PolyCollection_8">
    <path d="M 73.832727 139.214769 
L 73.832727 153.899604 
L 94.123636 147.823121 
L 114.414545 90.096527 
L 134.705455 215.677187 
L 154.996364 118.959824 
L 175.287273 136.682901 
L 195.578182 158.20378 
L 215.869091 150.608176 
L 236.16 151.114549 
L 256.450909 143.012571 
L 276.741818 105.540923 
L 297.032727 130.859604 
L 317.323636 141.493451 
L 337.614545 151.114549 
L 357.905455 147.06356 
L 378.196364 269.099604 
L 398.487273 240.236308 
L 398.487273 232.387516 
L 398.487273 232.387516 
L 378.196364 262.769934 
L 357.905455 131.872352 
L 337.614545 135.416967 
L 317.323636 127.061802 
L 297.032727 124.02356 
L 276.741818 97.185758 
L 256.450909 133.644659 
L 236.16 141.240264 
L 215.869091 132.885099 
L 195.578182 145.54444 
L 175.287273 119.466198 
L 154.996364 106.047297 
L 134.705455 203.271033 
L 114.414545 80.728615 
L 94.123636 145.54444 
L 73.832727 139.214769 
z
" clip-path="url(#p5a953c648c)" style="fill: #7f7f7f"/>
   </g>
   <g id="PolyCollection_9">
    <path d="M 73.832727 130.606418 
L 73.832727 139.214769 
L 94.123636 145.54444 
L 114.414545 80.728615 
L 134.705455 203.271033 
L 154.996364 106.047297 
L 175.287273 119.466198 
L 195.578182 145.54444 
L 215.869091 132.885099 
L 236.16 141.240264 
L 256.450909 133.644659 
L 276.741818 97.185758 
L 297.032727 124.02356 
L 317.323636 127.061802 
L 337.614545 135.416967 
L 357.905455 131.872352 
L 378.196364 262.769934 
L 398.487273 232.387516 
L 398.487273 223.779165 
L 398.487273 223.779165 
L 378.196364 260.997626 
L 357.905455 119.972571 
L 337.614545 119.972571 
L 317.323636 110.351473 
L 297.032727 106.300484 
L 276.741818 83.766857 
L 256.450909 111.870593 
L 236.16 117.440703 
L 215.869091 108.579165 
L 195.578182 126.302242 
L 175.287273 102.755868 
L 154.996364 92.628396 
L 134.705455 171.622681 
L 114.414545 73.892571 
L 94.123636 126.555429 
L 73.832727 130.606418 
z
" clip-path="url(#p5a953c648c)" style="fill: #bcbd22"/>
   </g>
   <g id="PolyCollection_10">
    <path d="M 73.832727 122.50444 
L 73.832727 130.606418 
L 94.123636 126.555429 
L 114.414545 73.892571 
L 134.705455 171.622681 
L 154.996364 92.628396 
L 175.287273 102.755868 
L 195.578182 126.302242 
L 215.869091 108.579165 
L 236.16 117.440703 
L 256.450909 111.870593 
L 276.741818 83.766857 
L 297.032727 106.300484 
L 317.323636 110.351473 
L 337.614545 119.972571 
L 357.905455 119.972571 
L 378.196364 260.997626 
L 398.487273 223.779165 
L 398.487273 99.46444 
L 398.487273 99.46444 
L 378.196364 100.98356 
L 357.905455 116.681143 
L 337.614545 107.060044 
L 317.323636 103.515429 
L 297.032727 93.134769 
L 276.741818 73.386198 
L 256.450909 97.692132 
L 236.16 102.249495 
L 215.869091 94.65389 
L 195.578182 115.162022 
L 175.287273 94.147516 
L 154.996364 89.336967 
L 134.705455 107.060044 
L 114.414545 71.107516 
L 94.123636 111.617407 
L 73.832727 122.50444 
z
" clip-path="url(#p5a953c648c)" style="fill: #17becf"/>
   </g>
   <g id="PolyCollection_11">
    <path d="M 73.832727 115.921582 
L 73.832727 122.50444 
L 94.123636 111.617407 
L 114.414545 71.107516 
L 134.705455 107.060044 
L 154.996364 89.336967 
L 175.287273 94.147516 
L 195.578182 115.162022 
L 215.869091 94.65389 
L 236.16 102.249495 
L 256.450909 97.692132 
L 276.741818 73.386198 
L 297.032727 93.134769 
L 317.323636 103.515429 
L 337.614545 107.060044 
L 357.905455 116.681143 
L 378.196364 100.98356 
L 398.487273 99.46444 
L 398.487273 93.387956 
L 398.487273 93.387956 
L 378.196364 97.692132 
L 357.905455 106.55367 
L 337.614545 96.932571 
L 317.323636 95.160264 
L 297.032727 86.298725 
L 276.741818 68.322462 
L 256.450909 90.349714 
L 236.16 91.868835 
L 215.869091 78.449934 
L 195.578182 103.009055 
L 175.287273 78.956308 
L 154.996364 75.664879 
L 134.705455 97.692132 
L 114.414545 65.790593 
L 94.123636 107.819604 
L 73.832727 115.921582 
z
" clip-path="url(#p5a953c648c)" style="fill: #1f77b4"/>
   </g>
   <g id="PolyCollection_12">
    <path d="M 73.832727 58.954549 
L 73.832727 115.921582 
L 94.123636 107.819604 
L 114.414545 65.790593 
L 134.705455 97.692132 
L 154.996364 75.664879 
L 175.287273 78.956308 
L 195.578182 103.009055 
L 215.869091 78.449934 
L 236.16 91.868835 
L 256.450909 90.349714 
L 276.741818 68.322462 
L 297.032727 86.298725 
L 317.323636 95.160264 
L 337.614545 96.932571 
L 357.905455 106.55367 
L 378.196364 97.692132 
L 398.487273 93.387956 
L 398.487273 84.526418 
L 398.487273 84.526418 
L 378.196364 91.615648 
L 357.905455 83.260484 
L 337.614545 76.42444 
L 317.323636 72.373451 
L 297.032727 70.347956 
L 276.741818 61.739604 
L 256.450909 75.664879 
L 236.16 72.373451 
L 215.869091 58.954549 
L 195.578182 87.311473 
L 175.287273 71.107516 
L 154.996364 66.803341 
L 134.705455 68.575648 
L 114.414545 63.511912 
L 94.123636 61.992791 
L 73.832727 58.954549 
z
" clip-path="url(#p5a953c648c)" style="fill: #ff7f0e"/>
   </g>
   <g id="PolyCollection_13">
    <path d="M 73.832727 54.397187 
L 73.832727 58.954549 
L 94.123636 61.992791 
L 114.414545 63.511912 
L 134.705455 68.575648 
L 154.996364 66.803341 
L 175.287273 71.107516 
L 195.578182 87.311473 
L 215.869091 58.954549 
L 236.16 72.373451 
L 256.450909 75.664879 
L 276.741818 61.739604 
L 297.032727 70.347956 
L 317.323636 72.373451 
L 337.614545 76.42444 
L 357.905455 83.260484 
L 378.196364 91.615648 
L 398.487273 84.526418 
L 398.487273 54.397187 
L 398.487273 54.397187 
L 378.196364 54.90356 
L 357.905455 54.397187 
L 337.614545 54.397187 
L 317.323636 54.90356 
L 297.032727 54.650374 
L 276.741818 54.650374 
L 256.450909 54.90356 
L 236.16 54.650374 
L 215.869091 54.397187 
L 195.578182 54.144 
L 175.287273 54.144 
L 154.996364 54.397187 
L 134.705455 54.650374 
L 114.414545 54.90356 
L 94.123636 54.650374 
L 73.832727 54.397187 
z
" clip-path="url(#p5a953c648c)" style="fill: #2ca02c"/>
   </g>
   <g id="matplotlib.axis_1">
    <g id="xtick_1">
     <g id="line2d_1">
      <defs>
       <path id="m2694d11547" d="M 0 0 
L 0 3.5 
" style="stroke: #000000; stroke-width: 0.8"/>
      </defs>
      <g>
       <use xlink:href="#m2694d11547" x="73.832727" y="307.584" style="stroke: #000000; stroke-width: 0.8"/>
      </g>
     </g>
     <g id="text_1">
      <!-- 0 -->
      <g transform="translate(70.651477 322.182437)scale(0.1 -0.1)">
       <defs>
        <path id="DejaVuSans-30" d="M 2034 4250 
Q 1547 4250 1301 3770 
Q 1056 3291 1056 2328 
Q 1056 1369 1301 889 
Q 1547 409 2034 409 
Q 2525 409 2770 889 
Q 3016 1369 3016 2328 
Q 3016 3291 2770 3770 
Q 2525 4250 2034 4250 
z
M 2034 4750 
Q 2819 4750 3233 4129 
Q 3647 3509 3647 2328 
Q 3647 1150 3233 529 
Q 2819 -91 2034 -91 
Q 1250 -91 836 529 
Q 422 1150 422 2328 
Q 422 3509 836 4129 
Q 1250 4750 2034 4750 
z
" transform="scale(0.015625)"/>
       </defs>
       <use xlink:href="#DejaVuSans-30"/>
      </g>
     </g>
    </g>
    <g id="xtick_2">
     <g id="line2d_2">
      <g>
       <use xlink:href="#m2694d11547" x="114.414545" y="307.584" style="stroke: #000000; stroke-width: 0.8"/>
      </g>
     </g>
     <g id="text_2">
      <!-- 2 -->
      <g transform="translate(111.233295 322.182437)scale(0.1 -0.1)">
       <defs>
        <path id="DejaVuSans-32" d="M 1228 531 
L 3431 531 
L 3431 0 
L 469 0 
L 469 531 
Q 828 903 1448 1529 
Q 2069 2156 2228 2338 
Q 2531 2678 2651 2914 
Q 2772 3150 2772 3378 
Q 2772 3750 2511 3984 
Q 2250 4219 1831 4219 
Q 1534 4219 1204 4116 
Q 875 4013 500 3803 
L 500 4441 
Q 881 4594 1212 4672 
Q 1544 4750 1819 4750 
Q 2544 4750 2975 4387 
Q 3406 4025 3406 3419 
Q 3406 3131 3298 2873 
Q 3191 2616 2906 2266 
Q 2828 2175 2409 1742 
Q 1991 1309 1228 531 
z
" transform="scale(0.015625)"/>
       </defs>
       <use xlink:href="#DejaVuSans-32"/>
      </g>
     </g>
    </g>
    <g id="xtick_3">
     <g id="line2d_3">
      <g>
       <use xlink:href="#m2694d11547" x="154.996364" y="307.584" style="stroke: #000000; stroke-width: 0.8"/>
      </g>
     </g>
     <g id="text_3">
      <!-- 4 -->
      <g transform="translate(151.815114 322.182437)scale(0.1 -0.1)">
       <defs>
        <path id="DejaVuSans-34" d="M 2419 4116 
L 825 1625 
L 2419 1625 
L 2419 4116 
z
M 2253 4666 
L 3047 4666 
L 3047 1625 
L 3713 1625 
L 3713 1100 
L 3047 1100 
L 3047 0 
L 2419 0 
L 2419 1100 
L 313 1100 
L 313 1709 
L 2253 4666 
z
" transform="scale(0.015625)"/>
       </defs>
       <use xlink:href="#DejaVuSans-34"/>
      </g>
     </g>
    </g>
    <g id="xtick_4">
     <g id="line2d_4">
      <g>
       <use xlink:href="#m2694d11547" x="195.578182" y="307.584" style="stroke: #000000; stroke-width: 0.8"/>
      </g>
     </g>
     <g id="text_4">
      <!-- 6 -->
      <g transform="translate(192.396932 322.182437)scale(0.1 -0.1)">
       <defs>
        <path id="DejaVuSans-36" d="M 2113 2584 
Q 1688 2584 1439 2293 
Q 1191 2003 1191 1497 
Q 1191 994 1439 701 
Q 1688 409 2113 409 
Q 2538 409 2786 701 
Q 3034 994 3034 1497 
Q 3034 2003 2786 2293 
Q 2538 2584 2113 2584 
z
M 3366 4563 
L 3366 3988 
Q 3128 4100 2886 4159 
Q 2644 4219 2406 4219 
Q 1781 4219 1451 3797 
Q 1122 3375 1075 2522 
Q 1259 2794 1537 2939 
Q 1816 3084 2150 3084 
Q 2853 3084 3261 2657 
Q 3669 2231 3669 1497 
Q 3669 778 3244 343 
Q 2819 -91 2113 -91 
Q 1303 -91 875 529 
Q 447 1150 447 2328 
Q 447 3434 972 4092 
Q 1497 4750 2381 4750 
Q 2619 4750 2861 4703 
Q 3103 4656 3366 4563 
z
" transform="scale(0.015625)"/>
       </defs>
       <use xlink:href="#DejaVuSans-36"/>
      </g>
     </g>
    </g>
    <g id="xtick_5">
     <g id="line2d_5">
      <g>
       <use xlink:href="#m2694d11547" x="236.16" y="307.584" style="stroke: #000000; stroke-width: 0.8"/>
      </g>
     </g>
     <g id="text_5">
      <!-- 8 -->
      <g transform="translate(232.97875 322.182437)scale(0.1 -0.1)">
       <defs>
        <path id="DejaVuSans-38" d="M 2034 2216 
Q 1584 2216 1326 1975 
Q 1069 1734 1069 1313 
Q 1069 891 1326 650 
Q 1584 409 2034 409 
Q 2484 409 2743 651 
Q 3003 894 3003 1313 
Q 3003 1734 2745 1975 
Q 2488 2216 2034 2216 
z
M 1403 2484 
Q 997 2584 770 2862 
Q 544 3141 544 3541 
Q 544 4100 942 4425 
Q 1341 4750 2034 4750 
Q 2731 4750 3128 4425 
Q 3525 4100 3525 3541 
Q 3525 3141 3298 2862 
Q 3072 2584 2669 2484 
Q 3125 2378 3379 2068 
Q 3634 1759 3634 1313 
Q 3634 634 3220 271 
Q 2806 -91 2034 -91 
Q 1263 -91 848 271 
Q 434 634 434 1313 
Q 434 1759 690 2068 
Q 947 2378 1403 2484 
z
M 1172 3481 
Q 1172 3119 1398 2916 
Q 1625 2713 2034 2713 
Q 2441 2713 2670 2916 
Q 2900 3119 2900 3481 
Q 2900 3844 2670 4047 
Q 2441 4250 2034 4250 
Q 1625 4250 1398 4047 
Q 1172 3844 1172 3481 
z
" transform="scale(0.015625)"/>
       </defs>
       <use xlink:href="#DejaVuSans-38"/>
      </g>
     </g>
    </g>
    <g id="xtick_6">
     <g id="line2d_6">
      <g>
       <use xlink:href="#m2694d11547" x="276.741818" y="307.584" style="stroke: #000000; stroke-width: 0.8"/>
      </g>
     </g>
     <g id="text_6">
      <!-- 10 -->
      <g transform="translate(270.379318 322.182437)scale(0.1 -0.1)">
       <defs>
        <path id="DejaVuSans-31" d="M 794 531 
L 1825 531 
L 1825 4091 
L 703 3866 
L 703 4441 
L 1819 4666 
L 2450 4666 
L 2450 531 
L 3481 531 
L 3481 0 
L 794 0 
L 794 531 
z
" transform="scale(0.015625)"/>
       </defs>
       <use xlink:href="#DejaVuSans-31"/>
       <use xlink:href="#DejaVuSans-30" x="63.623047"/>
      </g>
     </g>
    </g>
    <g id="xtick_7">
     <g id="line2d_7">
      <g>
       <use xlink:href="#m2694d11547" x="317.323636" y="307.584" style="stroke: #000000; stroke-width: 0.8"/>
      </g>
     </g>
     <g id="text_7">
      <!-- 12 -->
      <g transform="translate(310.961136 322.182437)scale(0.1 -0.1)">
       <use xlink:href="#DejaVuSans-31"/>
       <use xlink:href="#DejaVuSans-32" x="63.623047"/>
      </g>
     </g>
    </g>
    <g id="xtick_8">
     <g id="line2d_8">
      <g>
       <use xlink:href="#m2694d11547" x="357.905455" y="307.584" style="stroke: #000000; stroke-width: 0.8"/>
      </g>
     </g>
     <g id="text_8">
      <!-- 14 -->
      <g transform="translate(351.542955 322.182437)scale(0.1 -0.1)">
       <use xlink:href="#DejaVuSans-31"/>
       <use xlink:href="#DejaVuSans-34" x="63.623047"/>
      </g>
     </g>
    </g>
    <g id="xtick_9">
     <g id="line2d_9">
      <g>
       <use xlink:href="#m2694d11547" x="398.487273" y="307.584" style="stroke: #000000; stroke-width: 0.8"/>
      </g>
     </g>
     <g id="text_9">
      <!-- 16 -->
      <g transform="translate(392.124773 322.182437)scale(0.1 -0.1)">
       <use xlink:href="#DejaVuSans-31"/>
       <use xlink:href="#DejaVuSans-36" x="63.623047"/>
      </g>
     </g>
    </g>
    <g id="text_10">
     <!-- Generations -->
     <g transform="translate(205.662344 335.860562)scale(0.1 -0.1)">
      <defs>
       <path id="DejaVuSans-47" d="M 3809 666 
L 3809 1919 
L 2778 1919 
L 2778 2438 
L 4434 2438 
L 4434 434 
Q 4069 175 3628 42 
Q 3188 -91 2688 -91 
Q 1594 -91 976 548 
Q 359 1188 359 2328 
Q 359 3472 976 4111 
Q 1594 4750 2688 4750 
Q 3144 4750 3555 4637 
Q 3966 4525 4313 4306 
L 4313 3634 
Q 3963 3931 3569 4081 
Q 3175 4231 2741 4231 
Q 1884 4231 1454 3753 
Q 1025 3275 1025 2328 
Q 1025 1384 1454 906 
Q 1884 428 2741 428 
Q 3075 428 3337 486 
Q 3600 544 3809 666 
z
" transform="scale(0.015625)"/>
       <path id="DejaVuSans-65" d="M 3597 1894 
L 3597 1613 
L 953 1613 
Q 991 1019 1311 708 
Q 1631 397 2203 397 
Q 2534 397 2845 478 
Q 3156 559 3463 722 
L 3463 178 
Q 3153 47 2828 -22 
Q 2503 -91 2169 -91 
Q 1331 -91 842 396 
Q 353 884 353 1716 
Q 353 2575 817 3079 
Q 1281 3584 2069 3584 
Q 2775 3584 3186 3129 
Q 3597 2675 3597 1894 
z
M 3022 2063 
Q 3016 2534 2758 2815 
Q 2500 3097 2075 3097 
Q 1594 3097 1305 2825 
Q 1016 2553 972 2059 
L 3022 2063 
z
" transform="scale(0.015625)"/>
       <path id="DejaVuSans-6e" d="M 3513 2113 
L 3513 0 
L 2938 0 
L 2938 2094 
Q 2938 2591 2744 2837 
Q 2550 3084 2163 3084 
Q 1697 3084 1428 2787 
Q 1159 2491 1159 1978 
L 1159 0 
L 581 0 
L 581 3500 
L 1159 3500 
L 1159 2956 
Q 1366 3272 1645 3428 
Q 1925 3584 2291 3584 
Q 2894 3584 3203 3211 
Q 3513 2838 3513 2113 
z
" transform="scale(0.015625)"/>
       <path id="DejaVuSans-72" d="M 2631 2963 
Q 2534 3019 2420 3045 
Q 2306 3072 2169 3072 
Q 1681 3072 1420 2755 
Q 1159 2438 1159 1844 
L 1159 0 
L 581 0 
L 581 3500 
L 1159 3500 
L 1159 2956 
Q 1341 3275 1631 3429 
Q 1922 3584 2338 3584 
Q 2397 3584 2469 3576 
Q 2541 3569 2628 3553 
L 2631 2963 
z
" transform="scale(0.015625)"/>
       <path id="DejaVuSans-61" d="M 2194 1759 
Q 1497 1759 1228 1600 
Q 959 1441 959 1056 
Q 959 750 1161 570 
Q 1363 391 1709 391 
Q 2188 391 2477 730 
Q 2766 1069 2766 1631 
L 2766 1759 
L 2194 1759 
z
M 3341 1997 
L 3341 0 
L 2766 0 
L 2766 531 
Q 2569 213 2275 61 
Q 1981 -91 1556 -91 
Q 1019 -91 701 211 
Q 384 513 384 1019 
Q 384 1609 779 1909 
Q 1175 2209 1959 2209 
L 2766 2209 
L 2766 2266 
Q 2766 2663 2505 2880 
Q 2244 3097 1772 3097 
Q 1472 3097 1187 3025 
Q 903 2953 641 2809 
L 641 3341 
Q 956 3463 1253 3523 
Q 1550 3584 1831 3584 
Q 2591 3584 2966 3190 
Q 3341 2797 3341 1997 
z
" transform="scale(0.015625)"/>
       <path id="DejaVuSans-74" d="M 1172 4494 
L 1172 3500 
L 2356 3500 
L 2356 3053 
L 1172 3053 
L 1172 1153 
Q 1172 725 1289 603 
Q 1406 481 1766 481 
L 2356 481 
L 2356 0 
L 1766 0 
Q 1100 0 847 248 
Q 594 497 594 1153 
L 594 3053 
L 172 3053 
L 172 3500 
L 594 3500 
L 594 4494 
L 1172 4494 
z
" transform="scale(0.015625)"/>
       <path id="DejaVuSans-69" d="M 603 3500 
L 1178 3500 
L 1178 0 
L 603 0 
L 603 3500 
z
M 603 4863 
L 1178 4863 
L 1178 4134 
L 603 4134 
L 603 4863 
z
" transform="scale(0.015625)"/>
       <path id="DejaVuSans-6f" d="M 1959 3097 
Q 1497 3097 1228 2736 
Q 959 2375 959 1747 
Q 959 1119 1226 758 
Q 1494 397 1959 397 
Q 2419 397 2687 759 
Q 2956 1122 2956 1747 
Q 2956 2369 2687 2733 
Q 2419 3097 1959 3097 
z
M 1959 3584 
Q 2709 3584 3137 3096 
Q 3566 2609 3566 1747 
Q 3566 888 3137 398 
Q 2709 -91 1959 -91 
Q 1206 -91 779 398 
Q 353 888 353 1747 
Q 353 2609 779 3096 
Q 1206 3584 1959 3584 
z
" transform="scale(0.015625)"/>
       <path id="DejaVuSans-73" d="M 2834 3397 
L 2834 2853 
Q 2591 2978 2328 3040 
Q 2066 3103 1784 3103 
Q 1356 3103 1142 2972 
Q 928 2841 928 2578 
Q 928 2378 1081 2264 
Q 1234 2150 1697 2047 
L 1894 2003 
Q 2506 1872 2764 1633 
Q 3022 1394 3022 966 
Q 3022 478 2636 193 
Q 2250 -91 1575 -91 
Q 1294 -91 989 -36 
Q 684 19 347 128 
L 347 722 
Q 666 556 975 473 
Q 1284 391 1588 391 
Q 1994 391 2212 530 
Q 2431 669 2431 922 
Q 2431 1156 2273 1281 
Q 2116 1406 1581 1522 
L 1381 1569 
Q 847 1681 609 1914 
Q 372 2147 372 2553 
Q 372 3047 722 3315 
Q 1072 3584 1716 3584 
Q 2034 3584 2315 3537 
Q 2597 3491 2834 3397 
z
" transform="scale(0.015625)"/>
      </defs>
      <use xlink:href="#DejaVuSans-47"/>
      <use xlink:href="#DejaVuSans-65" x="77.490234"/>
      <use xlink:href="#DejaVuSans-6e" x="139.013672"/>
      <use xlink:href="#DejaVuSans-65" x="202.392578"/>
      <use xlink:href="#DejaVuSans-72" x="263.916016"/>
      <use xlink:href="#DejaVuSans-61" x="305.029297"/>
      <use xlink:href="#DejaVuSans-74" x="366.308594"/>
      <use xlink:href="#DejaVuSans-69" x="405.517578"/>
      <use xlink:href="#DejaVuSans-6f" x="433.300781"/>
      <use xlink:href="#DejaVuSans-6e" x="494.482422"/>
      <use xlink:href="#DejaVuSans-73" x="557.861328"/>
     </g>
    </g>
   </g>
   <g id="matplotlib.axis_2">
    <g id="ytick_1">
     <g id="line2d_10">
      <defs>
       <path id="m5eda555433" d="M 0 0 
L -3.5 0 
" style="stroke: #000000; stroke-width: 0.8"/>
      </defs>
      <g>
       <use xlink:href="#m5eda555433" x="57.6" y="307.584" style="stroke: #000000; stroke-width: 0.8"/>
      </g>
     </g>
     <g id="text_11">
      <!-- 0 -->
      <g transform="translate(44.2375 311.383219)scale(0.1 -0.1)">
       <use xlink:href="#DejaVuSans-30"/>
      </g>
     </g>
    </g>
    <g id="ytick_2">
     <g id="line2d_11">
      <g>
       <use xlink:href="#m5eda555433" x="57.6" y="256.946637" style="stroke: #000000; stroke-width: 0.8"/>
      </g>
     </g>
     <g id="text_12">
      <!-- 200 -->
      <g transform="translate(31.5125 260.745856)scale(0.1 -0.1)">
       <use xlink:href="#DejaVuSans-32"/>
       <use xlink:href="#DejaVuSans-30" x="63.623047"/>
       <use xlink:href="#DejaVuSans-30" x="127.246094"/>
      </g>
     </g>
    </g>
    <g id="ytick_3">
     <g id="line2d_12">
      <g>
       <use xlink:href="#m5eda555433" x="57.6" y="206.309275" style="stroke: #000000; stroke-width: 0.8"/>
      </g>
     </g>
     <g id="text_13">
      <!-- 400 -->
      <g transform="translate(31.5125 210.108493)scale(0.1 -0.1)">
       <use xlink:href="#DejaVuSans-34"/>
       <use xlink:href="#DejaVuSans-30" x="63.623047"/>
       <use xlink:href="#DejaVuSans-30" x="127.246094"/>
      </g>
     </g>
    </g>
    <g id="ytick_4">
     <g id="line2d_13">
      <g>
       <use xlink:href="#m5eda555433" x="57.6" y="155.671912" style="stroke: #000000; stroke-width: 0.8"/>
      </g>
     </g>
     <g id="text_14">
      <!-- 600 -->
      <g transform="translate(31.5125 159.471131)scale(0.1 -0.1)">
       <use xlink:href="#DejaVuSans-36"/>
       <use xlink:href="#DejaVuSans-30" x="63.623047"/>
       <use xlink:href="#DejaVuSans-30" x="127.246094"/>
      </g>
     </g>
    </g>
    <g id="ytick_5">
     <g id="line2d_14">
      <g>
       <use xlink:href="#m5eda555433" x="57.6" y="105.034549" style="stroke: #000000; stroke-width: 0.8"/>
      </g>
     </g>
     <g id="text_15">
      <!-- 800 -->
      <g transform="translate(31.5125 108.833768)scale(0.1 -0.1)">
       <use xlink:href="#DejaVuSans-38"/>
       <use xlink:href="#DejaVuSans-30" x="63.623047"/>
       <use xlink:href="#DejaVuSans-30" x="127.246094"/>
      </g>
     </g>
    </g>
    <g id="ytick_6">
     <g id="line2d_15">
      <g>
       <use xlink:href="#m5eda555433" x="57.6" y="54.397187" style="stroke: #000000; stroke-width: 0.8"/>
      </g>
     </g>
     <g id="text_16">
      <!-- 1000 -->
      <g transform="translate(25.15 58.196406)scale(0.1 -0.1)">
       <use xlink:href="#DejaVuSans-31"/>
       <use xlink:href="#DejaVuSans-30" x="63.623047"/>
       <use xlink:href="#DejaVuSans-30" x="127.246094"/>
       <use xlink:href="#DejaVuSans-30" x="190.869141"/>
      </g>
     </g>
    </g>
    <g id="text_17">
     <!-- Size per Species -->
     <g transform="translate(19.070312 215.520969)rotate(-90)scale(0.1 -0.1)">
      <defs>
       <path id="DejaVuSans-53" d="M 3425 4513 
L 3425 3897 
Q 3066 4069 2747 4153 
Q 2428 4238 2131 4238 
Q 1616 4238 1336 4038 
Q 1056 3838 1056 3469 
Q 1056 3159 1242 3001 
Q 1428 2844 1947 2747 
L 2328 2669 
Q 3034 2534 3370 2195 
Q 3706 1856 3706 1288 
Q 3706 609 3251 259 
Q 2797 -91 1919 -91 
Q 1588 -91 1214 -16 
Q 841 59 441 206 
L 441 856 
Q 825 641 1194 531 
Q 1563 422 1919 422 
Q 2459 422 2753 634 
Q 3047 847 3047 1241 
Q 3047 1584 2836 1778 
Q 2625 1972 2144 2069 
L 1759 2144 
Q 1053 2284 737 2584 
Q 422 2884 422 3419 
Q 422 4038 858 4394 
Q 1294 4750 2059 4750 
Q 2388 4750 2728 4690 
Q 3069 4631 3425 4513 
z
" transform="scale(0.015625)"/>
       <path id="DejaVuSans-7a" d="M 353 3500 
L 3084 3500 
L 3084 2975 
L 922 459 
L 3084 459 
L 3084 0 
L 275 0 
L 275 525 
L 2438 3041 
L 353 3041 
L 353 3500 
z
" transform="scale(0.015625)"/>
       <path id="DejaVuSans-20" transform="scale(0.015625)"/>
       <path id="DejaVuSans-70" d="M 1159 525 
L 1159 -1331 
L 581 -1331 
L 581 3500 
L 1159 3500 
L 1159 2969 
Q 1341 3281 1617 3432 
Q 1894 3584 2278 3584 
Q 2916 3584 3314 3078 
Q 3713 2572 3713 1747 
Q 3713 922 3314 415 
Q 2916 -91 2278 -91 
Q 1894 -91 1617 61 
Q 1341 213 1159 525 
z
M 3116 1747 
Q 3116 2381 2855 2742 
Q 2594 3103 2138 3103 
Q 1681 3103 1420 2742 
Q 1159 2381 1159 1747 
Q 1159 1113 1420 752 
Q 1681 391 2138 391 
Q 2594 391 2855 752 
Q 3116 1113 3116 1747 
z
" transform="scale(0.015625)"/>
       <path id="DejaVuSans-63" d="M 3122 3366 
L 3122 2828 
Q 2878 2963 2633 3030 
Q 2388 3097 2138 3097 
Q 1578 3097 1268 2742 
Q 959 2388 959 1747 
Q 959 1106 1268 751 
Q 1578 397 2138 397 
Q 2388 397 2633 464 
Q 2878 531 3122 666 
L 3122 134 
Q 2881 22 2623 -34 
Q 2366 -91 2075 -91 
Q 1284 -91 818 406 
Q 353 903 353 1747 
Q 353 2603 823 3093 
Q 1294 3584 2113 3584 
Q 2378 3584 2631 3529 
Q 2884 3475 3122 3366 
z
" transform="scale(0.015625)"/>
      </defs>
      <use xlink:href="#DejaVuSans-53"/>
      <use xlink:href="#DejaVuSans-69" x="63.476562"/>
      <use xlink:href="#DejaVuSans-7a" x="91.259766"/>
      <use xlink:href="#DejaVuSans-65" x="143.75"/>
      <use xlink:href="#DejaVuSans-20" x="205.273438"/>
      <use xlink:href="#DejaVuSans-70" x="237.060547"/>
      <use xlink:href="#DejaVuSans-65" x="300.537109"/>
      <use xlink:href="#DejaVuSans-72" x="362.060547"/>
      <use xlink:href="#DejaVuSans-20" x="403.173828"/>
      <use xlink:href="#DejaVuSans-53" x="434.960938"/>
      <use xlink:href="#DejaVuSans-70" x="498.4375"/>
      <use xlink:href="#DejaVuSans-65" x="561.914062"/>
      <use xlink:href="#DejaVuSans-63" x="623.4375"/>
      <use xlink:href="#DejaVuSans-69" x="678.417969"/>
      <use xlink:href="#DejaVuSans-65" x="706.201172"/>
      <use xlink:href="#DejaVuSans-73" x="767.724609"/>
     </g>
    </g>
   </g>
   <g id="patch_3">
    <path d="M 57.6 307.584 
L 57.6 41.472 
" style="fill: none; stroke: #000000; stroke-width: 0.8; stroke-linejoin: miter; stroke-linecap: square"/>
   </g>
   <g id="patch_4">
    <path d="M 414.72 307.584 
L 414.72 41.472 
" style="fill: none; stroke: #000000; stroke-width: 0.8; stroke-linejoin: miter; stroke-linecap: square"/>
   </g>
   <g id="patch_5">
    <path d="M 57.6 307.584 
L 414.72 307.584 
" style="fill: none; stroke: #000000; stroke-width: 0.8; stroke-linejoin: miter; stroke-linecap: square"/>
   </g>
   <g id="patch_6">
    <path d="M 57.6 41.472 
L 414.72 41.472 
" style="fill: none; stroke: #000000; stroke-width: 0.8; stroke-linejoin: miter; stroke-linecap: square"/>
   </g>
   <g id="text_18">
    <!-- Speciation -->
    <g transform="translate(204.714375 35.472)scale(0.12 -0.12)">
     <use xlink:href="#DejaVuSans-53"/>
     <use xlink:href="#DejaVuSans-70" x="63.476562"/>
     <use xlink:href="#DejaVuSans-65" x="126.953125"/>
     <use xlink:href="#DejaVuSans-63" x="188.476562"/>
     <use xlink:href="#DejaVuSans-69" x="243.457031"/>
     <use xlink:href="#DejaVuSans-61" x="271.240234"/>
     <use xlink:href="#DejaVuSans-74" x="332.519531"/>
     <use xlink:href="#DejaVuSans-69" x="371.728516"/>
     <use xlink:href="#DejaVuSans-6f" x="399.511719"/>
     <use xlink:href="#DejaVuSans-6e" x="460.693359"/>
    </g>
   </g>
  </g>
 </g>
 <defs>
  <clipPath id="p5a953c648c">
   <rect x="57.6" y="41.472" width="357.12" height="266.112"/>
  </clipPath>
 </defs>
</svg>
