<?xml version="1.0" encoding="UTF-8" standalone="no"?>
<!DOCTYPE svg PUBLIC "-//W3C//DTD SVG 1.1//EN"
 "http://www.w3.org/Graphics/SVG/1.1/DTD/svg11.dtd">
<!-- Generated by graphviz version 2.38.0 (20140413.2041)
 -->
<!-- Title: %3 Pages: 1 -->
<svg width="442pt" height="378pt"
 viewBox="0.00 0.00 441.79 377.89" xmlns="http://www.w3.org/2000/svg" xmlns:xlink="http://www.w3.org/1999/xlink">
<g id="graph0" class="graph" transform="scale(1 1) rotate(0) translate(4 373.889)">
<title>%3</title>
<polygon fill="white" stroke="none" points="-4,4 -4,-373.889 437.789,-373.889 437.789,4 -4,4"/>
<!-- x -->
<g id="node1" class="node"><title>x</title>
<polygon fill="lightgray" stroke="black" points="95.9212,-369.889 75.9212,-369.889 75.9212,-351.889 95.9212,-351.889 95.9212,-369.889"/>
<text text-anchor="middle" x="85.9212" y="-358.689" font-family="Times New Roman,serif" font-size="9.00">x</text>
</g>
<!-- control -->
<g id="node3" class="node"><title>control</title>
<ellipse fill="lightblue" stroke="black" cx="249.921" cy="-29.6985" rx="29.8983" ry="29.8983"/>
<text text-anchor="middle" x="249.921" y="-27.4985" font-family="Times New Roman,serif" font-size="9.00">control</text>
</g>
<!-- x&#45;&gt;control -->
<g id="edge17" class="edge"><title>x&#45;&gt;control</title>
<path fill="none" stroke="red" stroke-width="0.378993" d="M75.8896,-357.752C58.2304,-353.386 22.0342,-341.606 6.92125,-315.889 -4.22481,-296.923 0.377733,-287.395 6.92125,-266.392 34.3866,-178.234 55.6354,-156.434 124.921,-95.397 150.886,-72.523 186.374,-55.1581 212.904,-44.2066"/>
<polygon fill="red" stroke="red" stroke-width="0.378993" points="214.26,-47.4339 222.239,-40.4637 211.655,-40.9367 214.26,-47.4339"/>
</g>
<!-- 2245 -->
<g id="node4" class="node"><title>2245</title>
<ellipse fill="white" stroke="black" cx="85.9212" cy="-291.141" rx="25" ry="25"/>
<text text-anchor="middle" x="85.9212" y="-288.941" font-family="Times New Roman,serif" font-size="9.00">2245</text>
</g>
<!-- x&#45;&gt;2245 -->
<g id="edge4" class="edge"><title>x&#45;&gt;2245</title>
<path fill="none" stroke="green" stroke-width="0.603876" d="M85.9212,-351.852C85.9212,-345.417 85.9212,-335.919 85.9212,-326.382"/>
<polygon fill="green" stroke="green" stroke-width="0.603876" points="89.4213,-326.162 85.9212,-316.162 82.4213,-326.162 89.4213,-326.162"/>
</g>
<!-- 2246 -->
<g id="node5" class="node"><title>2246</title>
<ellipse fill="white" stroke="black" cx="258.921" cy="-291.141" rx="25" ry="25"/>
<text text-anchor="middle" x="258.921" y="-288.941" font-family="Times New Roman,serif" font-size="9.00">2246</text>
</g>
<!-- x&#45;&gt;2246 -->
<g id="edge6" class="edge"><title>x&#45;&gt;2246</title>
<path fill="none" stroke="red" stroke-width="0.132007" d="M95.9702,-355.954C120.953,-346.171 186.732,-320.411 226.66,-304.774"/>
<polygon fill="red" stroke="red" stroke-width="0.132007" points="227.937,-308.033 235.973,-301.128 225.385,-301.515 227.937,-308.033"/>
</g>
<!-- 2247 -->
<g id="node6" class="node"><title>2247</title>
<ellipse fill="white" stroke="black" cx="325.921" cy="-291.141" rx="25" ry="25"/>
<text text-anchor="middle" x="325.921" y="-288.941" font-family="Times New Roman,serif" font-size="9.00">2247</text>
</g>
<!-- x&#45;&gt;2247 -->
<g id="edge14" class="edge"><title>x&#45;&gt;2247</title>
<path fill="none" stroke="red" stroke-width="0.698728" d="M96.2895,-359.197C127.376,-356.809 222.03,-347.261 292.921,-315.889 294.761,-315.075 296.6,-314.148 298.416,-313.143"/>
<polygon fill="red" stroke="red" stroke-width="0.698728" points="300.586,-315.913 307.195,-307.633 296.865,-309.984 300.586,-315.913"/>
</g>
<!-- 2248 -->
<g id="node7" class="node"><title>2248</title>
<ellipse fill="white" stroke="black" cx="209.921" cy="-205.643" rx="25" ry="25"/>
<text text-anchor="middle" x="209.921" y="-203.443" font-family="Times New Roman,serif" font-size="9.00">2248</text>
</g>
<!-- x&#45;&gt;2248 -->
<g id="edge8" class="edge"><title>x&#45;&gt;2248</title>
<path fill="none" stroke="green" stroke-width="0.342014" d="M76.9546,-351.828C68.6451,-343.702 56.8486,-330.325 51.9212,-315.889 44.8146,-295.07 38.9396,-284.152 51.9212,-266.392 83.0253,-223.838 116.312,-250.773 164.921,-230.392 169.786,-228.352 174.83,-225.972 179.705,-223.52"/>
<polygon fill="green" stroke="green" stroke-width="0.342014" points="181.53,-226.516 188.779,-218.79 178.294,-220.309 181.53,-226.516"/>
</g>
<!-- 2250 -->
<g id="node9" class="node"><title>2250</title>
<ellipse fill="white" stroke="black" cx="130.921" cy="-205.643" rx="25" ry="25"/>
<text text-anchor="middle" x="130.921" y="-203.443" font-family="Times New Roman,serif" font-size="9.00">2250</text>
</g>
<!-- x&#45;&gt;2250 -->
<g id="edge2" class="edge"><title>x&#45;&gt;2250</title>
<path fill="none" stroke="green" stroke-width="0.550289" d="M75.8886,-356.753C60.3736,-351.295 31.0814,-338.423 18.9212,-315.889 8.47385,-296.53 7.60393,-285.256 18.9212,-266.392 35.7102,-238.407 70.5513,-222.806 96.9426,-214.625"/>
<polygon fill="green" stroke="green" stroke-width="0.550289" points="97.95,-217.977 106.588,-211.843 96.01,-211.252 97.95,-217.977"/>
</g>
<!-- 6093 -->
<g id="node10" class="node"><title>6093</title>
<ellipse fill="white" stroke="black" cx="152.921" cy="-291.141" rx="25" ry="25"/>
<text text-anchor="middle" x="152.921" y="-288.941" font-family="Times New Roman,serif" font-size="9.00">6093</text>
</g>
<!-- x&#45;&gt;6093 -->
<g id="edge20" class="edge"><title>x&#45;&gt;6093</title>
<path fill="none" stroke="red" stroke-width="0.997038" d="M93.8701,-351.852C102.424,-343.202 116.451,-329.018 128.688,-316.645"/>
<polygon fill="red" stroke="red" stroke-width="0.997038" points="131.467,-318.812 136.01,-309.241 126.49,-313.89 131.467,-318.812"/>
</g>
<!-- dx -->
<g id="node2" class="node"><title>dx</title>
<polygon fill="lightgray" stroke="black" points="271.421,-369.889 246.421,-369.889 246.421,-351.889 271.421,-351.889 271.421,-369.889"/>
<text text-anchor="middle" x="258.921" y="-358.689" font-family="Times New Roman,serif" font-size="9.00">dx</text>
</g>
<!-- dx&#45;&gt;control -->
<g id="edge13" class="edge"><title>dx&#45;&gt;control</title>
<path fill="none" stroke="green" stroke-width="1.71309" d="M271.53,-359.514C297.056,-358.015 354.808,-350.734 382.921,-315.889 444.58,-239.468 450.577,-177.635 396.921,-95.397 373.277,-59.1582 324.283,-43.0802 289.36,-36.0369"/>
<polygon fill="green" stroke="green" stroke-width="1.71309" points="289.937,-32.5844 279.467,-34.2045 288.662,-39.4673 289.937,-32.5844"/>
</g>
<!-- dx&#45;&gt;2245 -->
<g id="edge11" class="edge"><title>dx&#45;&gt;2245</title>
<path fill="none" stroke="green" stroke-width="0.3789" d="M246.041,-357.291C220.729,-351.875 163.119,-338.016 118.921,-315.889 117.122,-314.989 115.315,-313.994 113.523,-312.938"/>
<polygon fill="green" stroke="green" stroke-width="0.3789" points="115.104,-309.792 104.808,-307.291 111.297,-315.666 115.104,-309.792"/>
</g>
<!-- dx&#45;&gt;2246 -->
<g id="edge12" class="edge"><title>dx&#45;&gt;2246</title>
<path fill="none" stroke="red" stroke-width="0.692822" d="M258.921,-351.852C258.921,-345.417 258.921,-335.919 258.921,-326.382"/>
<polygon fill="red" stroke="red" stroke-width="0.692822" points="262.421,-326.162 258.921,-316.162 255.421,-326.162 262.421,-326.162"/>
</g>
<!-- dx&#45;&gt;2247 -->
<g id="edge16" class="edge"><title>dx&#45;&gt;2247</title>
<path fill="none" stroke="green" stroke-width="0.244853" d="M266.87,-351.852C275.424,-343.202 289.451,-329.018 301.688,-316.645"/>
<polygon fill="green" stroke="green" stroke-width="0.244853" points="304.467,-318.812 309.01,-309.241 299.49,-313.89 304.467,-318.812"/>
</g>
<!-- dx&#45;&gt;2248 -->
<g id="edge7" class="edge"><title>dx&#45;&gt;2248</title>
<path fill="none" stroke="red" stroke-width="0.260206" d="M250.382,-351.666C242.39,-343.419 230.821,-329.955 224.921,-315.889 214.93,-292.07 211.304,-263.013 210.109,-240.855"/>
<polygon fill="red" stroke="red" stroke-width="0.260206" points="213.595,-240.438 209.7,-230.585 206.6,-240.717 213.595,-240.438"/>
</g>
<!-- 2249 -->
<g id="node8" class="node"><title>2249</title>
<ellipse fill="white" stroke="black" cx="362.921" cy="-120.146" rx="25" ry="25"/>
<text text-anchor="middle" x="362.921" y="-117.946" font-family="Times New Roman,serif" font-size="9.00">2249</text>
</g>
<!-- dx&#45;&gt;2249 -->
<g id="edge9" class="edge"><title>dx&#45;&gt;2249</title>
<path fill="none" stroke="green" stroke-width="0.68821" d="M271.582,-358.654C293.897,-355.721 339.773,-346.133 359.921,-315.889 392.326,-267.248 382.339,-195.509 372.433,-154.039"/>
<polygon fill="green" stroke="green" stroke-width="0.68821" points="375.785,-153.018 369.942,-144.18 368.998,-154.733 375.785,-153.018"/>
</g>
<!-- dx&#45;&gt;6093 -->
<g id="edge18" class="edge"><title>dx&#45;&gt;6093</title>
<path fill="none" stroke="green" stroke-width="0.366549" d="M246.345,-351.852C230.606,-341.792 203.157,-324.248 182.071,-310.772"/>
<polygon fill="green" stroke="green" stroke-width="0.366549" points="183.788,-307.715 173.477,-305.279 180.018,-313.613 183.788,-307.715"/>
</g>
<!-- 2246&#45;&gt;control -->
<g id="edge3" class="edge"><title>2246&#45;&gt;control</title>
<path fill="none" stroke="red" stroke-width="1.05165" d="M258.091,-266.198C256.536,-221.391 253.175,-124.486 251.284,-69.981"/>
<polygon fill="red" stroke="red" stroke-width="1.05165" points="254.771,-69.5459 250.926,-59.6733 247.775,-69.7887 254.771,-69.5459"/>
</g>
<!-- 2246&#45;&gt;2248 -->
<g id="edge21" class="edge"><title>2246&#45;&gt;2248</title>
<path fill="none" stroke="green" stroke-width="0.303226" d="M246.809,-269.501C240.919,-259.465 233.734,-247.221 227.275,-236.214"/>
<polygon fill="green" stroke="green" stroke-width="0.303226" points="230.144,-234.188 222.064,-227.335 224.107,-237.731 230.144,-234.188"/>
</g>
<!-- 2247&#45;&gt;control -->
<g id="edge5" class="edge"><title>2247&#45;&gt;control</title>
<path fill="none" stroke="red" stroke-width="0.453042" d="M319.177,-267.117C306.01,-222.169 276.78,-122.385 260.826,-67.9257"/>
<polygon fill="red" stroke="red" stroke-width="0.453042" points="264.179,-66.9206 258.009,-58.3078 257.461,-68.8885 264.179,-66.9206"/>
</g>
<!-- 2248&#45;&gt;control -->
<g id="edge15" class="edge"><title>2248&#45;&gt;control</title>
<path fill="none" stroke="red" stroke-width="0.479425" d="M215.316,-181.184C221.925,-152.443 233.214,-103.354 241.094,-69.0839"/>
<polygon fill="red" stroke="red" stroke-width="0.479425" points="244.591,-69.4932 243.422,-58.9631 237.769,-67.9244 244.591,-69.4932"/>
</g>
<!-- 2249&#45;&gt;control -->
<g id="edge10" class="edge"><title>2249&#45;&gt;control</title>
<path fill="none" stroke="green" stroke-width="0.23593" d="M343.752,-104.142C326.596,-90.7134 301.128,-70.7788 281.052,-55.0654"/>
<polygon fill="green" stroke="green" stroke-width="0.23593" points="283.129,-52.2465 273.097,-48.8389 278.815,-57.7587 283.129,-52.2465"/>
</g>
<!-- 2250&#45;&gt;control -->
<g id="edge1" class="edge"><title>2250&#45;&gt;control</title>
<path fill="none" stroke="red" stroke-width="0.17147" d="M128.071,-180.927C126.463,-157.36 127.414,-121.116 143.921,-95.397 159.786,-70.6792 188.783,-53.947 212.444,-43.701"/>
<polygon fill="red" stroke="red" stroke-width="0.17147" points="213.949,-46.8665 221.871,-39.8314 211.291,-40.3908 213.949,-46.8665"/>
</g>
<!-- 8305 -->
<g id="node11" class="node"><title>8305</title>
<ellipse fill="white" stroke="black" cx="177.921" cy="-120.146" rx="25" ry="25"/>
<text text-anchor="middle" x="177.921" y="-117.946" font-family="Times New Roman,serif" font-size="9.00">8305</text>
</g>
<!-- 2250&#45;&gt;8305 -->
<g id="edge22" class="edge"><title>2250&#45;&gt;8305</title>
<path fill="none" stroke="red" stroke-width="0.374503" d="M142.781,-183.573C148.348,-173.685 155.08,-161.725 161.155,-150.931"/>
<polygon fill="red" stroke="red" stroke-width="0.374503" points="164.21,-152.64 166.065,-142.209 158.11,-149.206 164.21,-152.64"/>
</g>
<!-- 6093&#45;&gt;2250 -->
<g id="edge19" class="edge"><title>6093&#45;&gt;2250</title>
<path fill="none" stroke="red" stroke-width="0.214929" d="M146.793,-266.882C144.576,-258.468 142.028,-248.797 139.632,-239.703"/>
<polygon fill="red" stroke="red" stroke-width="0.214929" points="142.949,-238.555 137.017,-229.777 136.18,-240.339 142.949,-238.555"/>
</g>
<!-- 8305&#45;&gt;control -->
<g id="edge23" class="edge"><title>8305&#45;&gt;control</title>
<path fill="none" stroke="green" stroke-width="0.34289" d="M193.191,-100.388C202.489,-88.9662 214.586,-74.1058 225.219,-61.0432"/>
<polygon fill="green" stroke="green" stroke-width="0.34289" points="228.014,-63.1539 231.613,-53.189 222.585,-58.7347 228.014,-63.1539"/>
</g>
</g>
</svg>
