<?xml version="1.0" encoding="UTF-8" standalone="no"?>
<!DOCTYPE svg PUBLIC "-//W3C//DTD SVG 1.1//EN"
 "http://www.w3.org/Graphics/SVG/1.1/DTD/svg11.dtd">
<!-- Generated by graphviz version 2.38.0 (20140413.2041)
 -->
<!-- Title: %3 Pages: 1 -->
<svg width="451pt" height="292pt"
 viewBox="0.00 0.00 451.48 292.39" xmlns="http://www.w3.org/2000/svg" xmlns:xlink="http://www.w3.org/1999/xlink">
<g id="graph0" class="graph" transform="scale(1 1) rotate(0) translate(4 288.392)">
<title>%3</title>
<polygon fill="white" stroke="none" points="-4,4 -4,-288.392 447.481,-288.392 447.481,4 -4,4"/>
<!-- x -->
<g id="node1" class="node"><title>x</title>
<polygon fill="lightgray" stroke="black" points="221.749,-214.643 201.749,-214.643 201.749,-196.643 221.749,-196.643 221.749,-214.643"/>
<text text-anchor="middle" x="211.749" y="-203.443" font-family="Times New Roman,serif" font-size="9.00">x</text>
</g>
<!-- control -->
<g id="node3" class="node"><title>control</title>
<ellipse fill="lightblue" stroke="black" cx="264.749" cy="-29.6985" rx="29.8983" ry="29.8983"/>
<text text-anchor="middle" x="264.749" y="-27.4985" font-family="Times New Roman,serif" font-size="9.00">control</text>
</g>
<!-- x&#45;&gt;control -->
<g id="edge11" class="edge"><title>x&#45;&gt;control</title>
<path fill="none" stroke="green" stroke-width="0.144513" d="M212.298,-196.48C213.725,-178.022 218.344,-131.846 230.749,-95.397 234.311,-84.9284 239.389,-74.0895 244.536,-64.3456"/>
<polygon fill="green" stroke="green" stroke-width="0.144513" points="247.709,-65.8384 249.446,-55.3869 241.571,-62.4741 247.709,-65.8384"/>
</g>
<!-- 1945 -->
<g id="node5" class="node"><title>1945</title>
<ellipse fill="white" stroke="black" cx="24.7487" cy="-120.146" rx="25" ry="25"/>
<text text-anchor="middle" x="24.7487" y="-117.946" font-family="Times New Roman,serif" font-size="9.00">1945</text>
</g>
<!-- x&#45;&gt;1945 -->
<g id="edge17" class="edge"><title>x&#45;&gt;1945</title>
<path fill="none" stroke="red" stroke-width="0.64633" d="M201.634,-201.701C176.432,-194.166 109.175,-172.785 57.7487,-144.894 55.9804,-143.935 54.1968,-142.896 52.4232,-141.805"/>
<polygon fill="red" stroke="red" stroke-width="0.64633" points="54.0263,-138.668 43.7563,-136.065 50.1611,-144.505 54.0263,-138.668"/>
</g>
<!-- 1946 -->
<g id="node6" class="node"><title>1946</title>
<ellipse fill="white" stroke="black" cx="158.749" cy="-120.146" rx="25" ry="25"/>
<text text-anchor="middle" x="158.749" y="-117.946" font-family="Times New Roman,serif" font-size="9.00">1946</text>
</g>
<!-- x&#45;&gt;1946 -->
<g id="edge3" class="edge"><title>x&#45;&gt;1946</title>
<path fill="none" stroke="green" stroke-width="0.384986" d="M206.667,-196.637C199.934,-186.03 187.691,-166.742 177.266,-150.318"/>
<polygon fill="green" stroke="green" stroke-width="0.384986" points="180.022,-148.129 171.708,-141.561 174.112,-151.88 180.022,-148.129"/>
</g>
<!-- 1947 -->
<g id="node7" class="node"><title>1947</title>
<ellipse fill="white" stroke="black" cx="264.749" cy="-120.146" rx="25" ry="25"/>
<text text-anchor="middle" x="264.749" y="-117.946" font-family="Times New Roman,serif" font-size="9.00">1947</text>
</g>
<!-- x&#45;&gt;1947 -->
<g id="edge16" class="edge"><title>x&#45;&gt;1947</title>
<path fill="none" stroke="red" stroke-width="0.285672" d="M216.831,-196.637C223.564,-186.03 235.807,-166.742 246.232,-150.318"/>
<polygon fill="red" stroke="red" stroke-width="0.285672" points="249.386,-151.88 251.79,-141.561 243.476,-148.129 249.386,-151.88"/>
</g>
<!-- 1948 -->
<g id="node8" class="node"><title>1948</title>
<ellipse fill="white" stroke="black" cx="331.749" cy="-120.146" rx="25" ry="25"/>
<text text-anchor="middle" x="331.749" y="-117.946" font-family="Times New Roman,serif" font-size="9.00">1948</text>
</g>
<!-- x&#45;&gt;1948 -->
<g id="edge4" class="edge"><title>x&#45;&gt;1948</title>
<path fill="none" stroke="red" stroke-width="0.178754" d="M221.978,-197.725C238.291,-186.668 271.169,-164.286 298.749,-144.894 300.351,-143.768 301.994,-142.606 303.649,-141.431"/>
<polygon fill="red" stroke="red" stroke-width="0.178754" points="305.803,-144.194 311.906,-135.533 301.734,-138.498 305.803,-144.194"/>
</g>
<!-- 1949 -->
<g id="node9" class="node"><title>1949</title>
<ellipse fill="white" stroke="black" cx="91.7487" cy="-120.146" rx="25" ry="25"/>
<text text-anchor="middle" x="91.7487" y="-117.946" font-family="Times New Roman,serif" font-size="9.00">1949</text>
</g>
<!-- x&#45;&gt;1949 -->
<g id="edge12" class="edge"><title>x&#45;&gt;1949</title>
<path fill="none" stroke="green" stroke-width="0.16771" d="M201.519,-197.725C185.207,-186.668 152.329,-164.286 124.749,-144.894 123.146,-143.768 121.504,-142.606 119.848,-141.431"/>
<polygon fill="green" stroke="green" stroke-width="0.16771" points="121.763,-138.498 111.592,-135.533 117.694,-144.194 121.763,-138.498"/>
</g>
<!-- 1950 -->
<g id="node10" class="node"><title>1950</title>
<ellipse fill="white" stroke="black" cx="398.749" cy="-120.146" rx="25" ry="25"/>
<text text-anchor="middle" x="398.749" y="-117.946" font-family="Times New Roman,serif" font-size="9.00">1950</text>
</g>
<!-- x&#45;&gt;1950 -->
<g id="edge10" class="edge"><title>x&#45;&gt;1950</title>
<path fill="none" stroke="red" stroke-width="0.106546" d="M221.864,-201.701C247.065,-194.166 314.322,-172.785 365.749,-144.894 367.517,-143.935 369.301,-142.896 371.074,-141.805"/>
<polygon fill="red" stroke="red" stroke-width="0.106546" points="373.336,-144.505 379.741,-136.065 369.471,-138.668 373.336,-144.505"/>
</g>
<!-- dx -->
<g id="node2" class="node"><title>dx</title>
<polygon fill="lightgray" stroke="black" points="277.249,-284.392 252.249,-284.392 252.249,-266.392 277.249,-266.392 277.249,-284.392"/>
<text text-anchor="middle" x="264.749" y="-273.192" font-family="Times New Roman,serif" font-size="9.00">dx</text>
</g>
<!-- dx&#45;&gt;control -->
<g id="edge18" class="edge"><title>dx&#45;&gt;control</title>
<path fill="none" stroke="green" stroke-width="0.345634" d="M277.249,-269.217C324.337,-248.982 485.693,-172.522 432.749,-95.397 404.109,-53.6778 344.498,-38.8503 304.546,-33.5865"/>
<polygon fill="green" stroke="green" stroke-width="0.345634" points="304.933,-30.108 294.593,-32.4179 304.116,-37.0602 304.933,-30.108"/>
</g>
<!-- 6336 -->
<g id="node4" class="node"><title>6336</title>
<ellipse fill="white" stroke="black" cx="32.7487" cy="-205.643" rx="25" ry="25"/>
<text text-anchor="middle" x="32.7487" y="-203.443" font-family="Times New Roman,serif" font-size="9.00">6336</text>
</g>
<!-- dx&#45;&gt;6336 -->
<g id="edge19" class="edge"><title>dx&#45;&gt;6336</title>
<path fill="none" stroke="green" stroke-width="0.114867" d="M251.898,-271.288C224.129,-264.505 156.527,-247.589 100.749,-230.392 89.2209,-226.838 76.7251,-222.59 65.6277,-218.676"/>
<polygon fill="green" stroke="green" stroke-width="0.114867" points="66.492,-215.268 55.8974,-215.205 64.1399,-221.861 66.492,-215.268"/>
</g>
<!-- dx&#45;&gt;1946 -->
<g id="edge7" class="edge"><title>dx&#45;&gt;1946</title>
<path fill="none" stroke="green" stroke-width="0.10056" d="M252.142,-269.929C236.048,-263.599 208.417,-250.498 192.749,-230.392 175.808,-208.653 167.243,-178.387 162.951,-155.223"/>
<polygon fill="green" stroke="green" stroke-width="0.10056" points="166.366,-154.422 161.265,-145.136 159.461,-155.576 166.366,-154.422"/>
</g>
<!-- dx&#45;&gt;1947 -->
<g id="edge14" class="edge"><title>dx&#45;&gt;1947</title>
<path fill="none" stroke="green" stroke-width="0.601473" d="M264.749,-266.153C264.749,-245.613 264.749,-191.201 264.749,-155.184"/>
<polygon fill="green" stroke="green" stroke-width="0.601473" points="268.249,-155.106 264.749,-145.106 261.249,-155.106 268.249,-155.106"/>
</g>
<!-- dx&#45;&gt;1948 -->
<g id="edge13" class="edge"><title>dx&#45;&gt;1948</title>
<path fill="none" stroke="green" stroke-width="0.111066" d="M268.351,-266.153C277.544,-245.127 302.254,-188.607 317.971,-152.659"/>
<polygon fill="green" stroke="green" stroke-width="0.111066" points="321.346,-153.677 322.145,-143.112 314.932,-150.873 321.346,-153.677"/>
</g>
<!-- dx&#45;&gt;1949 -->
<g id="edge9" class="edge"><title>dx&#45;&gt;1949</title>
<path fill="none" stroke="red" stroke-width="0.258194" d="M251.959,-271.179C231.821,-265.616 192.289,-252.603 165.749,-230.392 140.004,-208.847 119.484,-176.169 106.645,-152.164"/>
<polygon fill="red" stroke="red" stroke-width="0.258194" points="109.658,-150.372 101.943,-143.11 103.445,-153.598 109.658,-150.372"/>
</g>
<!-- dx&#45;&gt;1950 -->
<g id="edge6" class="edge"><title>dx&#45;&gt;1950</title>
<path fill="none" stroke="green" stroke-width="0.827783" d="M273.431,-266.192C282.489,-257.527 296.984,-243.348 308.749,-230.392 333.358,-203.291 359.802,-170.738 377.613,-148.255"/>
<polygon fill="green" stroke="green" stroke-width="0.827783" points="380.55,-150.183 383.994,-140.163 375.053,-145.848 380.55,-150.183"/>
</g>
<!-- 6336&#45;&gt;1945 -->
<g id="edge20" class="edge"><title>6336&#45;&gt;1945</title>
<path fill="none" stroke="green" stroke-width="0.33132" d="M30.4777,-180.94C29.7092,-172.919 28.8353,-163.797 28.0056,-155.138"/>
<polygon fill="green" stroke="green" stroke-width="0.33132" points="31.4634,-154.529 27.0255,-144.909 24.4953,-155.197 31.4634,-154.529"/>
</g>
<!-- 1945&#45;&gt;control -->
<g id="edge8" class="edge"><title>1945&#45;&gt;control</title>
<path fill="none" stroke="red" stroke-width="0.296248" d="M43.6329,-103.99C48.092,-100.862 52.9499,-97.7947 57.7487,-95.397 113.291,-67.6454 183.169,-48.8008 225.868,-38.9033"/>
<polygon fill="red" stroke="red" stroke-width="0.296248" points="226.874,-42.2639 235.852,-36.6376 225.325,-35.4375 226.874,-42.2639"/>
</g>
<!-- 1946&#45;&gt;control -->
<g id="edge2" class="edge"><title>1946&#45;&gt;control</title>
<path fill="none" stroke="green" stroke-width="0.22986" d="M177.699,-103.333C193.398,-90.234 216.009,-71.3676 234.251,-56.1459"/>
<polygon fill="green" stroke="green" stroke-width="0.22986" points="236.849,-58.5365 242.285,-49.4423 232.365,-53.1617 236.849,-58.5365"/>
</g>
<!-- 1947&#45;&gt;control -->
<g id="edge1" class="edge"><title>1947&#45;&gt;control</title>
<path fill="none" stroke="green" stroke-width="0.196787" d="M264.749,-94.9771C264.749,-87.1955 264.749,-78.3628 264.749,-69.7908"/>
<polygon fill="green" stroke="green" stroke-width="0.196787" points="268.249,-69.5523 264.749,-59.5523 261.249,-69.5524 268.249,-69.5523"/>
</g>
<!-- 1948&#45;&gt;control -->
<g id="edge15" class="edge"><title>1948&#45;&gt;control</title>
<path fill="none" stroke="green" stroke-width="0.228054" d="M317.211,-99.954C308.813,-88.8678 298.044,-74.6523 288.451,-61.9883"/>
<polygon fill="green" stroke="green" stroke-width="0.228054" points="291.182,-59.7965 282.354,-53.9388 285.602,-64.0233 291.182,-59.7965"/>
</g>
<!-- 1950&#45;&gt;control -->
<g id="edge5" class="edge"><title>1950&#45;&gt;control</title>
<path fill="none" stroke="green" stroke-width="0.910422" d="M378.978,-104.654C374.649,-101.555 370.069,-98.3323 365.749,-95.397 343.642,-80.3778 318.316,-64.1565 298.554,-51.7135"/>
<polygon fill="green" stroke="green" stroke-width="0.910422" points="300.228,-48.632 289.898,-46.2801 296.507,-54.5608 300.228,-48.632"/>
</g>
</g>
</svg>
