<?xml version="1.0" encoding="utf-8" standalone="no"?>
<!DOCTYPE svg PUBLIC "-//W3C//DTD SVG 1.1//EN"
  "http://www.w3.org/Graphics/SVG/1.1/DTD/svg11.dtd">
<svg xmlns:xlink="http://www.w3.org/1999/xlink" width="460.8pt" height="345.6pt" viewBox="0 0 460.8 345.6" xmlns="http://www.w3.org/2000/svg" version="1.1">
 <metadata>
  <rdf:RDF xmlns:dc="http://purl.org/dc/elements/1.1/" xmlns:cc="http://creativecommons.org/ns#" xmlns:rdf="http://www.w3.org/1999/02/22-rdf-syntax-ns#">
   <cc:Work>
    <dc:type rdf:resource="http://purl.org/dc/dcmitype/StillImage"/>
    <dc:date>2022-04-27T14:07:42.426985</dc:date>
    <dc:format>image/svg+xml</dc:format>
    <dc:creator>
     <cc:Agent>
      <dc:title>Matplotlib v3.5.1, https://matplotlib.org/</dc:title>
     </cc:Agent>
    </dc:creator>
   </cc:Work>
  </rdf:RDF>
 </metadata>
 <defs>
  <style type="text/css">*{stroke-linejoin: round; stroke-linecap: butt}</style>
 </defs>
 <g id="figure_1">
  <g id="patch_1">
   <path d="M 0 345.6 
L 460.8 345.6 
L 460.8 0 
L 0 0 
z
" style="fill: #ffffff"/>
  </g>
  <g id="axes_1">
   <g id="patch_2">
    <path d="M 57.6 307.584 
L 414.72 307.584 
L 414.72 41.472 
L 57.6 41.472 
z
" style="fill: #ffffff"/>
   </g>
   <g id="PolyCollection_1">
    <path d="M 73.832727 290.418741 
L 73.832727 307.584 
L 91.869091 307.584 
L 109.905455 307.584 
L 127.941818 307.584 
L 145.978182 307.584 
L 164.014545 307.584 
L 182.050909 307.584 
L 200.087273 307.584 
L 218.123636 307.584 
L 236.16 307.584 
L 254.196364 307.584 
L 272.232727 307.584 
L 290.269091 307.584 
L 308.305455 307.584 
L 326.341818 307.584 
L 344.378182 307.584 
L 362.414545 307.584 
L 380.450909 307.584 
L 398.487273 307.584 
L 398.487273 297.991649 
L 398.487273 297.991649 
L 380.450909 297.739219 
L 362.414545 299.253801 
L 344.378182 299.001371 
L 326.341818 298.74894 
L 308.305455 299.001371 
L 290.269091 298.74894 
L 272.232727 301.273243 
L 254.196364 304.807267 
L 236.16 299.001371 
L 218.123636 295.972207 
L 200.087273 298.49651 
L 182.050909 299.001371 
L 164.014545 299.253801 
L 145.978182 290.166311 
L 127.941818 298.49651 
L 109.905455 303.545116 
L 91.869091 299.001371 
L 73.832727 290.418741 
z
" clip-path="url(#pe65e037bda)" style="fill: #1f77b4"/>
   </g>
   <g id="PolyCollection_2">
    <path d="M 73.832727 265.175713 
L 73.832727 290.418741 
L 91.869091 299.001371 
L 109.905455 303.545116 
L 127.941818 298.49651 
L 145.978182 290.166311 
L 164.014545 299.253801 
L 182.050909 299.001371 
L 200.087273 298.49651 
L 218.123636 295.972207 
L 236.16 299.001371 
L 254.196364 304.807267 
L 272.232727 301.273243 
L 290.269091 298.74894 
L 308.305455 299.001371 
L 326.341818 298.74894 
L 344.378182 299.001371 
L 362.414545 299.253801 
L 380.450909 297.739219 
L 398.487273 297.991649 
L 398.487273 286.632287 
L 398.487273 286.632287 
L 380.450909 286.127426 
L 362.414545 287.137147 
L 344.378182 287.137147 
L 326.341818 288.146869 
L 308.305455 287.137147 
L 290.269091 287.642008 
L 272.232727 289.66145 
L 254.196364 293.195474 
L 236.16 287.137147 
L 218.123636 284.360414 
L 200.087273 286.379857 
L 182.050909 287.642008 
L 164.014545 290.671171 
L 145.978182 280.82639 
L 127.941818 289.40902 
L 109.905455 300.515952 
L 91.869091 285.874996 
L 73.832727 265.175713 
z
" clip-path="url(#pe65e037bda)" style="fill: #ff7f0e"/>
   </g>
   <g id="PolyCollection_3">
    <path d="M 73.832727 236.398661 
L 73.832727 265.175713 
L 91.869091 285.874996 
L 109.905455 300.515952 
L 127.941818 289.40902 
L 145.978182 280.82639 
L 164.014545 290.671171 
L 182.050909 287.642008 
L 200.087273 286.379857 
L 218.123636 284.360414 
L 236.16 287.137147 
L 254.196364 293.195474 
L 272.232727 289.66145 
L 290.269091 287.642008 
L 308.305455 287.137147 
L 326.341818 288.146869 
L 344.378182 287.137147 
L 362.414545 287.137147 
L 380.450909 286.127426 
L 398.487273 286.632287 
L 398.487273 274.515633 
L 398.487273 274.515633 
L 380.450909 274.768064 
L 362.414545 275.525355 
L 344.378182 275.777785 
L 326.341818 277.039936 
L 308.305455 275.525355 
L 290.269091 275.272924 
L 272.232727 278.302088 
L 254.196364 282.088542 
L 236.16 275.272924 
L 218.123636 274.010773 
L 200.087273 275.272924 
L 182.050909 277.039936 
L 164.014545 279.816669 
L 145.978182 269.719458 
L 127.941818 283.603124 
L 109.905455 204.340016 
L 91.869091 277.797227 
L 73.832727 236.398661 
z
" clip-path="url(#pe65e037bda)" style="fill: #2ca02c"/>
   </g>
   <g id="PolyCollection_4">
    <path d="M 73.832727 231.097625 
L 73.832727 236.398661 
L 91.869091 277.797227 
L 109.905455 204.340016 
L 127.941818 283.603124 
L 145.978182 269.719458 
L 164.014545 279.816669 
L 182.050909 277.039936 
L 200.087273 275.272924 
L 218.123636 274.010773 
L 236.16 275.272924 
L 254.196364 282.088542 
L 272.232727 278.302088 
L 290.269091 275.272924 
L 308.305455 275.525355 
L 326.341818 277.039936 
L 344.378182 275.777785 
L 362.414545 275.525355 
L 380.450909 274.768064 
L 398.487273 274.515633 
L 398.487273 262.903841 
L 398.487273 262.903841 
L 380.450909 262.14655 
L 362.414545 263.913562 
L 344.378182 262.903841 
L 326.341818 265.680574 
L 308.305455 263.913562 
L 290.269091 264.165992 
L 272.232727 268.204876 
L 254.196364 273.505912 
L 236.16 262.903841 
L 218.123636 260.884398 
L 200.087273 261.89412 
L 182.050909 263.661131 
L 164.014545 269.467028 
L 145.978182 258.360096 
L 127.941818 275.272924 
L 109.905455 194.242805 
L 91.869091 271.23404 
L 73.832727 231.097625 
z
" clip-path="url(#pe65e037bda)" style="fill: #d62728"/>
   </g>
   <g id="PolyCollection_5">
    <path d="M 73.832727 206.864319 
L 73.832727 231.097625 
L 91.869091 271.23404 
L 109.905455 194.242805 
L 127.941818 275.272924 
L 145.978182 258.360096 
L 164.014545 269.467028 
L 182.050909 263.661131 
L 200.087273 261.89412 
L 218.123636 260.884398 
L 236.16 262.903841 
L 254.196364 273.505912 
L 272.232727 268.204876 
L 290.269091 264.165992 
L 308.305455 263.913562 
L 326.341818 265.680574 
L 344.378182 262.903841 
L 362.414545 263.913562 
L 380.450909 262.14655 
L 398.487273 262.903841 
L 398.487273 250.787187 
L 398.487273 250.787187 
L 380.450909 250.282327 
L 362.414545 251.796908 
L 344.378182 251.796908 
L 326.341818 255.078502 
L 308.305455 252.554199 
L 290.269091 253.56392 
L 272.232727 256.845514 
L 254.196364 261.89412 
L 236.16 251.039618 
L 218.123636 249.272606 
L 200.087273 252.049339 
L 182.050909 255.078502 
L 164.014545 256.340653 
L 145.978182 245.486151 
L 127.941818 267.952446 
L 109.905455 187.679618 
L 91.869091 260.884398 
L 73.832727 206.864319 
z
" clip-path="url(#pe65e037bda)" style="fill: #9467bd"/>
   </g>
   <g id="PolyCollection_6">
    <path d="M 73.832727 186.669896 
L 73.832727 206.864319 
L 91.869091 260.884398 
L 109.905455 187.679618 
L 127.941818 267.952446 
L 145.978182 245.486151 
L 164.014545 256.340653 
L 182.050909 255.078502 
L 200.087273 252.049339 
L 218.123636 249.272606 
L 236.16 251.039618 
L 254.196364 261.89412 
L 272.232727 256.845514 
L 290.269091 253.56392 
L 308.305455 252.554199 
L 326.341818 255.078502 
L 344.378182 251.796908 
L 362.414545 251.796908 
L 380.450909 250.282327 
L 398.487273 250.787187 
L 398.487273 241.447267 
L 398.487273 241.447267 
L 380.450909 240.942406 
L 362.414545 240.689976 
L 344.378182 240.185116 
L 326.341818 243.719139 
L 308.305455 241.952127 
L 290.269091 245.233721 
L 272.232727 237.408382 
L 254.196364 255.583363 
L 236.16 243.214279 
L 218.123636 239.427825 
L 200.087273 242.961849 
L 182.050909 248.767745 
L 164.014545 247.505594 
L 145.978182 237.155952 
L 127.941818 261.136829 
L 109.905455 180.864 
L 91.869091 258.612526 
L 73.832727 186.669896 
z
" clip-path="url(#pe65e037bda)" style="fill: #8c564b"/>
   </g>
   <g id="PolyCollection_7">
    <path d="M 73.832727 158.902566 
L 73.832727 186.669896 
L 91.869091 258.612526 
L 109.905455 180.864 
L 127.941818 261.136829 
L 145.978182 237.155952 
L 164.014545 247.505594 
L 182.050909 248.767745 
L 200.087273 242.961849 
L 218.123636 239.427825 
L 236.16 243.214279 
L 254.196364 255.583363 
L 272.232727 237.408382 
L 290.269091 245.233721 
L 308.305455 241.952127 
L 326.341818 243.719139 
L 344.378182 240.185116 
L 362.414545 240.689976 
L 380.450909 240.942406 
L 398.487273 241.447267 
L 398.487273 234.88408 
L 398.487273 234.88408 
L 380.450909 231.097625 
L 362.414545 232.107347 
L 344.378182 232.864637 
L 326.341818 234.88408 
L 308.305455 233.369498 
L 290.269091 234.88408 
L 272.232727 229.330614 
L 254.196364 246.748303 
L 236.16 224.534438 
L 218.123636 227.563602 
L 200.087273 230.592765 
L 182.050909 240.942406 
L 164.014545 239.427825 
L 145.978182 227.311171 
L 127.941818 253.816351 
L 109.905455 172.281371 
L 91.869091 240.185116 
L 73.832727 158.902566 
z
" clip-path="url(#pe65e037bda)" style="fill: #e377c2"/>
   </g>
   <g id="PolyCollection_8">
    <path d="M 73.832727 141.232446 
L 73.832727 158.902566 
L 91.869091 240.185116 
L 109.905455 172.281371 
L 127.941818 253.816351 
L 145.978182 227.311171 
L 164.014545 239.427825 
L 182.050909 240.942406 
L 200.087273 230.592765 
L 218.123636 227.563602 
L 236.16 224.534438 
L 254.196364 246.748303 
L 272.232727 229.330614 
L 290.269091 234.88408 
L 308.305455 233.369498 
L 326.341818 234.88408 
L 344.378182 232.864637 
L 362.414545 232.107347 
L 380.450909 231.097625 
L 398.487273 234.88408 
L 398.487273 226.806311 
L 398.487273 226.806311 
L 380.450909 222.767426 
L 362.414545 223.524717 
L 344.378182 224.029578 
L 326.341818 226.30145 
L 308.305455 224.029578 
L 290.269091 226.806311 
L 272.232727 221.505275 
L 254.196364 240.185116 
L 236.16 218.728542 
L 218.123636 222.262566 
L 200.087273 226.30145 
L 182.050909 239.427825 
L 164.014545 235.641371 
L 145.978182 224.029578 
L 127.941818 166.223044 
L 109.905455 169.252207 
L 91.869091 231.097625 
L 73.832727 141.232446 
z
" clip-path="url(#pe65e037bda)" style="fill: #7f7f7f"/>
   </g>
   <g id="PolyCollection_9">
    <path d="M 73.832727 126.086629 
L 73.832727 141.232446 
L 91.869091 231.097625 
L 109.905455 169.252207 
L 127.941818 166.223044 
L 145.978182 224.029578 
L 164.014545 235.641371 
L 182.050909 239.427825 
L 200.087273 226.30145 
L 218.123636 222.262566 
L 236.16 218.728542 
L 254.196364 240.185116 
L 272.232727 221.505275 
L 290.269091 226.806311 
L 308.305455 224.029578 
L 326.341818 226.30145 
L 344.378182 224.029578 
L 362.414545 223.524717 
L 380.450909 222.767426 
L 398.487273 226.806311 
L 398.487273 214.689657 
L 398.487273 214.689657 
L 380.450909 209.641052 
L 362.414545 210.903203 
L 344.378182 212.922645 
L 326.341818 216.96153 
L 308.305455 214.184797 
L 290.269091 218.476112 
L 272.232727 215.446948 
L 254.196364 234.379219 
L 236.16 213.679936 
L 218.123636 217.718821 
L 200.087273 222.010135 
L 182.050909 236.903522 
L 164.014545 234.126789 
L 145.978182 223.777147 
L 127.941818 161.426869 
L 109.905455 157.387984 
L 91.869091 210.650773 
L 73.832727 126.086629 
z
" clip-path="url(#pe65e037bda)" style="fill: #bcbd22"/>
   </g>
   <g id="PolyCollection_10">
    <path d="M 73.832727 111.698104 
L 73.832727 126.086629 
L 91.869091 210.650773 
L 109.905455 157.387984 
L 127.941818 161.426869 
L 145.978182 223.777147 
L 164.014545 234.126789 
L 182.050909 236.903522 
L 200.087273 222.010135 
L 218.123636 217.718821 
L 236.16 213.679936 
L 254.196364 234.379219 
L 272.232727 215.446948 
L 290.269091 218.476112 
L 308.305455 214.184797 
L 326.341818 216.96153 
L 344.378182 212.922645 
L 362.414545 210.903203 
L 380.450909 209.641052 
L 398.487273 214.689657 
L 398.487273 204.087586 
L 398.487273 204.087586 
L 380.450909 199.543841 
L 362.414545 199.796271 
L 344.378182 201.563283 
L 326.341818 204.087586 
L 308.305455 202.573004 
L 290.269091 207.369179 
L 272.232727 203.582725 
L 254.196364 222.767426 
L 236.16 201.563283 
L 218.123636 203.582725 
L 200.087273 207.116749 
L 182.050909 220.243124 
L 164.014545 212.922645 
L 145.978182 221.757705 
L 127.941818 155.620972 
L 109.905455 151.582088 
L 91.869091 191.718502 
L 73.832727 111.698104 
z
" clip-path="url(#pe65e037bda)" style="fill: #17becf"/>
   </g>
   <g id="PolyCollection_11">
    <path d="M 73.832727 95.290135 
L 73.832727 111.698104 
L 91.869091 191.718502 
L 109.905455 151.582088 
L 127.941818 155.620972 
L 145.978182 221.757705 
L 164.014545 212.922645 
L 182.050909 220.243124 
L 200.087273 207.116749 
L 218.123636 203.582725 
L 236.16 201.563283 
L 254.196364 222.767426 
L 272.232727 203.582725 
L 290.269091 207.369179 
L 308.305455 202.573004 
L 326.341818 204.087586 
L 344.378182 201.563283 
L 362.414545 199.796271 
L 380.450909 199.543841 
L 398.487273 204.087586 
L 398.487273 194.495235 
L 398.487273 194.495235 
L 380.450909 185.912606 
L 362.414545 188.184478 
L 344.378182 191.970932 
L 326.341818 189.194199 
L 308.305455 181.873721 
L 290.269091 198.78655 
L 272.232727 196.514677 
L 254.196364 206.359458 
L 236.16 191.718502 
L 218.123636 189.446629 
L 200.087273 191.970932 
L 182.050909 205.097307 
L 164.014545 209.388622 
L 145.978182 208.631331 
L 127.941818 148.552924 
L 109.905455 147.795633 
L 91.869091 186.417466 
L 73.832727 95.290135 
z
" clip-path="url(#pe65e037bda)" style="fill: #1f77b4"/>
   </g>
   <g id="PolyCollection_12">
    <path d="M 73.832727 92.260972 
L 73.832727 95.290135 
L 91.869091 186.417466 
L 109.905455 147.795633 
L 127.941818 148.552924 
L 145.978182 208.631331 
L 164.014545 209.388622 
L 182.050909 205.097307 
L 200.087273 191.970932 
L 218.123636 189.446629 
L 236.16 191.718502 
L 254.196364 206.359458 
L 272.232727 196.514677 
L 290.269091 198.78655 
L 308.305455 181.873721 
L 326.341818 189.194199 
L 344.378182 191.970932 
L 362.414545 188.184478 
L 380.450909 185.912606 
L 398.487273 194.495235 
L 398.487273 189.194199 
L 398.487273 189.194199 
L 380.450909 180.359139 
L 362.414545 181.873721 
L 344.378182 185.912606 
L 326.341818 183.388303 
L 308.305455 175.562964 
L 290.269091 192.223363 
L 272.232727 190.456351 
L 254.196364 200.805992 
L 236.16 185.407745 
L 218.123636 183.135873 
L 200.087273 186.165036 
L 182.050909 201.058422 
L 164.014545 207.87404 
L 145.978182 202.068143 
L 127.941818 144.76647 
L 109.905455 146.533482 
L 91.869091 182.126151 
L 73.832727 92.260972 
z
" clip-path="url(#pe65e037bda)" style="fill: #ff7f0e"/>
   </g>
   <g id="PolyCollection_13">
    <path d="M 73.832727 89.9891 
L 73.832727 92.260972 
L 91.869091 182.126151 
L 109.905455 146.533482 
L 127.941818 144.76647 
L 145.978182 202.068143 
L 164.014545 207.87404 
L 182.050909 201.058422 
L 200.087273 186.165036 
L 218.123636 183.135873 
L 236.16 185.407745 
L 254.196364 200.805992 
L 272.232727 190.456351 
L 290.269091 192.223363 
L 308.305455 175.562964 
L 326.341818 183.388303 
L 344.378182 185.912606 
L 362.414545 181.873721 
L 380.450909 180.359139 
L 398.487273 189.194199 
L 398.487273 179.854279 
L 398.487273 179.854279 
L 380.450909 170.009498 
L 362.414545 172.281371 
L 344.378182 177.582406 
L 326.341818 175.310534 
L 308.305455 166.980335 
L 290.269091 182.631012 
L 272.232727 180.106709 
L 254.196364 191.466072 
L 236.16 173.291092 
L 218.123636 164.960892 
L 200.087273 165.718183 
L 182.050909 167.737625 
L 164.014545 195.000096 
L 145.978182 192.475793 
L 127.941818 144.009179 
L 109.905455 138.455713 
L 91.869091 160.417147 
L 73.832727 89.9891 
z
" clip-path="url(#pe65e037bda)" style="fill: #2ca02c"/>
   </g>
   <g id="PolyCollection_14">
    <path d="M 73.832727 89.484239 
L 73.832727 89.9891 
L 91.869091 160.417147 
L 109.905455 138.455713 
L 127.941818 144.009179 
L 145.978182 192.475793 
L 164.014545 195.000096 
L 182.050909 167.737625 
L 200.087273 165.718183 
L 218.123636 164.960892 
L 236.16 173.291092 
L 254.196364 191.466072 
L 272.232727 180.106709 
L 290.269091 182.631012 
L 308.305455 166.980335 
L 326.341818 175.310534 
L 344.378182 177.582406 
L 362.414545 172.281371 
L 380.450909 170.009498 
L 398.487273 179.854279 
L 398.487273 168.999777 
L 398.487273 168.999777 
L 380.450909 158.397705 
L 362.414545 160.164717 
L 344.378182 165.465753 
L 326.341818 164.456032 
L 308.305455 153.60153 
L 290.269091 168.494916 
L 272.232727 164.708462 
L 254.196364 173.543522 
L 236.16 161.931729 
L 218.123636 157.892845 
L 200.087273 157.892845 
L 182.050909 161.679299 
L 164.014545 188.436908 
L 145.978182 186.165036 
L 127.941818 137.193562 
L 109.905455 133.659538 
L 91.869091 148.552924 
L 73.832727 89.484239 
z
" clip-path="url(#pe65e037bda)" style="fill: #d62728"/>
   </g>
   <g id="PolyCollection_15">
    <path d="M 73.832727 86.959936 
L 73.832727 89.484239 
L 91.869091 148.552924 
L 109.905455 133.659538 
L 127.941818 137.193562 
L 145.978182 186.165036 
L 164.014545 188.436908 
L 182.050909 161.679299 
L 200.087273 157.892845 
L 218.123636 157.892845 
L 236.16 161.931729 
L 254.196364 173.543522 
L 272.232727 164.708462 
L 290.269091 168.494916 
L 308.305455 153.60153 
L 326.341818 164.456032 
L 344.378182 165.465753 
L 362.414545 160.164717 
L 380.450909 158.397705 
L 398.487273 168.999777 
L 398.487273 155.620972 
L 398.487273 155.620972 
L 380.450909 144.76647 
L 362.414545 149.815076 
L 344.378182 151.329657 
L 326.341818 152.086948 
L 308.305455 141.232446 
L 290.269091 155.873402 
L 272.232727 148.048064 
L 254.196364 155.368542 
L 236.16 152.086948 
L 218.123636 142.242167 
L 200.087273 143.251888 
L 182.050909 150.319936 
L 164.014545 182.883442 
L 145.978182 181.368861 
L 127.941818 135.93141 
L 109.905455 124.067187 
L 91.869091 144.26161 
L 73.832727 86.959936 
z
" clip-path="url(#pe65e037bda)" style="fill: #9467bd"/>
   </g>
   <g id="PolyCollection_16">
    <path d="M 73.832727 85.445355 
L 73.832727 86.959936 
L 91.869091 144.26161 
L 109.905455 124.067187 
L 127.941818 135.93141 
L 145.978182 181.368861 
L 164.014545 182.883442 
L 182.050909 150.319936 
L 200.087273 143.251888 
L 218.123636 142.242167 
L 236.16 152.086948 
L 254.196364 155.368542 
L 272.232727 148.048064 
L 290.269091 155.873402 
L 308.305455 141.232446 
L 326.341818 152.086948 
L 344.378182 151.329657 
L 362.414545 149.815076 
L 380.450909 144.76647 
L 398.487273 155.620972 
L 398.487273 145.523761 
L 398.487273 145.523761 
L 380.450909 135.93141 
L 362.414545 139.465434 
L 344.378182 140.727586 
L 326.341818 140.980016 
L 308.305455 130.377944 
L 290.269091 145.271331 
L 272.232727 137.698422 
L 254.196364 144.76647 
L 236.16 141.989737 
L 218.123636 129.115793 
L 200.087273 131.135235 
L 182.050909 137.950853 
L 164.014545 173.291092 
L 145.978182 172.281371 
L 127.941818 128.106072 
L 109.905455 117.75643 
L 91.869091 133.154677 
L 73.832727 85.445355 
z
" clip-path="url(#pe65e037bda)" style="fill: #8c564b"/>
   </g>
   <g id="PolyCollection_17">
    <path d="M 73.832727 81.15404 
L 73.832727 85.445355 
L 91.869091 133.154677 
L 109.905455 117.75643 
L 127.941818 128.106072 
L 145.978182 172.281371 
L 164.014545 173.291092 
L 182.050909 137.950853 
L 200.087273 131.135235 
L 218.123636 129.115793 
L 236.16 141.989737 
L 254.196364 144.76647 
L 272.232727 137.698422 
L 290.269091 145.271331 
L 308.305455 130.377944 
L 326.341818 140.980016 
L 344.378182 140.727586 
L 362.414545 139.465434 
L 380.450909 135.93141 
L 398.487273 145.523761 
L 398.487273 130.882805 
L 398.487273 130.882805 
L 380.450909 128.358502 
L 362.414545 128.863363 
L 344.378182 126.84392 
L 326.341818 131.387665 
L 308.305455 124.067187 
L 290.269091 129.620653 
L 272.232727 117.25157 
L 254.196364 124.824478 
L 236.16 124.572048 
L 218.123636 117.504 
L 200.087273 122.805036 
L 182.050909 131.135235 
L 164.014545 161.426869 
L 145.978182 166.727904 
L 127.941818 120.533163 
L 109.905455 112.202964 
L 91.869091 122.552606 
L 73.832727 81.15404 
z
" clip-path="url(#pe65e037bda)" style="fill: #e377c2"/>
   </g>
   <g id="PolyCollection_18">
    <path d="M 73.832727 74.085992 
L 73.832727 81.15404 
L 91.869091 122.552606 
L 109.905455 112.202964 
L 127.941818 120.533163 
L 145.978182 166.727904 
L 164.014545 161.426869 
L 182.050909 131.135235 
L 200.087273 122.805036 
L 218.123636 117.504 
L 236.16 124.572048 
L 254.196364 124.824478 
L 272.232727 117.25157 
L 290.269091 129.620653 
L 308.305455 124.067187 
L 326.341818 131.387665 
L 344.378182 126.84392 
L 362.414545 128.863363 
L 380.450909 128.358502 
L 398.487273 130.882805 
L 398.487273 120.785594 
L 398.487273 120.785594 
L 380.450909 118.766151 
L 362.414545 119.775873 
L 344.378182 117.504 
L 326.341818 121.290454 
L 308.305455 113.465116 
L 290.269091 116.494279 
L 272.232727 113.212685 
L 254.196364 106.649498 
L 236.16 109.678661 
L 218.123636 107.154359 
L 200.087273 113.717546 
L 182.050909 126.33906 
L 164.014545 135.17412 
L 145.978182 158.145275 
L 127.941818 111.445673 
L 109.905455 106.397068 
L 91.869091 113.717546 
L 73.832727 74.085992 
z
" clip-path="url(#pe65e037bda)" style="fill: #7f7f7f"/>
   </g>
   <g id="PolyCollection_19">
    <path d="M 73.832727 60.707187 
L 73.832727 74.085992 
L 91.869091 113.717546 
L 109.905455 106.397068 
L 127.941818 111.445673 
L 145.978182 158.145275 
L 164.014545 135.17412 
L 182.050909 126.33906 
L 200.087273 113.717546 
L 218.123636 107.154359 
L 236.16 109.678661 
L 254.196364 106.649498 
L 272.232727 113.212685 
L 290.269091 116.494279 
L 308.305455 113.465116 
L 326.341818 121.290454 
L 344.378182 117.504 
L 362.414545 119.775873 
L 380.450909 118.766151 
L 398.487273 120.785594 
L 398.487273 111.698104 
L 398.487273 111.698104 
L 380.450909 109.931092 
L 362.414545 109.931092 
L 344.378182 108.16408 
L 326.341818 112.455394 
L 308.305455 104.882486 
L 290.269091 108.921371 
L 272.232727 105.387347 
L 254.196364 102.105753 
L 236.16 107.659219 
L 218.123636 100.591171 
L 200.087273 104.377625 
L 182.050909 115.232127 
L 164.014545 126.086629 
L 145.978182 150.067506 
L 127.941818 104.882486 
L 109.905455 100.086311 
L 91.869091 71.81412 
L 73.832727 60.707187 
z
" clip-path="url(#pe65e037bda)" style="fill: #bcbd22"/>
   </g>
   <g id="PolyCollection_20">
    <path d="M 73.832727 59.949896 
L 73.832727 60.707187 
L 91.869091 71.81412 
L 109.905455 100.086311 
L 127.941818 104.882486 
L 145.978182 150.067506 
L 164.014545 126.086629 
L 182.050909 115.232127 
L 200.087273 104.377625 
L 218.123636 100.591171 
L 236.16 107.659219 
L 254.196364 102.105753 
L 272.232727 105.387347 
L 290.269091 108.921371 
L 308.305455 104.882486 
L 326.341818 112.455394 
L 344.378182 108.16408 
L 362.414545 109.931092 
L 380.450909 109.931092 
L 398.487273 111.698104 
L 398.487273 97.309578 
L 398.487273 97.309578 
L 380.450909 95.290135 
L 362.414545 96.047426 
L 344.378182 93.775554 
L 326.341818 96.552287 
L 308.305455 92.765833 
L 290.269091 96.299857 
L 272.232727 93.270693 
L 254.196364 89.484239 
L 236.16 92.513402 
L 218.123636 84.435633 
L 200.087273 83.930773 
L 182.050909 90.998821 
L 164.014545 90.998821 
L 145.978182 113.465116 
L 127.941818 97.814438 
L 109.905455 77.620016 
L 91.869091 66.260653 
L 73.832727 59.949896 
z
" clip-path="url(#pe65e037bda)" style="fill: #17becf"/>
   </g>
   <g id="PolyCollection_21">
    <path d="M 73.832727 58.940175 
L 73.832727 59.949896 
L 91.869091 66.260653 
L 109.905455 77.620016 
L 127.941818 97.814438 
L 145.978182 113.465116 
L 164.014545 90.998821 
L 182.050909 90.998821 
L 200.087273 83.930773 
L 218.123636 84.435633 
L 236.16 92.513402 
L 254.196364 89.484239 
L 272.232727 93.270693 
L 290.269091 96.299857 
L 308.305455 92.765833 
L 326.341818 96.552287 
L 344.378182 93.775554 
L 362.414545 96.047426 
L 380.450909 95.290135 
L 398.487273 97.309578 
L 398.487273 86.707506 
L 398.487273 86.707506 
L 380.450909 84.435633 
L 362.414545 84.688064 
L 344.378182 82.163761 
L 326.341818 84.688064 
L 308.305455 82.163761 
L 290.269091 85.192924 
L 272.232727 81.911331 
L 254.196364 77.620016 
L 236.16 81.911331 
L 218.123636 73.076271 
L 200.087273 72.823841 
L 182.050909 78.882167 
L 164.014545 79.134598 
L 145.978182 77.872446 
L 127.941818 85.697785 
L 109.905455 72.06655 
L 91.869091 61.716908 
L 73.832727 58.940175 
z
" clip-path="url(#pe65e037bda)" style="fill: #1f77b4"/>
   </g>
   <g id="PolyCollection_22">
    <path d="M 73.832727 55.153721 
L 73.832727 58.940175 
L 91.869091 61.716908 
L 109.905455 72.06655 
L 127.941818 85.697785 
L 145.978182 77.872446 
L 164.014545 79.134598 
L 182.050909 78.882167 
L 200.087273 72.823841 
L 218.123636 73.076271 
L 236.16 81.911331 
L 254.196364 77.620016 
L 272.232727 81.911331 
L 290.269091 85.192924 
L 308.305455 82.163761 
L 326.341818 84.688064 
L 344.378182 82.163761 
L 362.414545 84.688064 
L 380.450909 84.435633 
L 398.487273 86.707506 
L 398.487273 74.085992 
L 398.487273 74.085992 
L 380.450909 73.076271 
L 362.414545 74.085992 
L 344.378182 71.056829 
L 326.341818 73.833562 
L 308.305455 72.06655 
L 290.269091 74.338422 
L 272.232727 70.804398 
L 254.196364 66.513084 
L 236.16 71.056829 
L 218.123636 61.969339 
L 200.087273 62.97906 
L 182.050909 67.522805 
L 164.014545 68.027665 
L 145.978182 65.250932 
L 127.941818 73.581131 
L 109.905455 61.464478 
L 91.869091 56.163442 
L 73.832727 55.153721 
z
" clip-path="url(#pe65e037bda)" style="fill: #ff7f0e"/>
   </g>
   <g id="PolyCollection_23">
    <path d="M 73.832727 55.153721 
L 73.832727 55.153721 
L 91.869091 56.163442 
L 109.905455 61.464478 
L 127.941818 73.581131 
L 145.978182 65.250932 
L 164.014545 68.027665 
L 182.050909 67.522805 
L 200.087273 62.97906 
L 218.123636 61.969339 
L 236.16 71.056829 
L 254.196364 66.513084 
L 272.232727 70.804398 
L 290.269091 74.338422 
L 308.305455 72.06655 
L 326.341818 73.833562 
L 344.378182 71.056829 
L 362.414545 74.085992 
L 380.450909 73.076271 
L 398.487273 74.085992 
L 398.487273 64.493641 
L 398.487273 64.493641 
L 380.450909 63.48392 
L 362.414545 63.23149 
L 344.378182 64.746072 
L 326.341818 64.493641 
L 308.305455 63.736351 
L 290.269091 62.97906 
L 272.232727 61.716908 
L 254.196364 60.959618 
L 236.16 60.454757 
L 218.123636 55.658582 
L 200.087273 55.153721 
L 182.050909 55.153721 
L 164.014545 54.648861 
L 145.978182 55.153721 
L 127.941818 54.648861 
L 109.905455 55.153721 
L 91.869091 55.406151 
L 73.832727 55.153721 
z
" clip-path="url(#pe65e037bda)" style="fill: #2ca02c"/>
   </g>
   <g id="PolyCollection_24">
    <path d="M 73.832727 55.153721 
L 73.832727 55.153721 
L 91.869091 55.406151 
L 109.905455 55.153721 
L 127.941818 54.648861 
L 145.978182 55.153721 
L 164.014545 54.648861 
L 182.050909 55.153721 
L 200.087273 55.153721 
L 218.123636 55.658582 
L 236.16 60.454757 
L 254.196364 60.959618 
L 272.232727 61.716908 
L 290.269091 62.97906 
L 308.305455 63.736351 
L 326.341818 64.493641 
L 344.378182 64.746072 
L 362.414545 63.23149 
L 380.450909 63.48392 
L 398.487273 64.493641 
L 398.487273 55.153721 
L 398.487273 55.153721 
L 380.450909 54.39643 
L 362.414545 54.901291 
L 344.378182 54.901291 
L 326.341818 55.153721 
L 308.305455 55.153721 
L 290.269091 54.144 
L 272.232727 55.406151 
L 254.196364 54.39643 
L 236.16 54.648861 
L 218.123636 54.648861 
L 200.087273 55.153721 
L 182.050909 55.153721 
L 164.014545 54.648861 
L 145.978182 55.153721 
L 127.941818 54.648861 
L 109.905455 55.153721 
L 91.869091 55.406151 
L 73.832727 55.153721 
z
" clip-path="url(#pe65e037bda)" style="fill: #d62728"/>
   </g>
   <g id="matplotlib.axis_1">
    <g id="xtick_1">
     <g id="line2d_1">
      <defs>
       <path id="m422b086e5d" d="M 0 0 
L 0 3.5 
" style="stroke: #000000; stroke-width: 0.8"/>
      </defs>
      <g>
       <use xlink:href="#m422b086e5d" x="73.832727" y="307.584" style="stroke: #000000; stroke-width: 0.8"/>
      </g>
     </g>
     <g id="text_1">
      <!-- 0.0 -->
      <g transform="translate(65.881165 322.182437)scale(0.1 -0.1)">
       <defs>
        <path id="DejaVuSans-30" d="M 2034 4250 
Q 1547 4250 1301 3770 
Q 1056 3291 1056 2328 
Q 1056 1369 1301 889 
Q 1547 409 2034 409 
Q 2525 409 2770 889 
Q 3016 1369 3016 2328 
Q 3016 3291 2770 3770 
Q 2525 4250 2034 4250 
z
M 2034 4750 
Q 2819 4750 3233 4129 
Q 3647 3509 3647 2328 
Q 3647 1150 3233 529 
Q 2819 -91 2034 -91 
Q 1250 -91 836 529 
Q 422 1150 422 2328 
Q 422 3509 836 4129 
Q 1250 4750 2034 4750 
z
" transform="scale(0.015625)"/>
        <path id="DejaVuSans-2e" d="M 684 794 
L 1344 794 
L 1344 0 
L 684 0 
L 684 794 
z
" transform="scale(0.015625)"/>
       </defs>
       <use xlink:href="#DejaVuSans-30"/>
       <use xlink:href="#DejaVuSans-2e" x="63.623047"/>
       <use xlink:href="#DejaVuSans-30" x="95.410156"/>
      </g>
     </g>
    </g>
    <g id="xtick_2">
     <g id="line2d_2">
      <g>
       <use xlink:href="#m422b086e5d" x="118.923636" y="307.584" style="stroke: #000000; stroke-width: 0.8"/>
      </g>
     </g>
     <g id="text_2">
      <!-- 2.5 -->
      <g transform="translate(110.972074 322.182437)scale(0.1 -0.1)">
       <defs>
        <path id="DejaVuSans-32" d="M 1228 531 
L 3431 531 
L 3431 0 
L 469 0 
L 469 531 
Q 828 903 1448 1529 
Q 2069 2156 2228 2338 
Q 2531 2678 2651 2914 
Q 2772 3150 2772 3378 
Q 2772 3750 2511 3984 
Q 2250 4219 1831 4219 
Q 1534 4219 1204 4116 
Q 875 4013 500 3803 
L 500 4441 
Q 881 4594 1212 4672 
Q 1544 4750 1819 4750 
Q 2544 4750 2975 4387 
Q 3406 4025 3406 3419 
Q 3406 3131 3298 2873 
Q 3191 2616 2906 2266 
Q 2828 2175 2409 1742 
Q 1991 1309 1228 531 
z
" transform="scale(0.015625)"/>
        <path id="DejaVuSans-35" d="M 691 4666 
L 3169 4666 
L 3169 4134 
L 1269 4134 
L 1269 2991 
Q 1406 3038 1543 3061 
Q 1681 3084 1819 3084 
Q 2600 3084 3056 2656 
Q 3513 2228 3513 1497 
Q 3513 744 3044 326 
Q 2575 -91 1722 -91 
Q 1428 -91 1123 -41 
Q 819 9 494 109 
L 494 744 
Q 775 591 1075 516 
Q 1375 441 1709 441 
Q 2250 441 2565 725 
Q 2881 1009 2881 1497 
Q 2881 1984 2565 2268 
Q 2250 2553 1709 2553 
Q 1456 2553 1204 2497 
Q 953 2441 691 2322 
L 691 4666 
z
" transform="scale(0.015625)"/>
       </defs>
       <use xlink:href="#DejaVuSans-32"/>
       <use xlink:href="#DejaVuSans-2e" x="63.623047"/>
       <use xlink:href="#DejaVuSans-35" x="95.410156"/>
      </g>
     </g>
    </g>
    <g id="xtick_3">
     <g id="line2d_3">
      <g>
       <use xlink:href="#m422b086e5d" x="164.014545" y="307.584" style="stroke: #000000; stroke-width: 0.8"/>
      </g>
     </g>
     <g id="text_3">
      <!-- 5.0 -->
      <g transform="translate(156.062983 322.182437)scale(0.1 -0.1)">
       <use xlink:href="#DejaVuSans-35"/>
       <use xlink:href="#DejaVuSans-2e" x="63.623047"/>
       <use xlink:href="#DejaVuSans-30" x="95.410156"/>
      </g>
     </g>
    </g>
    <g id="xtick_4">
     <g id="line2d_4">
      <g>
       <use xlink:href="#m422b086e5d" x="209.105455" y="307.584" style="stroke: #000000; stroke-width: 0.8"/>
      </g>
     </g>
     <g id="text_4">
      <!-- 7.5 -->
      <g transform="translate(201.153892 322.182437)scale(0.1 -0.1)">
       <defs>
        <path id="DejaVuSans-37" d="M 525 4666 
L 3525 4666 
L 3525 4397 
L 1831 0 
L 1172 0 
L 2766 4134 
L 525 4134 
L 525 4666 
z
" transform="scale(0.015625)"/>
       </defs>
       <use xlink:href="#DejaVuSans-37"/>
       <use xlink:href="#DejaVuSans-2e" x="63.623047"/>
       <use xlink:href="#DejaVuSans-35" x="95.410156"/>
      </g>
     </g>
    </g>
    <g id="xtick_5">
     <g id="line2d_5">
      <g>
       <use xlink:href="#m422b086e5d" x="254.196364" y="307.584" style="stroke: #000000; stroke-width: 0.8"/>
      </g>
     </g>
     <g id="text_5">
      <!-- 10.0 -->
      <g transform="translate(243.063551 322.182437)scale(0.1 -0.1)">
       <defs>
        <path id="DejaVuSans-31" d="M 794 531 
L 1825 531 
L 1825 4091 
L 703 3866 
L 703 4441 
L 1819 4666 
L 2450 4666 
L 2450 531 
L 3481 531 
L 3481 0 
L 794 0 
L 794 531 
z
" transform="scale(0.015625)"/>
       </defs>
       <use xlink:href="#DejaVuSans-31"/>
       <use xlink:href="#DejaVuSans-30" x="63.623047"/>
       <use xlink:href="#DejaVuSans-2e" x="127.246094"/>
       <use xlink:href="#DejaVuSans-30" x="159.033203"/>
      </g>
     </g>
    </g>
    <g id="xtick_6">
     <g id="line2d_6">
      <g>
       <use xlink:href="#m422b086e5d" x="299.287273" y="307.584" style="stroke: #000000; stroke-width: 0.8"/>
      </g>
     </g>
     <g id="text_6">
      <!-- 12.5 -->
      <g transform="translate(288.15446 322.182437)scale(0.1 -0.1)">
       <use xlink:href="#DejaVuSans-31"/>
       <use xlink:href="#DejaVuSans-32" x="63.623047"/>
       <use xlink:href="#DejaVuSans-2e" x="127.246094"/>
       <use xlink:href="#DejaVuSans-35" x="159.033203"/>
      </g>
     </g>
    </g>
    <g id="xtick_7">
     <g id="line2d_7">
      <g>
       <use xlink:href="#m422b086e5d" x="344.378182" y="307.584" style="stroke: #000000; stroke-width: 0.8"/>
      </g>
     </g>
     <g id="text_7">
      <!-- 15.0 -->
      <g transform="translate(333.245369 322.182437)scale(0.1 -0.1)">
       <use xlink:href="#DejaVuSans-31"/>
       <use xlink:href="#DejaVuSans-35" x="63.623047"/>
       <use xlink:href="#DejaVuSans-2e" x="127.246094"/>
       <use xlink:href="#DejaVuSans-30" x="159.033203"/>
      </g>
     </g>
    </g>
    <g id="xtick_8">
     <g id="line2d_8">
      <g>
       <use xlink:href="#m422b086e5d" x="389.469091" y="307.584" style="stroke: #000000; stroke-width: 0.8"/>
      </g>
     </g>
     <g id="text_8">
      <!-- 17.5 -->
      <g transform="translate(378.336278 322.182437)scale(0.1 -0.1)">
       <use xlink:href="#DejaVuSans-31"/>
       <use xlink:href="#DejaVuSans-37" x="63.623047"/>
       <use xlink:href="#DejaVuSans-2e" x="127.246094"/>
       <use xlink:href="#DejaVuSans-35" x="159.033203"/>
      </g>
     </g>
    </g>
    <g id="text_9">
     <!-- Generations -->
     <g transform="translate(205.662344 335.860562)scale(0.1 -0.1)">
      <defs>
       <path id="DejaVuSans-47" d="M 3809 666 
L 3809 1919 
L 2778 1919 
L 2778 2438 
L 4434 2438 
L 4434 434 
Q 4069 175 3628 42 
Q 3188 -91 2688 -91 
Q 1594 -91 976 548 
Q 359 1188 359 2328 
Q 359 3472 976 4111 
Q 1594 4750 2688 4750 
Q 3144 4750 3555 4637 
Q 3966 4525 4313 4306 
L 4313 3634 
Q 3963 3931 3569 4081 
Q 3175 4231 2741 4231 
Q 1884 4231 1454 3753 
Q 1025 3275 1025 2328 
Q 1025 1384 1454 906 
Q 1884 428 2741 428 
Q 3075 428 3337 486 
Q 3600 544 3809 666 
z
" transform="scale(0.015625)"/>
       <path id="DejaVuSans-65" d="M 3597 1894 
L 3597 1613 
L 953 1613 
Q 991 1019 1311 708 
Q 1631 397 2203 397 
Q 2534 397 2845 478 
Q 3156 559 3463 722 
L 3463 178 
Q 3153 47 2828 -22 
Q 2503 -91 2169 -91 
Q 1331 -91 842 396 
Q 353 884 353 1716 
Q 353 2575 817 3079 
Q 1281 3584 2069 3584 
Q 2775 3584 3186 3129 
Q 3597 2675 3597 1894 
z
M 3022 2063 
Q 3016 2534 2758 2815 
Q 2500 3097 2075 3097 
Q 1594 3097 1305 2825 
Q 1016 2553 972 2059 
L 3022 2063 
z
" transform="scale(0.015625)"/>
       <path id="DejaVuSans-6e" d="M 3513 2113 
L 3513 0 
L 2938 0 
L 2938 2094 
Q 2938 2591 2744 2837 
Q 2550 3084 2163 3084 
Q 1697 3084 1428 2787 
Q 1159 2491 1159 1978 
L 1159 0 
L 581 0 
L 581 3500 
L 1159 3500 
L 1159 2956 
Q 1366 3272 1645 3428 
Q 1925 3584 2291 3584 
Q 2894 3584 3203 3211 
Q 3513 2838 3513 2113 
z
" transform="scale(0.015625)"/>
       <path id="DejaVuSans-72" d="M 2631 2963 
Q 2534 3019 2420 3045 
Q 2306 3072 2169 3072 
Q 1681 3072 1420 2755 
Q 1159 2438 1159 1844 
L 1159 0 
L 581 0 
L 581 3500 
L 1159 3500 
L 1159 2956 
Q 1341 3275 1631 3429 
Q 1922 3584 2338 3584 
Q 2397 3584 2469 3576 
Q 2541 3569 2628 3553 
L 2631 2963 
z
" transform="scale(0.015625)"/>
       <path id="DejaVuSans-61" d="M 2194 1759 
Q 1497 1759 1228 1600 
Q 959 1441 959 1056 
Q 959 750 1161 570 
Q 1363 391 1709 391 
Q 2188 391 2477 730 
Q 2766 1069 2766 1631 
L 2766 1759 
L 2194 1759 
z
M 3341 1997 
L 3341 0 
L 2766 0 
L 2766 531 
Q 2569 213 2275 61 
Q 1981 -91 1556 -91 
Q 1019 -91 701 211 
Q 384 513 384 1019 
Q 384 1609 779 1909 
Q 1175 2209 1959 2209 
L 2766 2209 
L 2766 2266 
Q 2766 2663 2505 2880 
Q 2244 3097 1772 3097 
Q 1472 3097 1187 3025 
Q 903 2953 641 2809 
L 641 3341 
Q 956 3463 1253 3523 
Q 1550 3584 1831 3584 
Q 2591 3584 2966 3190 
Q 3341 2797 3341 1997 
z
" transform="scale(0.015625)"/>
       <path id="DejaVuSans-74" d="M 1172 4494 
L 1172 3500 
L 2356 3500 
L 2356 3053 
L 1172 3053 
L 1172 1153 
Q 1172 725 1289 603 
Q 1406 481 1766 481 
L 2356 481 
L 2356 0 
L 1766 0 
Q 1100 0 847 248 
Q 594 497 594 1153 
L 594 3053 
L 172 3053 
L 172 3500 
L 594 3500 
L 594 4494 
L 1172 4494 
z
" transform="scale(0.015625)"/>
       <path id="DejaVuSans-69" d="M 603 3500 
L 1178 3500 
L 1178 0 
L 603 0 
L 603 3500 
z
M 603 4863 
L 1178 4863 
L 1178 4134 
L 603 4134 
L 603 4863 
z
" transform="scale(0.015625)"/>
       <path id="DejaVuSans-6f" d="M 1959 3097 
Q 1497 3097 1228 2736 
Q 959 2375 959 1747 
Q 959 1119 1226 758 
Q 1494 397 1959 397 
Q 2419 397 2687 759 
Q 2956 1122 2956 1747 
Q 2956 2369 2687 2733 
Q 2419 3097 1959 3097 
z
M 1959 3584 
Q 2709 3584 3137 3096 
Q 3566 2609 3566 1747 
Q 3566 888 3137 398 
Q 2709 -91 1959 -91 
Q 1206 -91 779 398 
Q 353 888 353 1747 
Q 353 2609 779 3096 
Q 1206 3584 1959 3584 
z
" transform="scale(0.015625)"/>
       <path id="DejaVuSans-73" d="M 2834 3397 
L 2834 2853 
Q 2591 2978 2328 3040 
Q 2066 3103 1784 3103 
Q 1356 3103 1142 2972 
Q 928 2841 928 2578 
Q 928 2378 1081 2264 
Q 1234 2150 1697 2047 
L 1894 2003 
Q 2506 1872 2764 1633 
Q 3022 1394 3022 966 
Q 3022 478 2636 193 
Q 2250 -91 1575 -91 
Q 1294 -91 989 -36 
Q 684 19 347 128 
L 347 722 
Q 666 556 975 473 
Q 1284 391 1588 391 
Q 1994 391 2212 530 
Q 2431 669 2431 922 
Q 2431 1156 2273 1281 
Q 2116 1406 1581 1522 
L 1381 1569 
Q 847 1681 609 1914 
Q 372 2147 372 2553 
Q 372 3047 722 3315 
Q 1072 3584 1716 3584 
Q 2034 3584 2315 3537 
Q 2597 3491 2834 3397 
z
" transform="scale(0.015625)"/>
      </defs>
      <use xlink:href="#DejaVuSans-47"/>
      <use xlink:href="#DejaVuSans-65" x="77.490234"/>
      <use xlink:href="#DejaVuSans-6e" x="139.013672"/>
      <use xlink:href="#DejaVuSans-65" x="202.392578"/>
      <use xlink:href="#DejaVuSans-72" x="263.916016"/>
      <use xlink:href="#DejaVuSans-61" x="305.029297"/>
      <use xlink:href="#DejaVuSans-74" x="366.308594"/>
      <use xlink:href="#DejaVuSans-69" x="405.517578"/>
      <use xlink:href="#DejaVuSans-6f" x="433.300781"/>
      <use xlink:href="#DejaVuSans-6e" x="494.482422"/>
      <use xlink:href="#DejaVuSans-73" x="557.861328"/>
     </g>
    </g>
   </g>
   <g id="matplotlib.axis_2">
    <g id="ytick_1">
     <g id="line2d_9">
      <defs>
       <path id="mb6cda7efa0" d="M 0 0 
L -3.5 0 
" style="stroke: #000000; stroke-width: 0.8"/>
      </defs>
      <g>
       <use xlink:href="#mb6cda7efa0" x="57.6" y="307.584" style="stroke: #000000; stroke-width: 0.8"/>
      </g>
     </g>
     <g id="text_10">
      <!-- 0 -->
      <g transform="translate(44.2375 311.383219)scale(0.1 -0.1)">
       <use xlink:href="#DejaVuSans-30"/>
      </g>
     </g>
    </g>
    <g id="ytick_2">
     <g id="line2d_10">
      <g>
       <use xlink:href="#mb6cda7efa0" x="57.6" y="257.097944" style="stroke: #000000; stroke-width: 0.8"/>
      </g>
     </g>
     <g id="text_11">
      <!-- 200 -->
      <g transform="translate(31.5125 260.897163)scale(0.1 -0.1)">
       <use xlink:href="#DejaVuSans-32"/>
       <use xlink:href="#DejaVuSans-30" x="63.623047"/>
       <use xlink:href="#DejaVuSans-30" x="127.246094"/>
      </g>
     </g>
    </g>
    <g id="ytick_3">
     <g id="line2d_11">
      <g>
       <use xlink:href="#mb6cda7efa0" x="57.6" y="206.611888" style="stroke: #000000; stroke-width: 0.8"/>
      </g>
     </g>
     <g id="text_12">
      <!-- 400 -->
      <g transform="translate(31.5125 210.411107)scale(0.1 -0.1)">
       <defs>
        <path id="DejaVuSans-34" d="M 2419 4116 
L 825 1625 
L 2419 1625 
L 2419 4116 
z
M 2253 4666 
L 3047 4666 
L 3047 1625 
L 3713 1625 
L 3713 1100 
L 3047 1100 
L 3047 0 
L 2419 0 
L 2419 1100 
L 313 1100 
L 313 1709 
L 2253 4666 
z
" transform="scale(0.015625)"/>
       </defs>
       <use xlink:href="#DejaVuSans-34"/>
       <use xlink:href="#DejaVuSans-30" x="63.623047"/>
       <use xlink:href="#DejaVuSans-30" x="127.246094"/>
      </g>
     </g>
    </g>
    <g id="ytick_4">
     <g id="line2d_12">
      <g>
       <use xlink:href="#mb6cda7efa0" x="57.6" y="156.125833" style="stroke: #000000; stroke-width: 0.8"/>
      </g>
     </g>
     <g id="text_13">
      <!-- 600 -->
      <g transform="translate(31.5125 159.925051)scale(0.1 -0.1)">
       <defs>
        <path id="DejaVuSans-36" d="M 2113 2584 
Q 1688 2584 1439 2293 
Q 1191 2003 1191 1497 
Q 1191 994 1439 701 
Q 1688 409 2113 409 
Q 2538 409 2786 701 
Q 3034 994 3034 1497 
Q 3034 2003 2786 2293 
Q 2538 2584 2113 2584 
z
M 3366 4563 
L 3366 3988 
Q 3128 4100 2886 4159 
Q 2644 4219 2406 4219 
Q 1781 4219 1451 3797 
Q 1122 3375 1075 2522 
Q 1259 2794 1537 2939 
Q 1816 3084 2150 3084 
Q 2853 3084 3261 2657 
Q 3669 2231 3669 1497 
Q 3669 778 3244 343 
Q 2819 -91 2113 -91 
Q 1303 -91 875 529 
Q 447 1150 447 2328 
Q 447 3434 972 4092 
Q 1497 4750 2381 4750 
Q 2619 4750 2861 4703 
Q 3103 4656 3366 4563 
z
" transform="scale(0.015625)"/>
       </defs>
       <use xlink:href="#DejaVuSans-36"/>
       <use xlink:href="#DejaVuSans-30" x="63.623047"/>
       <use xlink:href="#DejaVuSans-30" x="127.246094"/>
      </g>
     </g>
    </g>
    <g id="ytick_5">
     <g id="line2d_13">
      <g>
       <use xlink:href="#mb6cda7efa0" x="57.6" y="105.639777" style="stroke: #000000; stroke-width: 0.8"/>
      </g>
     </g>
     <g id="text_14">
      <!-- 800 -->
      <g transform="translate(31.5125 109.438996)scale(0.1 -0.1)">
       <defs>
        <path id="DejaVuSans-38" d="M 2034 2216 
Q 1584 2216 1326 1975 
Q 1069 1734 1069 1313 
Q 1069 891 1326 650 
Q 1584 409 2034 409 
Q 2484 409 2743 651 
Q 3003 894 3003 1313 
Q 3003 1734 2745 1975 
Q 2488 2216 2034 2216 
z
M 1403 2484 
Q 997 2584 770 2862 
Q 544 3141 544 3541 
Q 544 4100 942 4425 
Q 1341 4750 2034 4750 
Q 2731 4750 3128 4425 
Q 3525 4100 3525 3541 
Q 3525 3141 3298 2862 
Q 3072 2584 2669 2484 
Q 3125 2378 3379 2068 
Q 3634 1759 3634 1313 
Q 3634 634 3220 271 
Q 2806 -91 2034 -91 
Q 1263 -91 848 271 
Q 434 634 434 1313 
Q 434 1759 690 2068 
Q 947 2378 1403 2484 
z
M 1172 3481 
Q 1172 3119 1398 2916 
Q 1625 2713 2034 2713 
Q 2441 2713 2670 2916 
Q 2900 3119 2900 3481 
Q 2900 3844 2670 4047 
Q 2441 4250 2034 4250 
Q 1625 4250 1398 4047 
Q 1172 3844 1172 3481 
z
" transform="scale(0.015625)"/>
       </defs>
       <use xlink:href="#DejaVuSans-38"/>
       <use xlink:href="#DejaVuSans-30" x="63.623047"/>
       <use xlink:href="#DejaVuSans-30" x="127.246094"/>
      </g>
     </g>
    </g>
    <g id="ytick_6">
     <g id="line2d_14">
      <g>
       <use xlink:href="#mb6cda7efa0" x="57.6" y="55.153721" style="stroke: #000000; stroke-width: 0.8"/>
      </g>
     </g>
     <g id="text_15">
      <!-- 1000 -->
      <g transform="translate(25.15 58.95294)scale(0.1 -0.1)">
       <use xlink:href="#DejaVuSans-31"/>
       <use xlink:href="#DejaVuSans-30" x="63.623047"/>
       <use xlink:href="#DejaVuSans-30" x="127.246094"/>
       <use xlink:href="#DejaVuSans-30" x="190.869141"/>
      </g>
     </g>
    </g>
    <g id="text_16">
     <!-- Size per Species -->
     <g transform="translate(19.070312 215.520969)rotate(-90)scale(0.1 -0.1)">
      <defs>
       <path id="DejaVuSans-53" d="M 3425 4513 
L 3425 3897 
Q 3066 4069 2747 4153 
Q 2428 4238 2131 4238 
Q 1616 4238 1336 4038 
Q 1056 3838 1056 3469 
Q 1056 3159 1242 3001 
Q 1428 2844 1947 2747 
L 2328 2669 
Q 3034 2534 3370 2195 
Q 3706 1856 3706 1288 
Q 3706 609 3251 259 
Q 2797 -91 1919 -91 
Q 1588 -91 1214 -16 
Q 841 59 441 206 
L 441 856 
Q 825 641 1194 531 
Q 1563 422 1919 422 
Q 2459 422 2753 634 
Q 3047 847 3047 1241 
Q 3047 1584 2836 1778 
Q 2625 1972 2144 2069 
L 1759 2144 
Q 1053 2284 737 2584 
Q 422 2884 422 3419 
Q 422 4038 858 4394 
Q 1294 4750 2059 4750 
Q 2388 4750 2728 4690 
Q 3069 4631 3425 4513 
z
" transform="scale(0.015625)"/>
       <path id="DejaVuSans-7a" d="M 353 3500 
L 3084 3500 
L 3084 2975 
L 922 459 
L 3084 459 
L 3084 0 
L 275 0 
L 275 525 
L 2438 3041 
L 353 3041 
L 353 3500 
z
" transform="scale(0.015625)"/>
       <path id="DejaVuSans-20" transform="scale(0.015625)"/>
       <path id="DejaVuSans-70" d="M 1159 525 
L 1159 -1331 
L 581 -1331 
L 581 3500 
L 1159 3500 
L 1159 2969 
Q 1341 3281 1617 3432 
Q 1894 3584 2278 3584 
Q 2916 3584 3314 3078 
Q 3713 2572 3713 1747 
Q 3713 922 3314 415 
Q 2916 -91 2278 -91 
Q 1894 -91 1617 61 
Q 1341 213 1159 525 
z
M 3116 1747 
Q 3116 2381 2855 2742 
Q 2594 3103 2138 3103 
Q 1681 3103 1420 2742 
Q 1159 2381 1159 1747 
Q 1159 1113 1420 752 
Q 1681 391 2138 391 
Q 2594 391 2855 752 
Q 3116 1113 3116 1747 
z
" transform="scale(0.015625)"/>
       <path id="DejaVuSans-63" d="M 3122 3366 
L 3122 2828 
Q 2878 2963 2633 3030 
Q 2388 3097 2138 3097 
Q 1578 3097 1268 2742 
Q 959 2388 959 1747 
Q 959 1106 1268 751 
Q 1578 397 2138 397 
Q 2388 397 2633 464 
Q 2878 531 3122 666 
L 3122 134 
Q 2881 22 2623 -34 
Q 2366 -91 2075 -91 
Q 1284 -91 818 406 
Q 353 903 353 1747 
Q 353 2603 823 3093 
Q 1294 3584 2113 3584 
Q 2378 3584 2631 3529 
Q 2884 3475 3122 3366 
z
" transform="scale(0.015625)"/>
      </defs>
      <use xlink:href="#DejaVuSans-53"/>
      <use xlink:href="#DejaVuSans-69" x="63.476562"/>
      <use xlink:href="#DejaVuSans-7a" x="91.259766"/>
      <use xlink:href="#DejaVuSans-65" x="143.75"/>
      <use xlink:href="#DejaVuSans-20" x="205.273438"/>
      <use xlink:href="#DejaVuSans-70" x="237.060547"/>
      <use xlink:href="#DejaVuSans-65" x="300.537109"/>
      <use xlink:href="#DejaVuSans-72" x="362.060547"/>
      <use xlink:href="#DejaVuSans-20" x="403.173828"/>
      <use xlink:href="#DejaVuSans-53" x="434.960938"/>
      <use xlink:href="#DejaVuSans-70" x="498.4375"/>
      <use xlink:href="#DejaVuSans-65" x="561.914062"/>
      <use xlink:href="#DejaVuSans-63" x="623.4375"/>
      <use xlink:href="#DejaVuSans-69" x="678.417969"/>
      <use xlink:href="#DejaVuSans-65" x="706.201172"/>
      <use xlink:href="#DejaVuSans-73" x="767.724609"/>
     </g>
    </g>
   </g>
   <g id="patch_3">
    <path d="M 57.6 307.584 
L 57.6 41.472 
" style="fill: none; stroke: #000000; stroke-width: 0.8; stroke-linejoin: miter; stroke-linecap: square"/>
   </g>
   <g id="patch_4">
    <path d="M 414.72 307.584 
L 414.72 41.472 
" style="fill: none; stroke: #000000; stroke-width: 0.8; stroke-linejoin: miter; stroke-linecap: square"/>
   </g>
   <g id="patch_5">
    <path d="M 57.6 307.584 
L 414.72 307.584 
" style="fill: none; stroke: #000000; stroke-width: 0.8; stroke-linejoin: miter; stroke-linecap: square"/>
   </g>
   <g id="patch_6">
    <path d="M 57.6 41.472 
L 414.72 41.472 
" style="fill: none; stroke: #000000; stroke-width: 0.8; stroke-linejoin: miter; stroke-linecap: square"/>
   </g>
   <g id="text_17">
    <!-- Speciation -->
    <g transform="translate(204.714375 35.472)scale(0.12 -0.12)">
     <use xlink:href="#DejaVuSans-53"/>
     <use xlink:href="#DejaVuSans-70" x="63.476562"/>
     <use xlink:href="#DejaVuSans-65" x="126.953125"/>
     <use xlink:href="#DejaVuSans-63" x="188.476562"/>
     <use xlink:href="#DejaVuSans-69" x="243.457031"/>
     <use xlink:href="#DejaVuSans-61" x="271.240234"/>
     <use xlink:href="#DejaVuSans-74" x="332.519531"/>
     <use xlink:href="#DejaVuSans-69" x="371.728516"/>
     <use xlink:href="#DejaVuSans-6f" x="399.511719"/>
     <use xlink:href="#DejaVuSans-6e" x="460.693359"/>
    </g>
   </g>
  </g>
 </g>
 <defs>
  <clipPath id="pe65e037bda">
   <rect x="57.6" y="41.472" width="357.12" height="266.112"/>
  </clipPath>
 </defs>
</svg>
