<?xml version="1.0" encoding="UTF-8" standalone="no"?>
<!DOCTYPE svg PUBLIC "-//W3C//DTD SVG 1.1//EN"
 "http://www.w3.org/Graphics/SVG/1.1/DTD/svg11.dtd">
<!-- Generated by graphviz version 3.0.0 (20220226.1711)
 -->
<!-- Pages: 1 -->
<svg width="597pt" height="278pt"
 viewBox="0.00 0.00 596.62 278.25" xmlns="http://www.w3.org/2000/svg" xmlns:xlink="http://www.w3.org/1999/xlink">
<g id="graph0" class="graph" transform="scale(1 1) rotate(0) translate(4 274.25)">
<polygon fill="white" stroke="transparent" points="-4,4 -4,-274.25 592.62,-274.25 592.62,4 -4,4"/>
<!-- x -->
<g id="node1" class="node">
<title>x</title>
<polygon fill="lightgray" stroke="black" points="275.41,-270.25 255.41,-270.25 255.41,-252.25 275.41,-252.25 275.41,-270.25"/>
<text text-anchor="middle" x="265.41" y="-259.05" font-family="Times New Roman,serif" font-size="9.00">x</text>
</g>
<!-- 497 -->
<g id="node9" class="node">
<title>497</title>
<ellipse fill="white" stroke="black" cx="261.41" cy="-116.61" rx="21.43" ry="21.43"/>
<text text-anchor="middle" x="261.41" y="-114.41" font-family="Times New Roman,serif" font-size="9.00">497</text>
</g>
<!-- x&#45;&gt;497 -->
<g id="edge12" class="edge">
<title>x&#45;&gt;497</title>
<path fill="none" stroke="red" stroke-width="0.96" d="M275.52,-258.3C293.72,-254.19 331.56,-242.73 347.41,-216.25 357.09,-200.07 356.38,-190.41 347.41,-173.82 335.44,-151.71 310.59,-136.91 290.66,-128.07"/>
<polygon fill="red" stroke="red" stroke-width="0.96" points="291.93,-124.81 281.35,-124.2 289.24,-131.27 291.93,-124.81"/>
</g>
<!-- 502 -->
<g id="node11" class="node">
<title>502</title>
<ellipse fill="white" stroke="black" cx="141.41" cy="-116.61" rx="21.43" ry="21.43"/>
<text text-anchor="middle" x="141.41" y="-114.41" font-family="Times New Roman,serif" font-size="9.00">502</text>
</g>
<!-- x&#45;&gt;502 -->
<g id="edge27" class="edge">
<title>x&#45;&gt;502</title>
<path fill="none" stroke="red" stroke-width="0.11" d="M255.12,-259.7C232.25,-257.86 177.14,-249.98 151.41,-216.25 136.67,-196.93 135.14,-168.93 136.74,-147.69"/>
<polygon fill="red" stroke="red" stroke-width="0.11" points="140.24,-147.88 137.77,-137.58 133.27,-147.18 140.24,-147.88"/>
</g>
<!-- 503 -->
<g id="node12" class="node">
<title>503</title>
<ellipse fill="white" stroke="black" cx="317.41" cy="-195.04" rx="21.43" ry="21.43"/>
<text text-anchor="middle" x="317.41" y="-192.84" font-family="Times New Roman,serif" font-size="9.00">503</text>
</g>
<!-- x&#45;&gt;503 -->
<g id="edge6" class="edge">
<title>x&#45;&gt;503</title>
<path fill="none" stroke="green" stroke-width="0.34" d="M271.99,-252.12C278.55,-244.02 288.92,-231.21 298.1,-219.87"/>
<polygon fill="green" stroke="green" stroke-width="0.34" points="300.93,-221.94 304.51,-211.97 295.49,-217.54 300.93,-221.94"/>
</g>
<!-- 500 -->
<g id="node14" class="node">
<title>500</title>
<ellipse fill="none" stroke="black" cx="201.41" cy="-116.61" rx="21.43" ry="21.43"/>
<text text-anchor="middle" x="201.41" y="-114.41" font-family="Times New Roman,serif" font-size="9.00">500</text>
</g>
<!-- x&#45;&gt;500 -->
<g id="edge22" class="edge">
<title>x&#45;&gt;500</title>
<path fill="none" stroke="red" stroke-width="0.41" d="M258.18,-252.01C251.05,-243.54 240.27,-229.72 233.41,-216.25 222.2,-194.26 213.82,-167.53 208.45,-147.45"/>
<polygon fill="red" stroke="red" stroke-width="0.41" points="211.8,-146.42 205.92,-137.61 205.02,-148.17 211.8,-146.42"/>
</g>
<!-- dx -->
<g id="node2" class="node">
<title>dx</title>
<polygon fill="lightgray" stroke="black" points="185.91,-204.04 160.91,-204.04 160.91,-186.04 185.91,-186.04 185.91,-204.04"/>
<text text-anchor="middle" x="173.41" y="-192.84" font-family="Times New Roman,serif" font-size="9.00">dx</text>
</g>
<!-- dx&#45;&gt;497 -->
<g id="edge5" class="edge">
<title>dx&#45;&gt;497</title>
<path fill="none" stroke="green" stroke-width="0.35" d="M182.82,-185.86C195.9,-174.5 219.97,-153.59 238.04,-137.9"/>
<polygon fill="green" stroke="green" stroke-width="0.35" points="240.61,-140.31 245.86,-131.11 236.02,-135.02 240.61,-140.31"/>
</g>
<!-- dx&#45;&gt;502 -->
<g id="edge14" class="edge">
<title>dx&#45;&gt;502</title>
<path fill="none" stroke="green" stroke-width="0.36" d="M169.98,-185.86C166,-176.35 159.21,-160.13 153.25,-145.89"/>
<polygon fill="green" stroke="green" stroke-width="0.36" points="156.39,-144.33 149.3,-136.45 149.93,-147.03 156.39,-144.33"/>
</g>
<!-- dx&#45;&gt;500 -->
<g id="edge30" class="edge">
<title>dx&#45;&gt;500</title>
<path fill="none" stroke="green" stroke-width="0.18" d="M176.4,-185.86C179.86,-176.41 185.75,-160.34 190.94,-146.17"/>
<polygon fill="green" stroke="green" stroke-width="0.18" points="194.23,-147.36 194.39,-136.77 187.66,-144.95 194.23,-147.36"/>
</g>
<!-- theta -->
<g id="node3" class="node">
<title>theta</title>
<polygon fill="lightgray" stroke="black" points="277.91,-204.04 242.91,-204.04 242.91,-186.04 277.91,-186.04 277.91,-204.04"/>
<text text-anchor="middle" x="260.41" y="-192.84" font-family="Times New Roman,serif" font-size="9.00">theta</text>
</g>
<!-- theta&#45;&gt;497 -->
<g id="edge15" class="edge">
<title>theta&#45;&gt;497</title>
<path fill="none" stroke="red" stroke-width="0.46" d="M260.51,-185.86C260.63,-176.84 260.83,-161.78 261.01,-148.1"/>
<polygon fill="red" stroke="red" stroke-width="0.46" points="264.51,-148.08 261.14,-138.03 257.51,-147.99 264.51,-148.08"/>
</g>
<!-- theta&#45;&gt;502 -->
<g id="edge3" class="edge">
<title>theta&#45;&gt;502</title>
<path fill="none" stroke="green" stroke-width="0.13" d="M247.36,-185.96C229.95,-175.15 198.19,-155.3 171.41,-137.82 169.96,-136.88 168.48,-135.91 166.99,-134.92"/>
<polygon fill="green" stroke="green" stroke-width="0.13" points="168.74,-131.88 158.48,-129.24 164.86,-137.71 168.74,-131.88"/>
</g>
<!-- theta&#45;&gt;500 -->
<g id="edge20" class="edge">
<title>theta&#45;&gt;500</title>
<path fill="none" stroke="red" stroke-width="0.4" d="M254.09,-185.86C246.07,-175.46 231.85,-157.05 220.21,-141.97"/>
<polygon fill="red" stroke="red" stroke-width="0.4" points="222.94,-139.78 214.06,-134.01 217.4,-144.06 222.94,-139.78"/>
</g>
<!-- 498 -->
<g id="node15" class="node">
<title>498</title>
<ellipse fill="none" stroke="black" cx="376.41" cy="-116.61" rx="21.43" ry="21.43"/>
<text text-anchor="middle" x="376.41" y="-114.41" font-family="Times New Roman,serif" font-size="9.00">498</text>
</g>
<!-- theta&#45;&gt;498 -->
<g id="edge24" class="edge">
<title>theta&#45;&gt;498</title>
<path fill="none" stroke="red" stroke-width="0.28" d="M270.78,-185.97C275.74,-182.19 281.81,-177.68 287.41,-173.82 307.92,-159.7 331.8,-144.69 349.67,-133.73"/>
<polygon fill="red" stroke="red" stroke-width="0.28" points="351.69,-136.6 358.41,-128.4 348.05,-130.62 351.69,-136.6"/>
</g>
<!-- dtheta -->
<g id="node4" class="node">
<title>dtheta</title>
<polygon fill="lightgray" stroke="black" points="52.91,-270.25 13.91,-270.25 13.91,-252.25 52.91,-252.25 52.91,-270.25"/>
<text text-anchor="middle" x="33.41" y="-259.05" font-family="Times New Roman,serif" font-size="9.00">dtheta</text>
</g>
<!-- control -->
<g id="node7" class="node">
<title>control</title>
<ellipse fill="lightblue" stroke="black" cx="141.41" cy="-29.7" rx="29.9" ry="29.9"/>
<text text-anchor="middle" x="141.41" y="-27.5" font-family="Times New Roman,serif" font-size="9.00">control</text>
</g>
<!-- dtheta&#45;&gt;control -->
<g id="edge26" class="edge">
<title>dtheta&#45;&gt;control</title>
<path fill="none" stroke="green" stroke-width="0.53" d="M29,-251.93C16.12,-226.35 -18.61,-147.46 13.41,-95.4 32.68,-64.05 72.37,-47.33 102.47,-38.8"/>
<polygon fill="green" stroke="green" stroke-width="0.53" points="103.49,-42.15 112.26,-36.21 101.7,-35.39 103.49,-42.15"/>
</g>
<!-- 496 -->
<g id="node8" class="node">
<title>496</title>
<ellipse fill="white" stroke="black" cx="43.41" cy="-116.61" rx="21.43" ry="21.43"/>
<text text-anchor="middle" x="43.41" y="-114.41" font-family="Times New Roman,serif" font-size="9.00">496</text>
</g>
<!-- dtheta&#45;&gt;496 -->
<g id="edge11" class="edge">
<title>dtheta&#45;&gt;496</title>
<path fill="none" stroke="red" stroke-width="0.35" d="M33.79,-252.14C34.54,-236.83 36.29,-202.6 38.41,-173.82 39.02,-165.44 39.79,-156.36 40.53,-148"/>
<polygon fill="red" stroke="red" stroke-width="0.35" points="44.03,-148.17 41.45,-137.89 37.06,-147.53 44.03,-148.17"/>
</g>
<!-- dtheta&#45;&gt;502 -->
<g id="edge4" class="edge">
<title>dtheta&#45;&gt;502</title>
<path fill="none" stroke="green" stroke-width="0.21" d="M35.61,-251.94C40.21,-235.68 52.06,-199.06 71.41,-173.82 83.42,-158.15 100.69,-144.22 115.07,-134.15"/>
<polygon fill="green" stroke="green" stroke-width="0.21" points="117.26,-136.9 123.58,-128.4 113.33,-131.1 117.26,-136.9"/>
</g>
<!-- dtheta&#45;&gt;503 -->
<g id="edge28" class="edge">
<title>dtheta&#45;&gt;503</title>
<path fill="none" stroke="green" stroke-width="0.19" d="M52.96,-259.63C96.58,-257.67 204.56,-249.55 287.41,-216.25 289.01,-215.61 290.61,-214.87 292.2,-214.06"/>
<polygon fill="green" stroke="green" stroke-width="0.19" points="294.13,-216.99 300.97,-208.9 290.58,-210.95 294.13,-216.99"/>
</g>
<!-- &#45;5 -->
<g id="node5" class="node">
<title>&#45;5</title>
<polygon fill="lightgray" stroke="black" points="473.41,-270.25 449.41,-270.25 449.41,-252.25 473.41,-252.25 473.41,-270.25"/>
<text text-anchor="middle" x="461.41" y="-259.05" font-family="Times New Roman,serif" font-size="9.00">&#45;5</text>
</g>
<!-- &#45;5&#45;&gt;control -->
<g id="edge16" class="edge">
<title>&#45;5&#45;&gt;control</title>
<path fill="none" stroke="green" stroke-width="0.31" d="M461.49,-252.08C461.29,-224.82 456.65,-136.42 406.41,-95.4 340.93,-41.93 237.93,-31.57 181.56,-30.2"/>
<polygon fill="green" stroke="green" stroke-width="0.31" points="181.32,-26.69 171.27,-30.03 181.21,-33.69 181.32,-26.69"/>
</g>
<!-- &#45;5&#45;&gt;497 -->
<g id="edge17" class="edge">
<title>&#45;5&#45;&gt;497</title>
<path fill="none" stroke="green" stroke-width="0.34" d="M453.39,-251.93C437.44,-235.66 400.18,-199.02 364.41,-173.82 340.43,-156.93 310.85,-141.27 289.55,-130.78"/>
<polygon fill="green" stroke="green" stroke-width="0.34" points="290.92,-127.56 280.4,-126.35 287.87,-133.86 290.92,-127.56"/>
</g>
<!-- 499 -->
<g id="node10" class="node">
<title>499</title>
<ellipse fill="white" stroke="black" cx="529.41" cy="-116.61" rx="21.43" ry="21.43"/>
<text text-anchor="middle" x="529.41" y="-114.41" font-family="Times New Roman,serif" font-size="9.00">499</text>
</g>
<!-- &#45;5&#45;&gt;499 -->
<g id="edge7" class="edge">
<title>&#45;5&#45;&gt;499</title>
<path fill="none" stroke="green" stroke-width="0.53" d="M468.8,-252.01C476.1,-243.54 487.19,-229.71 494.41,-216.25 506.25,-194.16 515.5,-167.23 521.5,-147.1"/>
<polygon fill="green" stroke="green" stroke-width="0.53" points="524.93,-147.83 524.34,-137.25 518.21,-145.89 524.93,-147.83"/>
</g>
<!-- &#45;5&#45;&gt;503 -->
<g id="edge13" class="edge">
<title>&#45;5&#45;&gt;503</title>
<path fill="none" stroke="green" stroke-width="0.15" d="M449.13,-254.78C426.45,-244.66 377.43,-222.8 346,-208.79"/>
<polygon fill="green" stroke="green" stroke-width="0.15" points="347.42,-205.59 336.86,-204.71 344.57,-211.98 347.42,-205.59"/>
</g>
<!-- 504 -->
<g id="node13" class="node">
<title>504</title>
<ellipse fill="none" stroke="black" cx="567.41" cy="-195.04" rx="21.43" ry="21.43"/>
<text text-anchor="middle" x="567.41" y="-192.84" font-family="Times New Roman,serif" font-size="9.00">504</text>
</g>
<!-- &#45;5&#45;&gt;504 -->
<g id="edge9" class="edge">
<title>&#45;5&#45;&gt;504</title>
<path fill="none" stroke="red" stroke-width="0.26" d="M473.57,-252.88C489.84,-243.03 519.15,-225.27 540.69,-212.22"/>
<polygon fill="red" stroke="red" stroke-width="0.26" points="542.65,-215.12 549.39,-206.95 539.02,-209.14 542.65,-215.12"/>
</g>
<!-- &#45;5&#45;&gt;498 -->
<g id="edge29" class="edge">
<title>&#45;5&#45;&gt;498</title>
<path fill="none" stroke="red" stroke-width="0.12" d="M457.85,-251.88C451.03,-236.14 435.27,-201.23 418.41,-173.82 411.69,-162.91 403.4,-151.47 395.97,-141.79"/>
<polygon fill="red" stroke="red" stroke-width="0.12" points="398.63,-139.51 389.72,-133.78 393.11,-143.82 398.63,-139.51"/>
</g>
<!-- &#45;6 -->
<g id="node6" class="node">
<title>&#45;6</title>
<polygon fill="lightgray" stroke="black" points="104.41,-204.04 80.41,-204.04 80.41,-186.04 104.41,-186.04 104.41,-204.04"/>
<text text-anchor="middle" x="92.41" y="-192.84" font-family="Times New Roman,serif" font-size="9.00">&#45;6</text>
</g>
<!-- &#45;6&#45;&gt;control -->
<g id="edge25" class="edge">
<title>&#45;6&#45;&gt;control</title>
<path fill="none" stroke="red" stroke-width="0.81" d="M93.29,-185.94C95.29,-168.88 100.85,-128.09 111.41,-95.4 114.63,-85.41 119.01,-74.95 123.42,-65.41"/>
<polygon fill="red" stroke="red" stroke-width="0.81" points="126.65,-66.78 127.8,-56.24 120.33,-63.76 126.65,-66.78"/>
</g>
<!-- &#45;6&#45;&gt;496 -->
<g id="edge23" class="edge">
<title>&#45;6&#45;&gt;496</title>
<path fill="none" stroke="red" stroke-width="0.14" d="M87.16,-185.86C80.74,-175.84 69.56,-158.4 60.1,-143.65"/>
<polygon fill="red" stroke="red" stroke-width="0.14" points="62.84,-141.44 54.5,-134.91 56.95,-145.22 62.84,-141.44"/>
</g>
<!-- &#45;6&#45;&gt;497 -->
<g id="edge2" class="edge">
<title>&#45;6&#45;&gt;497</title>
<path fill="none" stroke="green" stroke-width="0.38" d="M104.69,-190.04C129.4,-181.79 186.59,-161.65 231.41,-137.82 232.93,-137.01 234.47,-136.14 236.02,-135.24"/>
<polygon fill="green" stroke="green" stroke-width="0.38" points="238.06,-138.08 244.65,-129.79 234.33,-132.16 238.06,-138.08"/>
</g>
<!-- &#45;6&#45;&gt;502 -->
<g id="edge8" class="edge">
<title>&#45;6&#45;&gt;502</title>
<path fill="none" stroke="green" stroke-width="0.34" d="M97.65,-185.86C104.07,-175.84 115.26,-158.4 124.71,-143.65"/>
<polygon fill="green" stroke="green" stroke-width="0.34" points="127.86,-145.22 130.31,-134.91 121.97,-141.44 127.86,-145.22"/>
</g>
<!-- &#45;6&#45;&gt;500 -->
<g id="edge10" class="edge">
<title>&#45;6&#45;&gt;500</title>
<path fill="none" stroke="green" stroke-width="0.17" d="M104.07,-185.86C121.14,-173.89 153.34,-151.31 176.02,-135.41"/>
<polygon fill="green" stroke="green" stroke-width="0.17" points="178.32,-138.07 184.49,-129.47 174.3,-132.34 178.32,-138.07"/>
</g>
<!-- 496&#45;&gt;control -->
<g id="edge21" class="edge">
<title>496&#45;&gt;control</title>
<path fill="none" stroke="green" stroke-width="0.2" d="M59.15,-101.97C73.23,-89.77 94.24,-71.57 111.5,-56.61"/>
<polygon fill="green" stroke="green" stroke-width="0.2" points="113.86,-59.2 119.13,-50 109.28,-53.91 113.86,-59.2"/>
</g>
<!-- 497&#45;&gt;control -->
<g id="edge1" class="edge">
<title>497&#45;&gt;control</title>
<path fill="none" stroke="red" stroke-width="0.56" d="M244.47,-103.62C226.14,-90.65 196.47,-69.66 173.66,-53.52"/>
<polygon fill="red" stroke="red" stroke-width="0.56" points="175.48,-50.52 165.29,-47.6 171.44,-56.23 175.48,-50.52"/>
</g>
<!-- 499&#45;&gt;control -->
<g id="edge19" class="edge">
<title>499&#45;&gt;control</title>
<path fill="none" stroke="green" stroke-width="0.45" d="M512.18,-104.1C506.69,-100.86 500.46,-97.63 494.41,-95.4 385.34,-55.28 247.81,-39.27 181.2,-33.54"/>
<polygon fill="green" stroke="green" stroke-width="0.45" points="181.38,-30.05 171.13,-32.71 180.81,-37.02 181.38,-30.05"/>
</g>
<!-- 502&#45;&gt;control -->
<g id="edge18" class="edge">
<title>502&#45;&gt;control</title>
<path fill="none" stroke="red" stroke-width="0.6" d="M141.41,-95.06C141.41,-87.36 141.41,-78.35 141.41,-69.55"/>
<polygon fill="red" stroke="red" stroke-width="0.6" points="144.91,-69.4 141.41,-59.41 137.91,-69.41 144.91,-69.4"/>
</g>
<!-- 503&#45;&gt;497 -->
<g id="edge31" class="edge">
<title>503&#45;&gt;497</title>
<path fill="none" stroke="green" stroke-width="0.1" d="M305.26,-177.45C297.77,-167.24 288.03,-153.95 279.63,-142.49"/>
<polygon fill="green" stroke="green" stroke-width="0.1" points="282.27,-140.16 273.53,-134.16 276.62,-144.3 282.27,-140.16"/>
</g>
</g>
</svg>
