<?xml version="1.0" encoding="UTF-8" standalone="no"?>
<!DOCTYPE svg PUBLIC "-//W3C//DTD SVG 1.1//EN"
 "http://www.w3.org/Graphics/SVG/1.1/DTD/svg11.dtd">
<!-- Generated by graphviz version 2.38.0 (20140413.2041)
 -->
<!-- Title: %3 Pages: 1 -->
<svg width="449pt" height="292pt"
 viewBox="0.00 0.00 449.32 292.39" xmlns="http://www.w3.org/2000/svg" xmlns:xlink="http://www.w3.org/1999/xlink">
<g id="graph0" class="graph" transform="scale(1 1) rotate(0) translate(4 288.392)">
<title>%3</title>
<polygon fill="white" stroke="none" points="-4,4 -4,-288.392 445.318,-288.392 445.318,4 -4,4"/>
<!-- x -->
<g id="node1" class="node"><title>x</title>
<polygon fill="lightgray" stroke="black" points="221.749,-214.643 201.749,-214.643 201.749,-196.643 221.749,-196.643 221.749,-214.643"/>
<text text-anchor="middle" x="211.749" y="-203.443" font-family="Times New Roman,serif" font-size="9.00">x</text>
</g>
<!-- control -->
<g id="node3" class="node"><title>control</title>
<ellipse fill="lightblue" stroke="black" cx="237.749" cy="-29.6985" rx="29.8983" ry="29.8983"/>
<text text-anchor="middle" x="237.749" y="-27.4985" font-family="Times New Roman,serif" font-size="9.00">control</text>
</g>
<!-- x&#45;&gt;control -->
<g id="edge13" class="edge"><title>x&#45;&gt;control</title>
<path fill="none" stroke="green" stroke-width="0.144513" d="M213.003,-196.253C216.369,-173.731 225.769,-110.848 231.965,-69.3898"/>
<polygon fill="green" stroke="green" stroke-width="0.144513" points="235.449,-69.7564 233.466,-59.3488 228.526,-68.7215 235.449,-69.7564"/>
</g>
<!-- 1945 -->
<g id="node5" class="node"><title>1945</title>
<ellipse fill="white" stroke="black" cx="24.7487" cy="-120.146" rx="25" ry="25"/>
<text text-anchor="middle" x="24.7487" y="-117.946" font-family="Times New Roman,serif" font-size="9.00">1945</text>
</g>
<!-- x&#45;&gt;1945 -->
<g id="edge19" class="edge"><title>x&#45;&gt;1945</title>
<path fill="none" stroke="red" stroke-width="0.64633" d="M201.634,-201.701C176.432,-194.166 109.175,-172.785 57.7487,-144.894 55.9804,-143.935 54.1968,-142.896 52.4232,-141.805"/>
<polygon fill="red" stroke="red" stroke-width="0.64633" points="54.0263,-138.668 43.7563,-136.065 50.1611,-144.505 54.0263,-138.668"/>
</g>
<!-- 1946 -->
<g id="node6" class="node"><title>1946</title>
<ellipse fill="white" stroke="black" cx="91.7487" cy="-120.146" rx="25" ry="25"/>
<text text-anchor="middle" x="91.7487" y="-117.946" font-family="Times New Roman,serif" font-size="9.00">1946</text>
</g>
<!-- x&#45;&gt;1946 -->
<g id="edge3" class="edge"><title>x&#45;&gt;1946</title>
<path fill="none" stroke="green" stroke-width="0.384986" d="M201.519,-197.725C185.207,-186.668 152.329,-164.286 124.749,-144.894 123.146,-143.768 121.504,-142.606 119.848,-141.431"/>
<polygon fill="green" stroke="green" stroke-width="0.384986" points="121.763,-138.498 111.592,-135.533 117.694,-144.194 121.763,-138.498"/>
</g>
<!-- 1947 -->
<g id="node7" class="node"><title>1947</title>
<ellipse fill="white" stroke="black" cx="158.749" cy="-120.146" rx="25" ry="25"/>
<text text-anchor="middle" x="158.749" y="-117.946" font-family="Times New Roman,serif" font-size="9.00">1947</text>
</g>
<!-- x&#45;&gt;1947 -->
<g id="edge18" class="edge"><title>x&#45;&gt;1947</title>
<path fill="none" stroke="red" stroke-width="0.285672" d="M206.667,-196.637C199.934,-186.03 187.691,-166.742 177.266,-150.318"/>
<polygon fill="red" stroke="red" stroke-width="0.285672" points="180.022,-148.129 171.708,-141.561 174.112,-151.88 180.022,-148.129"/>
</g>
<!-- 1948 -->
<g id="node8" class="node"><title>1948</title>
<ellipse fill="white" stroke="black" cx="264.749" cy="-120.146" rx="25" ry="25"/>
<text text-anchor="middle" x="264.749" y="-117.946" font-family="Times New Roman,serif" font-size="9.00">1948</text>
</g>
<!-- x&#45;&gt;1948 -->
<g id="edge4" class="edge"><title>x&#45;&gt;1948</title>
<path fill="none" stroke="red" stroke-width="0.178754" d="M216.831,-196.637C223.564,-186.03 235.807,-166.742 246.232,-150.318"/>
<polygon fill="red" stroke="red" stroke-width="0.178754" points="249.386,-151.88 251.79,-141.561 243.476,-148.129 249.386,-151.88"/>
</g>
<!-- 1949 -->
<g id="node9" class="node"><title>1949</title>
<ellipse fill="white" stroke="black" cx="331.749" cy="-120.146" rx="25" ry="25"/>
<text text-anchor="middle" x="331.749" y="-117.946" font-family="Times New Roman,serif" font-size="9.00">1949</text>
</g>
<!-- x&#45;&gt;1949 -->
<g id="edge14" class="edge"><title>x&#45;&gt;1949</title>
<path fill="none" stroke="green" stroke-width="0.16771" d="M221.978,-197.725C238.291,-186.668 271.169,-164.286 298.749,-144.894 300.351,-143.768 301.994,-142.606 303.649,-141.431"/>
<polygon fill="green" stroke="green" stroke-width="0.16771" points="305.803,-144.194 311.906,-135.533 301.734,-138.498 305.803,-144.194"/>
</g>
<!-- 1950 -->
<g id="node10" class="node"><title>1950</title>
<ellipse fill="white" stroke="black" cx="398.749" cy="-120.146" rx="25" ry="25"/>
<text text-anchor="middle" x="398.749" y="-117.946" font-family="Times New Roman,serif" font-size="9.00">1950</text>
</g>
<!-- x&#45;&gt;1950 -->
<g id="edge11" class="edge"><title>x&#45;&gt;1950</title>
<path fill="none" stroke="red" stroke-width="0.106546" d="M221.864,-201.701C247.065,-194.166 314.322,-172.785 365.749,-144.894 367.517,-143.935 369.301,-142.896 371.074,-141.805"/>
<polygon fill="red" stroke="red" stroke-width="0.106546" points="373.336,-144.505 379.741,-136.065 369.471,-138.668 373.336,-144.505"/>
</g>
<!-- dx -->
<g id="node2" class="node"><title>dx</title>
<polygon fill="lightgray" stroke="black" points="224.249,-284.392 199.249,-284.392 199.249,-266.392 224.249,-266.392 224.249,-284.392"/>
<text text-anchor="middle" x="211.749" y="-273.192" font-family="Times New Roman,serif" font-size="9.00">dx</text>
</g>
<!-- dx&#45;&gt;control -->
<g id="edge20" class="edge"><title>dx&#45;&gt;control</title>
<path fill="none" stroke="green" stroke-width="0.345634" d="M224.36,-272.027C264.977,-263.62 392.097,-230.94 432.749,-144.894 442.146,-125.004 445.624,-113.234 432.749,-95.397 397.5,-46.5635 323.92,-34.0022 277.906,-31.1092"/>
<polygon fill="green" stroke="green" stroke-width="0.345634" points="277.849,-27.602 267.686,-30.5965 277.498,-34.5932 277.849,-27.602"/>
</g>
<!-- 6336 -->
<g id="node4" class="node"><title>6336</title>
<ellipse fill="white" stroke="black" cx="32.7487" cy="-205.643" rx="25" ry="25"/>
<text text-anchor="middle" x="32.7487" y="-203.443" font-family="Times New Roman,serif" font-size="9.00">6336</text>
</g>
<!-- dx&#45;&gt;6336 -->
<g id="edge21" class="edge"><title>dx&#45;&gt;6336</title>
<path fill="none" stroke="green" stroke-width="0.114867" d="M199.236,-271.375C174.606,-265.227 118.356,-250.143 73.7487,-230.392 70.0467,-228.753 66.2526,-226.866 62.5388,-224.887"/>
<polygon fill="green" stroke="green" stroke-width="0.114867" points="64.0062,-221.698 53.5704,-219.869 60.588,-227.807 64.0062,-221.698"/>
</g>
<!-- dx&#45;&gt;1945 -->
<g id="edge12" class="edge"><title>dx&#45;&gt;1945</title>
<path fill="none" stroke="red" stroke-width="0.188341" stroke-dasharray="1,5" d="M198.969,-268.921C182.38,-261.501 152.932,-247.223 130.749,-230.392 98.3562,-205.816 66.6114,-171.319 46.4364,-147.704"/>
<polygon fill="red" stroke="red" stroke-width="0.188341" points="48.9243,-145.225 39.8007,-139.839 43.5741,-149.739 48.9243,-145.225"/>
</g>
<!-- dx&#45;&gt;1946 -->
<g id="edge8" class="edge"><title>dx&#45;&gt;1946</title>
<path fill="none" stroke="green" stroke-width="0.10056" d="M204.05,-266.146C196.018,-257.442 183.168,-243.233 172.749,-230.392 150.948,-203.522 127.564,-171.616 111.552,-149.244"/>
<polygon fill="green" stroke="green" stroke-width="0.10056" points="114.241,-146.986 105.587,-140.874 108.54,-151.049 114.241,-146.986"/>
</g>
<!-- dx&#45;&gt;1947 -->
<g id="edge16" class="edge"><title>dx&#45;&gt;1947</title>
<path fill="none" stroke="green" stroke-width="0.601473" d="M207.987,-266.386C203.953,-257.647 197.488,-243.188 192.749,-230.392 183.399,-205.145 174.419,-176.01 168.038,-154.18"/>
<polygon fill="green" stroke="green" stroke-width="0.601473" points="171.351,-153.036 165.211,-144.402 164.627,-154.981 171.351,-153.036"/>
</g>
<!-- dx&#45;&gt;1948 -->
<g id="edge15" class="edge"><title>dx&#45;&gt;1948</title>
<path fill="none" stroke="green" stroke-width="0.111066" d="M215.51,-266.386C219.545,-257.647 226.01,-243.188 230.749,-230.392 240.098,-205.145 249.078,-176.01 255.459,-154.18"/>
<polygon fill="green" stroke="green" stroke-width="0.111066" points="258.871,-154.981 258.286,-144.402 252.146,-153.036 258.871,-154.981"/>
</g>
<!-- dx&#45;&gt;1949 -->
<g id="edge10" class="edge"><title>dx&#45;&gt;1949</title>
<path fill="none" stroke="red" stroke-width="0.258194" d="M220.168,-266.283C228.922,-257.693 242.845,-243.574 253.749,-230.392 275.386,-204.235 297.653,-172.475 312.828,-149.957"/>
<polygon fill="red" stroke="red" stroke-width="0.258194" points="315.826,-151.77 318.479,-141.513 310.008,-147.877 315.826,-151.77"/>
</g>
<!-- dx&#45;&gt;1950 -->
<g id="edge6" class="edge"><title>dx&#45;&gt;1950</title>
<path fill="none" stroke="green" stroke-width="0.827783" d="M224.275,-268.24C239.656,-260.422 266.226,-246.051 286.749,-230.392 320.314,-204.783 354.407,-169.999 376.014,-146.622"/>
<polygon fill="green" stroke="green" stroke-width="0.827783" points="378.674,-148.901 382.845,-139.162 373.511,-144.174 378.674,-148.901"/>
</g>
<!-- 6336&#45;&gt;1945 -->
<g id="edge22" class="edge"><title>6336&#45;&gt;1945</title>
<path fill="none" stroke="green" stroke-width="0.33132" d="M30.4777,-180.94C29.7092,-172.919 28.8353,-163.797 28.0056,-155.138"/>
<polygon fill="green" stroke="green" stroke-width="0.33132" points="31.4634,-154.529 27.0255,-144.909 24.4953,-155.197 31.4634,-154.529"/>
</g>
<!-- 1945&#45;&gt;control -->
<g id="edge9" class="edge"><title>1945&#45;&gt;control</title>
<path fill="none" stroke="red" stroke-width="0.296248" d="M43.7094,-104.139C48.1645,-101.003 53.0015,-97.8952 57.7487,-95.397 104.219,-70.9422 161.96,-52.0127 199.317,-41.1135"/>
<polygon fill="red" stroke="red" stroke-width="0.296248" points="200.639,-44.3756 209.287,-38.2544 198.709,-37.6468 200.639,-44.3756"/>
</g>
<!-- 1946&#45;&gt;control -->
<g id="edge2" class="edge"><title>1946&#45;&gt;control</title>
<path fill="none" stroke="green" stroke-width="0.22986" d="M111.411,-104.489C115.746,-101.401 120.357,-98.224 124.749,-95.397 150.311,-78.9442 180.197,-61.9244 202.812,-49.4729"/>
<polygon fill="green" stroke="green" stroke-width="0.22986" points="204.624,-52.4714 211.715,-44.5999 201.263,-46.331 204.624,-52.4714"/>
</g>
<!-- 1947&#45;&gt;control -->
<g id="edge1" class="edge"><title>1947&#45;&gt;control</title>
<path fill="none" stroke="green" stroke-width="0.196787" d="M174.736,-101.247C185.289,-89.4322 199.362,-73.6758 211.532,-60.0509"/>
<polygon fill="green" stroke="green" stroke-width="0.196787" points="214.385,-62.1107 218.436,-52.321 209.164,-57.4476 214.385,-62.1107"/>
</g>
<!-- 1948&#45;&gt;control -->
<g id="edge17" class="edge"><title>1948&#45;&gt;control</title>
<path fill="none" stroke="green" stroke-width="0.228054" d="M257.796,-96.3683C255.175,-87.783 252.12,-77.7748 249.196,-68.1975"/>
<polygon fill="green" stroke="green" stroke-width="0.228054" points="252.488,-66.9929 246.221,-58.4505 245.793,-69.0367 252.488,-66.9929"/>
</g>
<!-- 1949&#45;&gt;control -->
<g id="edge7" class="edge"><title>1949&#45;&gt;control</title>
<path fill="none" stroke="green" stroke-width="0.113977" stroke-dasharray="1,5" d="M314.068,-102.509C300.631,-89.8663 281.871,-72.2143 266.313,-57.5757"/>
<polygon fill="green" stroke="green" stroke-width="0.113977" points="268.652,-54.9704 258.971,-50.6667 263.855,-60.0684 268.652,-54.9704"/>
</g>
<!-- 1950&#45;&gt;control -->
<g id="edge5" class="edge"><title>1950&#45;&gt;control</title>
<path fill="none" stroke="green" stroke-width="0.910422" d="M379.196,-104.315C374.854,-101.237 370.213,-98.1089 365.749,-95.397 335.803,-77.2054 300.103,-59.4643 274.023,-47.175"/>
<polygon fill="green" stroke="green" stroke-width="0.910422" points="275.42,-43.9646 264.879,-42.9033 272.458,-50.3068 275.42,-43.9646"/>
</g>
</g>
</svg>
