<?xml version="1.0" encoding="UTF-8" standalone="no"?>
<!DOCTYPE svg PUBLIC "-//W3C//DTD SVG 1.1//EN"
 "http://www.w3.org/Graphics/SVG/1.1/DTD/svg11.dtd">
<!-- Generated by graphviz version 3.0.0 (20220226.1711)
 -->
<!-- Pages: 1 -->
<svg width="572pt" height="278pt"
 viewBox="0.00 0.00 572.00 278.25" xmlns="http://www.w3.org/2000/svg" xmlns:xlink="http://www.w3.org/1999/xlink">
<g id="graph0" class="graph" transform="scale(1 1) rotate(0) translate(4 274.25)">
<polygon fill="white" stroke="transparent" points="-4,4 -4,-274.25 568,-274.25 568,4 -4,4"/>
<!-- x -->
<g id="node1" class="node">
<title>x</title>
<polygon fill="lightgray" stroke="black" points="251.18,-270.25 231.18,-270.25 231.18,-252.25 251.18,-252.25 251.18,-270.25"/>
<text text-anchor="middle" x="241.18" y="-259.05" font-family="Times New Roman,serif" font-size="9.00">x</text>
</g>
<!-- 497 -->
<g id="node9" class="node">
<title>497</title>
<ellipse fill="white" stroke="black" cx="259.18" cy="-116.61" rx="21.43" ry="21.43"/>
<text text-anchor="middle" x="259.18" y="-114.41" font-family="Times New Roman,serif" font-size="9.00">497</text>
</g>
<!-- x&#45;&gt;497 -->
<g id="edge12" class="edge">
<title>x&#45;&gt;497</title>
<path fill="none" stroke="red" stroke-width="0.96" d="M251.38,-259.45C272.95,-257.13 322.97,-248.38 344.18,-216.25 354.57,-200.51 353.11,-190.43 344.18,-173.82 332.5,-152.09 308.32,-137.36 288.73,-128.44"/>
<polygon fill="red" stroke="red" stroke-width="0.96" points="289.85,-125.12 279.28,-124.42 287.11,-131.56 289.85,-125.12"/>
</g>
<!-- 500 -->
<g id="node12" class="node">
<title>500</title>
<ellipse fill="white" stroke="black" cx="199.18" cy="-116.61" rx="21.43" ry="21.43"/>
<text text-anchor="middle" x="199.18" y="-114.41" font-family="Times New Roman,serif" font-size="9.00">500</text>
</g>
<!-- x&#45;&gt;500 -->
<g id="edge23" class="edge">
<title>x&#45;&gt;500</title>
<path fill="none" stroke="red" stroke-width="0.41" d="M230.89,-255.45C217.91,-248.75 196.21,-235.26 187.18,-216.25 176.73,-194.26 181.45,-166.53 187.79,-146.08"/>
<polygon fill="red" stroke="red" stroke-width="0.41" points="191.18,-146.99 191.08,-136.39 184.55,-144.74 191.18,-146.99"/>
</g>
<!-- 502 -->
<g id="node13" class="node">
<title>502</title>
<ellipse fill="white" stroke="black" cx="139.18" cy="-116.61" rx="21.43" ry="21.43"/>
<text text-anchor="middle" x="139.18" y="-114.41" font-family="Times New Roman,serif" font-size="9.00">502</text>
</g>
<!-- x&#45;&gt;502 -->
<g id="edge28" class="edge">
<title>x&#45;&gt;502</title>
<path fill="none" stroke="red" stroke-width="0.11" d="M231.12,-255.73C217.18,-249 192.05,-235.09 177.18,-216.25 161.23,-196.04 151.35,-168.35 145.68,-147.46"/>
<polygon fill="red" stroke="red" stroke-width="0.11" points="149.01,-146.35 143.15,-137.52 142.22,-148.07 149.01,-146.35"/>
</g>
<!-- 503 -->
<g id="node14" class="node">
<title>503</title>
<ellipse fill="white" stroke="black" cx="314.18" cy="-195.04" rx="21.43" ry="21.43"/>
<text text-anchor="middle" x="314.18" y="-192.84" font-family="Times New Roman,serif" font-size="9.00">503</text>
</g>
<!-- x&#45;&gt;503 -->
<g id="edge6" class="edge">
<title>x&#45;&gt;503</title>
<path fill="none" stroke="green" stroke-width="0.34" d="M250.43,-252.12C260.56,-243.2 277.21,-228.56 290.95,-216.47"/>
<polygon fill="green" stroke="green" stroke-width="0.34" points="293.44,-218.94 298.63,-209.71 288.81,-213.69 293.44,-218.94"/>
</g>
<!-- dx -->
<g id="node2" class="node">
<title>dx</title>
<polygon fill="lightgray" stroke="black" points="221.68,-204.04 196.68,-204.04 196.68,-186.04 221.68,-186.04 221.68,-204.04"/>
<text text-anchor="middle" x="209.18" y="-192.84" font-family="Times New Roman,serif" font-size="9.00">dx</text>
</g>
<!-- dx&#45;&gt;497 -->
<g id="edge5" class="edge">
<title>dx&#45;&gt;497</title>
<path fill="none" stroke="green" stroke-width="0.35" d="M214.53,-185.86C221.08,-175.84 232.5,-158.4 242.14,-143.65"/>
<polygon fill="green" stroke="green" stroke-width="0.35" points="245.32,-145.2 247.86,-134.91 239.46,-141.36 245.32,-145.2"/>
</g>
<!-- dx&#45;&gt;500 -->
<g id="edge31" class="edge">
<title>dx&#45;&gt;500</title>
<path fill="none" stroke="green" stroke-width="0.18" d="M208.11,-185.86C206.92,-176.77 204.93,-161.58 203.13,-147.82"/>
<polygon fill="green" stroke="green" stroke-width="0.18" points="206.58,-147.18 201.81,-137.72 199.64,-148.08 206.58,-147.18"/>
</g>
<!-- dx&#45;&gt;502 -->
<g id="edge14" class="edge">
<title>dx&#45;&gt;502</title>
<path fill="none" stroke="green" stroke-width="0.36" d="M201.69,-185.86C191.84,-175.1 174.13,-155.77 160.07,-140.42"/>
<polygon fill="green" stroke="green" stroke-width="0.36" points="162.45,-137.83 153.11,-132.82 157.29,-142.56 162.45,-137.83"/>
</g>
<!-- theta -->
<g id="node3" class="node">
<title>theta</title>
<polygon fill="lightgray" stroke="black" points="274.68,-204.04 239.68,-204.04 239.68,-186.04 274.68,-186.04 274.68,-204.04"/>
<text text-anchor="middle" x="257.18" y="-192.84" font-family="Times New Roman,serif" font-size="9.00">theta</text>
</g>
<!-- theta&#45;&gt;497 -->
<g id="edge15" class="edge">
<title>theta&#45;&gt;497</title>
<path fill="none" stroke="red" stroke-width="0.46" d="M257.39,-185.86C257.63,-176.84 258.02,-161.78 258.38,-148.1"/>
<polygon fill="red" stroke="red" stroke-width="0.46" points="261.88,-148.12 258.65,-138.03 254.89,-147.94 261.88,-148.12"/>
</g>
<!-- 498 -->
<g id="node10" class="node">
<title>498</title>
<ellipse fill="white" stroke="black" cx="409.18" cy="-116.61" rx="21.43" ry="21.43"/>
<text text-anchor="middle" x="409.18" y="-114.41" font-family="Times New Roman,serif" font-size="9.00">498</text>
</g>
<!-- theta&#45;&gt;498 -->
<g id="edge25" class="edge">
<title>theta&#45;&gt;498</title>
<path fill="none" stroke="red" stroke-width="0.28" d="M266.82,-186C271.82,-182.06 278.13,-177.39 284.18,-173.82 315.49,-155.37 353.93,-138.93 379.85,-128.66"/>
<polygon fill="red" stroke="red" stroke-width="0.28" points="381.42,-131.81 389.46,-124.91 378.88,-125.29 381.42,-131.81"/>
</g>
<!-- theta&#45;&gt;500 -->
<g id="edge21" class="edge">
<title>theta&#45;&gt;500</title>
<path fill="none" stroke="red" stroke-width="0.4" d="M250.97,-185.86C243.16,-175.56 229.37,-157.39 217.98,-142.39"/>
<polygon fill="red" stroke="red" stroke-width="0.4" points="220.46,-139.86 211.62,-134.01 214.88,-144.09 220.46,-139.86"/>
</g>
<!-- theta&#45;&gt;502 -->
<g id="edge3" class="edge">
<title>theta&#45;&gt;502</title>
<path fill="none" stroke="green" stroke-width="0.13" d="M246.86,-185.89C241.91,-182.09 235.83,-177.59 230.18,-173.82 203.99,-156.36 195.8,-154.63 169.18,-137.82 167.72,-136.9 166.23,-135.94 164.73,-134.97"/>
<polygon fill="green" stroke="green" stroke-width="0.13" points="166.47,-131.93 156.2,-129.33 162.61,-137.77 166.47,-131.93"/>
</g>
<!-- dtheta -->
<g id="node4" class="node">
<title>dtheta</title>
<polygon fill="lightgray" stroke="black" points="69.68,-270.25 30.68,-270.25 30.68,-252.25 69.68,-252.25 69.68,-270.25"/>
<text text-anchor="middle" x="50.18" y="-259.05" font-family="Times New Roman,serif" font-size="9.00">dtheta</text>
</g>
<!-- control -->
<g id="node7" class="node">
<title>control</title>
<ellipse fill="lightblue" stroke="black" cx="139.18" cy="-29.7" rx="29.9" ry="29.9"/>
<text text-anchor="middle" x="139.18" y="-27.5" font-family="Times New Roman,serif" font-size="9.00">control</text>
</g>
<!-- dtheta&#45;&gt;control -->
<g id="edge27" class="edge">
<title>dtheta&#45;&gt;control</title>
<path fill="none" stroke="green" stroke-width="0.53" d="M44.23,-252.02C26.7,-226.71 -21.48,-148.51 11.18,-95.4 30.46,-64.05 70.14,-47.33 100.24,-38.8"/>
<polygon fill="green" stroke="green" stroke-width="0.53" points="101.26,-42.15 110.04,-36.21 99.47,-35.39 101.26,-42.15"/>
</g>
<!-- 496 -->
<g id="node8" class="node">
<title>496</title>
<ellipse fill="white" stroke="black" cx="41.18" cy="-116.61" rx="21.43" ry="21.43"/>
<text text-anchor="middle" x="41.18" y="-114.41" font-family="Times New Roman,serif" font-size="9.00">496</text>
</g>
<!-- dtheta&#45;&gt;496 -->
<g id="edge11" class="edge">
<title>dtheta&#45;&gt;496</title>
<path fill="none" stroke="red" stroke-width="0.35" d="M46.71,-252C43.25,-243.29 38.17,-229.08 36.18,-216.25 32.65,-193.52 34.19,-167.52 36.46,-147.93"/>
<polygon fill="red" stroke="red" stroke-width="0.35" points="39.97,-148.12 37.77,-137.76 33.02,-147.23 39.97,-148.12"/>
</g>
<!-- 499 -->
<g id="node11" class="node">
<title>499</title>
<ellipse fill="white" stroke="black" cx="412.18" cy="-195.04" rx="21.43" ry="21.43"/>
<text text-anchor="middle" x="412.18" y="-192.84" font-family="Times New Roman,serif" font-size="9.00">499</text>
</g>
<!-- dtheta&#45;&gt;499 -->
<g id="edge19" class="edge">
<title>dtheta&#45;&gt;499</title>
<path fill="none" stroke="green" stroke-width="0.51" stroke-dasharray="1,5" d="M69.97,-258.26C117.58,-253.26 242.16,-238.93 344.18,-216.25 356.83,-213.44 370.56,-209.52 382.35,-205.89"/>
<polygon fill="green" stroke="green" stroke-width="0.51" points="383.66,-209.15 392.14,-202.8 381.55,-202.47 383.66,-209.15"/>
</g>
<!-- dtheta&#45;&gt;502 -->
<g id="edge4" class="edge">
<title>dtheta&#45;&gt;502</title>
<path fill="none" stroke="green" stroke-width="0.21" d="M50.22,-251.95C50.66,-235.72 53.47,-199.15 69.18,-173.82 79.66,-156.93 97.07,-142.92 111.91,-133.11"/>
<polygon fill="green" stroke="green" stroke-width="0.21" points="114.13,-135.85 120.72,-127.56 110.4,-129.92 114.13,-135.85"/>
</g>
<!-- dtheta&#45;&gt;503 -->
<g id="edge29" class="edge">
<title>dtheta&#45;&gt;503</title>
<path fill="none" stroke="green" stroke-width="0.19" d="M69.73,-259.24C110.88,-256.55 208.84,-247.16 284.18,-216.25 285.78,-215.59 287.38,-214.85 288.96,-214.03"/>
<polygon fill="green" stroke="green" stroke-width="0.19" points="290.9,-216.96 297.73,-208.86 287.34,-210.93 290.9,-216.96"/>
</g>
<!-- &#45;5 -->
<g id="node5" class="node">
<title>&#45;5</title>
<polygon fill="lightgray" stroke="black" points="497.18,-270.25 473.18,-270.25 473.18,-252.25 497.18,-252.25 497.18,-270.25"/>
<text text-anchor="middle" x="485.18" y="-259.05" font-family="Times New Roman,serif" font-size="9.00">&#45;5</text>
</g>
<!-- &#45;5&#45;&gt;control -->
<g id="edge16" class="edge">
<title>&#45;5&#45;&gt;control</title>
<path fill="none" stroke="green" stroke-width="0.31" d="M497.32,-256.91C514.26,-251.52 544.35,-239.12 557.18,-216.25 566.4,-199.8 566.09,-190.44 557.18,-173.82 527.43,-118.32 497.19,-119.89 439.18,-95.4 350.51,-57.96 237.59,-41.14 178.8,-34.48"/>
<polygon fill="green" stroke="green" stroke-width="0.31" points="179.14,-31 168.82,-33.39 178.38,-37.96 179.14,-31"/>
</g>
<!-- &#45;5&#45;&gt;497 -->
<g id="edge17" class="edge">
<title>&#45;5&#45;&gt;497</title>
<path fill="none" stroke="green" stroke-width="0.34" d="M497.53,-254.54C510.87,-247.61 531.39,-234.55 540.18,-216.25 548.35,-199.25 552.13,-188.41 540.18,-173.82 532.21,-164.1 361.66,-134.69 290.22,-122.74"/>
<polygon fill="green" stroke="green" stroke-width="0.34" points="290.48,-119.23 280.04,-121.04 289.33,-126.14 290.48,-119.23"/>
</g>
<!-- &#45;5&#45;&gt;498 -->
<g id="edge30" class="edge">
<title>&#45;5&#45;&gt;498</title>
<path fill="none" stroke="red" stroke-width="0.12" d="M481.33,-252.05C474.03,-236.59 457.5,-202.12 442.18,-173.82 436.85,-163.97 430.7,-153.33 425.17,-143.99"/>
<polygon fill="red" stroke="red" stroke-width="0.12" points="428.03,-141.95 419.9,-135.15 422.02,-145.53 428.03,-141.95"/>
</g>
<!-- &#45;5&#45;&gt;499 -->
<g id="edge7" class="edge">
<title>&#45;5&#45;&gt;499</title>
<path fill="none" stroke="green" stroke-width="0.53" d="M475.93,-252.12C465.8,-243.2 449.15,-228.56 435.41,-216.47"/>
<polygon fill="green" stroke="green" stroke-width="0.53" points="437.55,-213.69 427.73,-209.71 432.92,-218.94 437.55,-213.69"/>
</g>
<!-- &#45;5&#45;&gt;503 -->
<g id="edge13" class="edge">
<title>&#45;5&#45;&gt;503</title>
<path fill="none" stroke="green" stroke-width="0.15" d="M473.16,-255.73C446.43,-245.7 381.44,-221.3 343.35,-206.99"/>
<polygon fill="green" stroke="green" stroke-width="0.15" points="344.42,-203.65 333.83,-203.41 341.96,-210.21 344.42,-203.65"/>
</g>
<!-- 504 -->
<g id="node15" class="node">
<title>504</title>
<ellipse fill="white" stroke="black" cx="510.18" cy="-195.04" rx="21.43" ry="21.43"/>
<text text-anchor="middle" x="510.18" y="-192.84" font-family="Times New Roman,serif" font-size="9.00">504</text>
</g>
<!-- &#45;5&#45;&gt;504 -->
<g id="edge9" class="edge">
<title>&#45;5&#45;&gt;504</title>
<path fill="none" stroke="red" stroke-width="0.26" d="M488.35,-252.12C491.07,-245.11 495.18,-234.56 499.1,-224.5"/>
<polygon fill="red" stroke="red" stroke-width="0.26" points="502.38,-225.72 502.75,-215.13 495.86,-223.18 502.38,-225.72"/>
</g>
<!-- &#45;6 -->
<g id="node6" class="node">
<title>&#45;6</title>
<polygon fill="lightgray" stroke="black" points="102.18,-204.04 78.18,-204.04 78.18,-186.04 102.18,-186.04 102.18,-204.04"/>
<text text-anchor="middle" x="90.18" y="-192.84" font-family="Times New Roman,serif" font-size="9.00">&#45;6</text>
</g>
<!-- &#45;6&#45;&gt;control -->
<g id="edge26" class="edge">
<title>&#45;6&#45;&gt;control</title>
<path fill="none" stroke="red" stroke-width="0.81" d="M91.06,-185.94C93.06,-168.88 98.63,-128.09 109.18,-95.4 112.4,-85.41 116.78,-74.95 121.19,-65.41"/>
<polygon fill="red" stroke="red" stroke-width="0.81" points="124.42,-66.78 125.58,-56.24 118.11,-63.76 124.42,-66.78"/>
</g>
<!-- &#45;6&#45;&gt;496 -->
<g id="edge24" class="edge">
<title>&#45;6&#45;&gt;496</title>
<path fill="none" stroke="red" stroke-width="0.14" d="M84.94,-185.86C78.52,-175.84 67.33,-158.4 57.88,-143.65"/>
<polygon fill="red" stroke="red" stroke-width="0.14" points="60.62,-141.44 52.27,-134.91 54.72,-145.22 60.62,-141.44"/>
</g>
<!-- &#45;6&#45;&gt;497 -->
<g id="edge2" class="edge">
<title>&#45;6&#45;&gt;497</title>
<path fill="none" stroke="green" stroke-width="0.38" d="M102.46,-190.04C127.17,-181.79 184.36,-161.65 229.18,-137.82 230.71,-137.01 232.25,-136.14 233.79,-135.24"/>
<polygon fill="green" stroke="green" stroke-width="0.38" points="235.83,-138.08 242.43,-129.79 232.1,-132.16 235.83,-138.08"/>
</g>
<!-- &#45;6&#45;&gt;500 -->
<g id="edge10" class="edge">
<title>&#45;6&#45;&gt;500</title>
<path fill="none" stroke="green" stroke-width="0.17" d="M101.85,-185.86C118.91,-173.89 151.12,-151.31 173.8,-135.41"/>
<polygon fill="green" stroke="green" stroke-width="0.17" points="176.09,-138.07 182.27,-129.47 172.07,-132.34 176.09,-138.07"/>
</g>
<!-- &#45;6&#45;&gt;502 -->
<g id="edge8" class="edge">
<title>&#45;6&#45;&gt;502</title>
<path fill="none" stroke="green" stroke-width="0.34" d="M95.42,-185.86C101.84,-175.84 113.03,-158.4 122.48,-143.65"/>
<polygon fill="green" stroke="green" stroke-width="0.34" points="125.64,-145.22 128.09,-134.91 119.74,-141.44 125.64,-145.22"/>
</g>
<!-- 496&#45;&gt;control -->
<g id="edge22" class="edge">
<title>496&#45;&gt;control</title>
<path fill="none" stroke="green" stroke-width="0.2" d="M56.93,-101.97C71,-89.77 92.01,-71.57 109.27,-56.61"/>
<polygon fill="green" stroke="green" stroke-width="0.2" points="111.63,-59.2 116.9,-50 107.05,-53.91 111.63,-59.2"/>
</g>
<!-- 497&#45;&gt;control -->
<g id="edge1" class="edge">
<title>497&#45;&gt;control</title>
<path fill="none" stroke="red" stroke-width="0.56" d="M242.24,-103.62C223.91,-90.65 194.24,-69.66 171.44,-53.52"/>
<polygon fill="red" stroke="red" stroke-width="0.56" points="173.25,-50.52 163.07,-47.6 169.21,-56.23 173.25,-50.52"/>
</g>
<!-- 499&#45;&gt;control -->
<g id="edge20" class="edge">
<title>499&#45;&gt;control</title>
<path fill="none" stroke="green" stroke-width="0.45" d="M397.26,-179.83C375.06,-159.24 331.4,-120.8 289.18,-95.4 252.89,-73.56 207.89,-55.19 176.7,-43.66"/>
<polygon fill="green" stroke="green" stroke-width="0.45" points="177.68,-40.3 167.08,-40.17 175.29,-46.87 177.68,-40.3"/>
</g>
<!-- 502&#45;&gt;control -->
<g id="edge18" class="edge">
<title>502&#45;&gt;control</title>
<path fill="none" stroke="red" stroke-width="0.6" d="M139.18,-95.06C139.18,-87.36 139.18,-78.35 139.18,-69.55"/>
<polygon fill="red" stroke="red" stroke-width="0.6" points="142.68,-69.4 139.18,-59.41 135.68,-69.41 142.68,-69.4"/>
</g>
<!-- 503&#45;&gt;497 -->
<g id="edge32" class="edge">
<title>503&#45;&gt;497</title>
<path fill="none" stroke="green" stroke-width="0.1" d="M302.25,-177.45C294.94,-167.31 285.46,-154.13 277.25,-142.72"/>
<polygon fill="green" stroke="green" stroke-width="0.1" points="279.96,-140.5 271.28,-134.43 274.28,-144.59 279.96,-140.5"/>
</g>
</g>
</svg>
